<svg width="168" height="700" viewBox="0 0 168 700" fill="none" xmlns="http://www.w3.org/2000/svg">
<path d="M140.924 573L140.924 568.438L131.799 568.438L131.799 573L140.924 573ZM131.799 624.359C131.799 626.879 133.842 628.922 136.361 628.922C138.881 628.922 140.924 626.879 140.924 624.359L131.799 624.359ZM131.799 573L131.799 624.359L140.924 624.359L140.924 573L131.799 573Z" fill="#43F07E"/>
<path d="M84.6268 573L84.6268 568.438L75.5021 568.438L75.5021 573L84.6268 573ZM75.5021 624.359C75.5021 626.879 77.5448 628.922 80.0645 628.922C82.5841 628.922 84.6268 626.879 84.6268 624.359L75.5021 624.359ZM75.5021 573L75.5021 624.359L84.6268 624.359L84.6268 573L75.5021 573Z" fill="#43F07E"/>
<path d="M65.8611 573L65.8611 568.438L56.7365 568.438L56.7365 573L65.8611 573ZM56.7365 624.359C56.7365 626.879 58.7791 628.922 61.2988 628.922C63.8185 628.922 65.8611 626.879 65.8611 624.359L56.7365 624.359ZM56.7365 573L56.7365 624.359L65.8611 624.359L65.8611 573L56.7365 573Z" fill="#43F07E"/>
<path d="M47.0936 573L47.0936 568.438L37.9689 568.438L37.9689 573L47.0936 573ZM37.9689 624.359C37.9689 626.879 40.0116 628.922 42.5312 628.922C45.0509 628.922 47.0936 626.879 47.0936 624.359L37.9689 624.359ZM37.9689 573L37.9689 624.359L47.0936 624.359L47.0936 573L37.9689 573Z" fill="#43F054" fill-opacity="0.3"/>
<path d="M28.3279 573L28.3279 568.438L19.2033 568.438L19.2033 573L28.3279 573ZM19.2033 624.359C19.2033 626.879 21.2459 628.922 23.7656 628.922C26.2853 628.922 28.3279 626.879 28.3279 624.359L19.2033 624.359ZM19.2033 573L19.2033 624.359L28.3279 624.359L28.3279 573L19.2033 573Z" fill="#43F07E"/>
<path d="M9.56231 573L9.56231 568.438L0.43769 568.438L0.43769 573L9.56231 573ZM0.437688 624.359C0.437688 626.879 2.4803 628.922 5 628.922C7.51969 628.922 9.56231 626.879 9.56231 624.359L0.437688 624.359ZM0.43769 573L0.437688 624.359L9.56231 624.359L9.56231 573L0.43769 573Z" fill="#43F07E"/>
<path d="M122.158 573L122.158 568.438L113.033 568.438L113.033 573L122.158 573ZM113.033 624.359C113.033 626.879 115.076 628.922 117.596 628.922C120.115 628.922 122.158 626.879 122.158 624.359L113.033 624.359ZM113.033 573L113.033 624.359L122.158 624.359L122.158 573L113.033 573Z" fill="#43F07E"/>
<path d="M103.392 573L103.392 568.438L94.2678 568.438L94.2678 573L103.392 573ZM94.2678 624.359C94.2678 626.879 96.3104 628.922 98.8301 628.922C101.35 628.922 103.392 626.879 103.392 624.359L94.2678 624.359ZM94.2678 573L94.2678 624.359L103.392 624.359L103.392 573L94.2678 573Z" fill="#43F07E"/>
<path d="M80.5152 174.471L80.5154 174.471C81.3537 176.248 82.1394 178.065 82.9015 179.827C83.1142 180.319 83.325 180.807 83.5347 181.288C83.721 181.715 83.862 182.037 83.959 182.256C83.9899 182.326 84.0152 182.382 84.0353 182.427C84.0727 182.475 84.125 182.519 84.1864 182.549C84.2619 182.585 84.3056 182.58 84.3116 182.579C84.4113 182.559 84.4452 182.532 84.4636 182.516C84.4905 182.493 84.5659 182.417 84.6458 182.227L80.5152 174.471ZM80.5152 174.471C77.3604 167.787 72.1117 162.762 65.3779 159.747L80.5152 174.471ZM94.7735 165.279C91.7682 168.088 89.4238 171.383 87.7539 175.144L103.967 159.405C102.587 160.018 101.357 160.618 100.288 161.205L100.288 161.205C98.3825 162.253 96.5461 163.622 94.7735 165.279ZM94.7735 165.279L96.8218 167.471L94.773 165.28C94.7732 165.279 94.7733 165.279 94.7735 165.279ZM57.246 156.132L57.2466 156.132C59.9599 157.33 62.6702 158.535 65.3775 159.747L57.246 156.132ZM57.246 156.132C57.1462 156.088 57.0376 155.983 57.0065 155.774C56.9918 155.675 57.0036 155.59 57.0245 155.531C57.039 155.489 57.0598 155.452 57.0964 155.415C57.1105 155.407 57.131 155.394 57.1588 155.379C57.2624 155.32 57.4235 155.238 57.6565 155.134L56.4332 152.395L57.6579 155.133C61.1571 153.571 63.5499 152.507 64.8432 151.939M57.246 156.132L70.0548 149.089M70.0548 149.089L70.0542 149.089C68.3825 150.244 66.6126 151.162 64.8432 151.939M70.0548 149.089C74.567 145.969 78.0132 141.888 80.364 136.893L80.3645 136.892M70.0548 149.089L80.3645 136.892M64.8432 151.939L63.6384 149.193L64.8442 151.938C64.8439 151.939 64.8435 151.939 64.8432 151.939ZM80.3645 136.892C80.6342 136.318 81.0336 135.381 81.5473 134.131C82.2198 132.497 82.8971 130.865 83.5792 129.235L83.5795 129.234M80.3645 136.892L83.5795 129.234M83.5795 129.234C83.6353 129.1 83.6867 128.975 83.732 128.865L83.7378 128.851C83.7858 128.734 83.8256 128.638 83.8629 128.549C83.9389 128.369 83.9848 128.27 84.0189 128.204C84.0482 128.147 84.0614 128.129 84.0633 128.126L84.0635 128.126C84.0656 128.123 84.0793 128.105 84.1221 128.063L84.1231 128.062M83.5795 129.234L84.1231 128.062M84.1231 128.062C84.1604 128.026 84.2235 127.993 84.3245 128.001C84.4082 128.008 84.4615 128.039 84.4945 128.072C84.5068 128.094 84.5274 128.132 84.5562 128.189C84.629 128.334 84.7258 128.546 84.8471 128.839L84.8471 128.839M84.1231 128.062L84.8471 128.839M84.8471 128.839C85.6764 130.841 86.5054 132.844 87.334 134.847L87.3342 134.847M84.8471 128.839L87.3342 134.847M87.3342 134.847C87.811 136 88.3635 137.271 89.0043 138.454L89.0045 138.455M87.3342 134.847L89.0045 138.455M89.0045 138.455C92.0891 144.146 96.5673 148.451 102.376 151.309L102.378 151.31M89.0045 138.455L102.378 151.31M102.378 151.31C102.78 151.508 103.38 151.782 104.148 152.122L104.15 152.123M102.378 151.31L104.15 152.123M104.15 152.123C106.431 153.132 108.711 154.143 110.99 155.157L104.15 152.123ZM110.786 156.373L110.787 156.372C111.053 156.254 111.246 156.164 111.378 156.099C111.411 156.083 111.437 156.07 111.456 156.06C111.485 156.033 111.518 155.991 111.543 155.922C111.58 155.825 111.591 155.706 111.567 155.593C111.552 155.524 111.537 155.496 111.536 155.494L111.535 155.493C111.534 155.491 111.532 155.486 111.519 155.473C111.485 155.437 111.355 155.319 110.99 155.157L110.786 156.373ZM110.786 156.373C108.513 157.384 106.241 158.394 103.968 159.405L110.786 156.373Z" stroke="white" stroke-width="6"/>
<path d="M144.29 224.041L144.291 224.041C144.88 225.29 145.434 226.571 145.964 227.797C146.005 227.891 146.045 227.985 146.086 228.079C146.466 227.21 146.99 226.023 147.654 224.528C148.864 221.802 150.565 219.412 152.742 217.377L144.29 224.041ZM144.29 224.041C142.002 219.192 138.191 215.547 133.32 213.367L144.29 224.041ZM136.716 207.551L136.715 207.551C135.492 208.396 134.208 209.061 132.942 209.616L131.737 206.87L132.943 209.616L136.716 207.551ZM136.716 207.551C139.985 205.29 142.485 202.33 144.186 198.715L144.186 198.713L136.716 207.551ZM146.087 194.193C146.509 195.213 146.931 196.233 147.353 197.253L147.354 197.254C147.688 198.061 148.086 198.98 148.555 199.845L148.555 199.846C150.788 203.967 154.04 207.093 158.245 209.162L158.247 209.163C158.544 209.309 158.975 209.505 159.51 209.742L159.512 209.743C160.762 210.296 162.011 210.849 163.26 211.404C161.968 211.979 160.676 212.553 159.384 213.127L146.087 194.193ZM146.087 194.193C145.732 195.046 145.378 195.899 145.027 196.753C145.027 196.753 145.026 196.754 145.026 196.754L142.252 195.612L146.087 194.193ZM156.758 214.413L156.758 214.413C157.529 213.989 158.407 213.561 159.383 213.128L156.758 214.413ZM156.758 214.413C155.357 215.183 154.02 216.182 152.743 217.377L156.758 214.413ZM127.666 210.853C127.667 210.853 127.668 210.854 127.669 210.854C127.668 210.854 127.667 210.854 127.666 210.853L127.666 210.853ZM133.32 213.367C131.853 212.709 130.384 212.056 128.915 211.405L133.32 213.367Z" stroke="white" stroke-width="6"/>
<path d="M125.041 271.426C125.663 270.334 126.441 269.35 127.371 268.481L125.041 271.426ZM125.041 271.426C123.849 269.329 122.118 267.682 119.999 266.566C120.391 266.359 120.787 266.124 121.176 265.855L121.177 265.855C122.801 264.732 124.096 263.3 125.041 261.59C126.234 263.737 127.932 265.411 130.085 266.564C129.949 266.633 129.818 266.703 129.691 266.773L129.691 266.773C128.86 267.229 128.089 267.81 127.371 268.481L125.041 271.426Z" stroke="white" stroke-width="6"/>
</svg>
