<svg width="544" height="700" viewBox="0 0 544 700" fill="none" xmlns="http://www.w3.org/2000/svg">
<g clip-path="url(#clip0_337_3320)">
<rect x="43" y="546" width="112.256" height="138.161" rx="5.11707" fill="#55C5BC"/>
<rect x="62.1815" y="574.457" width="74.3314" height="45.1071" stroke="white" stroke-width="1.90593"/>
<path d="M87.9123 596.058L61.5469 620.199H136.514L111.101 596.058L101.571 605.27L87.9123 596.058Z" fill="white"/>
<circle cx="112.053" cy="586.21" r="5.08249" fill="white"/>
<mask id="path-6-inside-1_337_3320" fill="white">
<path d="M43 648.021H155.256V684.161H43V648.021Z"/>
</mask>
<path d="M43 649.981H155.256V646.062H43V649.981Z" fill="white" mask="url(#path-6-inside-1_337_3320)"/>
<rect x="53.2344" y="656.017" width="91.7874" height="4.47743" rx="2.23872" fill="white"/>
<path d="M53.2344 667.292C53.2344 666.056 54.2367 665.053 55.4731 665.053H142.783C144.019 665.053 145.022 666.056 145.022 667.292V667.292C145.022 668.528 144.019 669.531 142.783 669.531H55.4731C54.2367 669.531 53.2344 668.528 53.2344 667.292V667.292Z" fill="white"/>
<path d="M53.2891 676.077C53.2891 674.86 54.2761 673.873 55.4938 673.873H103.507C104.725 673.873 105.712 674.86 105.712 676.077V676.077C105.712 677.295 104.725 678.282 103.507 678.282H55.4938C54.2761 678.282 53.2891 677.295 53.2891 676.077V676.077Z" fill="white"/>
</g>
<rect x="42.0201" y="545.02" width="114.215" height="140.12" rx="6.09693" stroke="white" stroke-width="1.95973"/>
<rect x="11.0605" y="6.27588" width="308.94" height="251.028" rx="11.7972" fill="white"/>
<rect width="308.94" height="251.028" rx="11.7972" fill="#F5CD27"/>
<path d="M8.6266 1.47465H300.314C304.263 1.47465 307.465 4.67669 307.465 8.6266V41.6583H1.47465V8.62659C1.47465 4.67668 4.67669 1.47465 8.6266 1.47465Z" stroke="white" stroke-width="2.94931"/>
<rect x="278.746" y="12.9399" width="17.2532" height="17.2532" stroke="white" stroke-width="2.94931"/>
<path d="M295.707 29.9008L279.039 13.2324" stroke="white" stroke-width="2.94931"/>
<path d="M279.039 29.9008L295.707 13.2324" stroke="white" stroke-width="2.94931"/>
<circle cx="24" cy="22" r="8.5" fill="white" stroke="white" stroke-width="3"/>
<circle cx="52" cy="22" r="8.5" fill="white" stroke="white" stroke-width="3"/>
<circle cx="80" cy="22" r="8.5" fill="white" stroke="white" stroke-width="3"/>
<g clip-path="url(#clip1_337_3320)">
<mask id="path-20-inside-2_337_3320" fill="white">
<path d="M0 43.1328H308.94V242.402C308.94 247.166 305.078 251.028 300.313 251.028H8.62659C3.86225 251.028 0 247.166 0 242.402V43.1328Z"/>
</mask>
<path d="M0 43.1328H308.94H0ZM311.889 242.402C311.889 248.795 306.707 253.978 300.313 253.978H8.6266C2.2334 253.978 -2.94931 248.795 -2.94931 242.402L2.94931 242.402C2.94931 245.537 5.49112 248.079 8.6266 248.079H300.313C303.449 248.079 305.991 245.537 305.991 242.402L311.889 242.402ZM8.6266 253.978C2.2334 253.978 -2.94931 248.795 -2.94931 242.402V43.1328H2.94931V242.402C2.94931 245.537 5.49112 248.079 8.6266 248.079L8.6266 253.978ZM311.889 43.1328V242.402C311.889 248.795 306.707 253.978 300.313 253.978L300.313 248.079C303.449 248.079 305.991 245.537 305.991 242.402V43.1328H311.889Z" fill="white" mask="url(#path-20-inside-2_337_3320)"/>
</g>
<path d="M544 605C544 627.644 525.644 646 503 646C480.356 646 462 627.644 462 605C462 582.356 480.356 564 503 564C525.644 564 544 582.356 544 605ZM472.998 605C472.998 621.57 486.43 635.002 503 635.002C519.57 635.002 533.002 621.57 533.002 605C533.002 588.43 519.57 574.998 503 574.998C486.43 574.998 472.998 588.43 472.998 605Z" fill="white" fill-opacity="0.23"/>
<path d="M544 605C544 613.109 541.595 621.036 537.09 627.778C532.585 634.521 526.182 639.776 518.69 642.879C511.198 645.982 502.955 646.794 495.001 645.212C487.048 643.63 479.743 639.725 474.009 633.991C468.275 628.257 464.37 620.952 462.788 612.999C461.206 605.045 462.018 596.802 465.121 589.31C468.224 581.818 473.479 575.415 480.222 570.91C486.964 566.405 494.891 564 503 564L503 574.998C497.066 574.998 491.265 576.757 486.332 580.054C481.398 583.351 477.552 588.036 475.282 593.519C473.011 599.001 472.417 605.033 473.574 610.853C474.732 616.673 477.589 622.019 481.785 626.215C485.981 630.411 491.327 633.268 497.147 634.426C502.967 635.583 508.999 634.989 514.481 632.718C519.964 630.448 524.649 626.602 527.946 621.668C531.243 616.735 533.002 610.934 533.002 605H544Z" fill="white"/>
<path d="M467.203 670.194C463.126 685.216 447.587 694.092 432.478 689.992C417.37 685.892 408.449 670.379 412.525 655.357C416.602 640.335 432.141 631.459 447.25 635.559C462.358 639.659 471.279 655.173 467.203 670.194Z" stroke="#FE741B" stroke-width="5.11888" stroke-linecap="round"/>
<path d="M427.865 663.433L434.496 671.894L454.498 658.776" stroke="#FE741B" stroke-width="5.11888" stroke-linecap="round" stroke-linejoin="round"/>
<defs>
<clipPath id="clip0_337_3320">
<rect x="43" y="546" width="112.256" height="138.161" rx="5.11707" fill="white"/>
</clipPath>
<clipPath id="clip1_337_3320">
<rect width="308.94" height="207.895" fill="white" transform="translate(0 43.1328)"/>
</clipPath>
</defs>
</svg>
