<svg width="49" height="48" viewBox="0 0 49 48" fill="none" xmlns="http://www.w3.org/2000/svg">
<rect x="0.333984" width="48" height="48" rx="12" fill="#FFA842"/>
<path fill-rule="evenodd" clip-rule="evenodd" d="M21.2576 16.3793C20.7673 14.8261 18.5692 14.826 18.0789 16.3793L14.9668 26.2374L12.719 33.0185C12.5453 33.5428 12.8294 34.1086 13.3536 34.2824C13.8778 34.4562 14.4437 34.172 14.6175 33.6478L16.6403 27.5453H22.6962L24.719 33.6478C24.8928 34.172 25.4586 34.4562 25.9829 34.2824C26.5071 34.1086 26.7912 33.5428 26.6174 33.0185L24.3697 26.2375L21.2576 16.3793ZM19.6682 17.9883L22.0539 25.5453H17.2826L19.6682 17.9883Z" fill="white"/>
<path fill-rule="evenodd" clip-rule="evenodd" d="M29.2635 26.4978C29.7213 25.3532 30.7808 24.923 31.8753 25.0103C32.4235 25.054 32.9021 25.2286 33.2158 25.447C33.5373 25.6708 33.5746 25.8486 33.5746 25.9112V26.5896C32.453 26.5385 31.0943 26.6012 29.9262 26.9371C29.1273 27.1668 28.2934 27.5592 27.7274 28.2527C27.1183 28.9989 26.9298 29.956 27.1993 31.0353C27.4482 32.0324 27.9224 32.825 28.6547 33.3094C29.3876 33.7943 30.2292 33.8712 31.0128 33.7372C31.8748 33.5898 32.7559 33.1758 33.5746 32.6182V32.7931C33.5746 33.3454 34.0223 33.7931 34.5746 33.7931C35.1268 33.7931 35.5746 33.3454 35.5746 32.7931V25.9112C35.5746 24.9667 34.9985 24.2511 34.3584 23.8055C33.7106 23.3546 32.8793 23.084 32.0342 23.0166C30.3422 22.8817 28.282 23.5663 27.4065 25.755C27.2014 26.2678 27.4508 26.8498 27.9636 27.0549C28.4764 27.26 29.0583 27.0106 29.2635 26.4978ZM30.4789 28.8592C31.4118 28.591 32.5872 28.5402 33.5746 28.592V30.0466C32.5947 30.9868 31.5134 31.6225 30.6756 31.7658C30.242 31.84 29.9542 31.7711 29.7581 31.6414C29.5614 31.5112 29.3069 31.2205 29.1397 30.5509C29.0009 29.9949 29.1211 29.7081 29.2768 29.5174C29.4755 29.274 29.8623 29.0365 30.4789 28.8592Z" fill="white"/>
</svg>
