<svg width="48" height="48" viewBox="0 0 48 48" fill="none" xmlns="http://www.w3.org/2000/svg">
<rect width="48" height="48" rx="12" fill="#74CDC1"/>
<path fill-rule="evenodd" clip-rule="evenodd" d="M12.3905 28.9428L26 15.3334C27.8409 13.4924 30.8257 13.4924 32.6667 15.3333C34.5076 17.1743 34.5076 20.1591 32.6667 22L19.0572 35.6095C18.8071 35.8595 18.468 36 18.1144 36H13.3333C12.597 36 12 35.4031 12 34.6667V29.8856C12 29.532 12.1405 29.1929 12.3905 28.9428ZM14 34V30.1618L27.4142 16.7476C28.4741 15.6877 30.1926 15.6877 31.2525 16.7476C32.3124 17.8075 32.3124 19.5259 31.2525 20.5858L17.8382 34H14Z" fill="white"/>
<path d="M24 33.6667C23.4477 33.6667 23 34.1144 23 34.6667C23 35.219 23.4477 35.6667 24 35.6667H33.3333C33.8856 35.6667 34.3333 35.219 34.3333 34.6667C34.3333 34.1144 33.8856 33.6667 33.3333 33.6667H24Z" fill="white"/>
</svg>
