<svg width="49" height="48" viewBox="0 0 49 48" fill="none" xmlns="http://www.w3.org/2000/svg">
<rect x="0.666016" width="48" height="48" rx="12" fill="#7A69E0"/>
<path d="M19.9993 26.6666C21.1039 26.6666 21.9993 25.7712 21.9993 24.6666C21.9993 23.562 21.1039 22.6666 19.9993 22.6666C18.8948 22.6666 17.9993 23.562 17.9993 24.6666C17.9993 25.7712 18.8948 26.6666 19.9993 26.6666Z" fill="white"/>
<path d="M31.3327 24.6666C31.3327 25.7712 30.4373 26.6666 29.3327 26.6666C28.2281 26.6666 27.3327 25.7712 27.3327 24.6666C27.3327 23.562 28.2281 22.6666 29.3327 22.6666C30.4373 22.6666 31.3327 23.562 31.3327 24.6666Z" fill="white"/>
<path d="M21.1049 28.8861C21.3519 28.3921 21.9526 28.1919 22.4466 28.4388L22.7281 28.5796C23.948 29.1896 25.384 29.1896 26.6039 28.5796L26.8855 28.4388C27.3794 28.1919 27.9801 28.3921 28.2271 28.8861C28.4741 29.38 28.2739 29.9807 27.7799 30.2277L27.4984 30.3685C25.7154 31.26 23.6167 31.26 21.8337 30.3685L21.5521 30.2277C21.0582 29.9807 20.8579 29.38 21.1049 28.8861Z" fill="white"/>
<path fill-rule="evenodd" clip-rule="evenodd" d="M29.5945 11.7047C29.7996 11.1919 29.5502 10.6099 29.0374 10.4048C28.5246 10.1997 27.9427 10.4491 27.7375 10.9619L26.8865 13.0895C26.8821 13.1006 26.8775 13.1058 26.8737 13.1092C26.8689 13.1135 26.8618 13.1179 26.8526 13.1208C26.8433 13.1237 26.835 13.1241 26.8286 13.1232C26.8236 13.1225 26.8168 13.1208 26.8069 13.1142C25.8312 12.4638 24.5099 12.7609 23.9066 13.7664L22.5665 15.9999H20.666C18.181 15.9999 16.9385 15.9999 15.9584 16.4059C14.6516 16.9472 13.6133 17.9855 13.072 19.2923C12.666 20.2724 12.666 21.5149 12.666 23.9999C12.666 27.7275 12.666 29.5912 13.275 31.0614C14.0869 33.0216 15.6443 34.579 17.6045 35.391C19.0747 35.9999 20.9385 35.9999 24.666 35.9999C28.3935 35.9999 30.2573 35.9999 31.7275 35.391C33.6877 34.579 35.2451 33.0216 36.0571 31.0614C36.666 29.5912 36.666 27.7275 36.666 23.9999C36.666 21.5149 36.666 20.2724 36.26 19.2923C35.7187 17.9855 34.6805 16.9472 33.3737 16.4059C32.3935 15.9999 31.151 15.9999 28.666 15.9999H24.8989L25.6216 14.7954C25.6374 14.7691 25.6719 14.7613 25.6975 14.7783C26.7828 15.5019 28.259 15.0434 28.7435 13.8323L29.5945 11.7047ZM14.7121 21.2179C14.6671 21.8778 14.666 22.7301 14.666 23.9999C14.666 25.8911 14.6671 27.2093 14.7375 28.241C14.8067 29.2549 14.936 29.8453 15.1227 30.296C15.7317 31.7662 16.8997 32.9343 18.3699 33.5432C18.8207 33.7299 19.4111 33.8593 20.4249 33.9285C21.4567 33.9989 22.7749 33.9999 24.666 33.9999C26.5571 33.9999 27.8753 33.9989 28.9071 33.9285C29.9209 33.8593 30.5113 33.7299 30.9621 33.5432C32.4323 32.9343 33.6003 31.7662 34.2093 30.296C34.396 29.8453 34.5254 29.2549 34.5945 28.241C34.6649 27.2093 34.666 25.8911 34.666 23.9999C34.666 22.7301 34.6649 21.8778 34.6199 21.2179C34.5761 20.576 34.4975 20.2634 34.4123 20.0577C34.074 19.2409 33.4251 18.592 32.6083 18.2537C32.4026 18.1685 32.09 18.0898 31.448 18.046C30.7881 18.001 29.9359 17.9999 28.666 17.9999H20.666C19.3961 17.9999 18.5439 18.001 17.884 18.046C17.2421 18.0898 16.9295 18.1685 16.7237 18.2537C15.907 18.592 15.2581 19.2409 14.9198 20.0577C14.8345 20.2634 14.7559 20.576 14.7121 21.2179Z" fill="white"/>
</svg>
