<svg width="456" height="674" viewBox="0 0 456 674" fill="none" xmlns="http://www.w3.org/2000/svg">
<g clip-path="url(#clip0_337_2601)">
<rect x="-19.6953" y="-26.5244" width="44.9488" height="44.9488" stroke="white" stroke-opacity="0.15" stroke-width="1.7627"/>
<rect x="25.2539" y="-26.5244" width="44.9488" height="44.9488" stroke="white" stroke-opacity="0.15" stroke-width="1.7627"/>
<rect x="70.2012" y="-26.5244" width="44.9488" height="44.9488" stroke="white" stroke-opacity="0.15" stroke-width="1.7627"/>
<rect x="115.15" y="-26.5244" width="44.9488" height="44.9488" stroke="white" stroke-opacity="0.15" stroke-width="1.7627"/>
<rect x="160.1" y="-26.5244" width="44.9488" height="44.9488" stroke="white" stroke-opacity="0.15" stroke-width="1.7627"/>
<rect x="205.049" y="-26.5244" width="44.9488" height="44.9488" stroke="white" stroke-opacity="0.15" stroke-width="1.7627"/>
<rect x="249.998" y="-26.5244" width="44.9488" height="44.9488" stroke="white" stroke-opacity="0.15" stroke-width="1.7627"/>
<rect x="294.945" y="-26.5244" width="44.9488" height="44.9488" stroke="white" stroke-opacity="0.15" stroke-width="1.7627"/>
<rect x="339.895" y="-26.5244" width="44.9488" height="44.9488" stroke="white" stroke-opacity="0.15" stroke-width="1.7627"/>
<rect x="384.844" y="-26.5244" width="44.9488" height="44.9488" stroke="white" stroke-opacity="0.15" stroke-width="1.7627"/>
<rect x="429.793" y="-26.5244" width="44.9488" height="44.9488" stroke="white" stroke-opacity="0.15" stroke-width="1.7627"/>
<rect x="-19.6953" y="18.4243" width="44.9488" height="44.9488" stroke="white" stroke-opacity="0.15" stroke-width="1.7627"/>
<rect x="25.2539" y="18.4243" width="44.9488" height="44.9488" stroke="white" stroke-opacity="0.15" stroke-width="1.7627"/>
<rect x="70.2012" y="18.4243" width="44.9488" height="44.9488" stroke="white" stroke-opacity="0.15" stroke-width="1.7627"/>
<rect x="115.15" y="18.4243" width="44.9488" height="44.9488" stroke="white" stroke-opacity="0.15" stroke-width="1.7627"/>
<rect x="160.1" y="18.4243" width="44.9488" height="44.9488" stroke="white" stroke-opacity="0.15" stroke-width="1.7627"/>
<rect x="205.049" y="18.4243" width="44.9488" height="44.9488" stroke="white" stroke-opacity="0.15" stroke-width="1.7627"/>
<rect x="249.998" y="18.4243" width="44.9488" height="44.9488" stroke="white" stroke-opacity="0.15" stroke-width="1.7627"/>
<rect x="294.945" y="18.4243" width="44.9488" height="44.9488" stroke="white" stroke-opacity="0.15" stroke-width="1.7627"/>
<rect x="339.895" y="18.4243" width="44.9488" height="44.9488" stroke="white" stroke-opacity="0.15" stroke-width="1.7627"/>
<rect x="384.844" y="18.4243" width="44.9488" height="44.9488" stroke="white" stroke-opacity="0.15" stroke-width="1.7627"/>
<rect x="429.793" y="18.4243" width="44.9488" height="44.9488" stroke="white" stroke-opacity="0.15" stroke-width="1.7627"/>
<rect x="-19.6953" y="63.373" width="44.9488" height="44.9488" stroke="white" stroke-opacity="0.15" stroke-width="1.7627"/>
<rect x="25.2539" y="63.373" width="44.9488" height="44.9488" stroke="white" stroke-opacity="0.15" stroke-width="1.7627"/>
<rect x="70.2012" y="63.373" width="44.9488" height="44.9488" stroke="white" stroke-opacity="0.15" stroke-width="1.7627"/>
<rect x="115.15" y="63.373" width="44.9488" height="44.9488" stroke="white" stroke-opacity="0.15" stroke-width="1.7627"/>
<rect x="160.1" y="63.373" width="44.9488" height="44.9488" stroke="white" stroke-opacity="0.15" stroke-width="1.7627"/>
<rect x="205.049" y="63.373" width="44.9488" height="44.9488" stroke="white" stroke-opacity="0.15" stroke-width="1.7627"/>
<rect x="249.998" y="63.373" width="44.9488" height="44.9488" stroke="white" stroke-opacity="0.15" stroke-width="1.7627"/>
<rect x="294.945" y="63.373" width="44.9488" height="44.9488" stroke="white" stroke-opacity="0.15" stroke-width="1.7627"/>
<rect x="339.895" y="63.373" width="44.9488" height="44.9488" stroke="white" stroke-opacity="0.15" stroke-width="1.7627"/>
<rect x="384.844" y="63.373" width="44.9488" height="44.9488" stroke="white" stroke-opacity="0.15" stroke-width="1.7627"/>
<rect x="429.793" y="63.373" width="44.9488" height="44.9488" stroke="white" stroke-opacity="0.15" stroke-width="1.7627"/>
<rect x="-19.6953" y="108.322" width="44.9488" height="44.9488" stroke="white" stroke-opacity="0.15" stroke-width="1.7627"/>
<rect x="25.2539" y="108.322" width="44.9488" height="44.9488" stroke="white" stroke-opacity="0.15" stroke-width="1.7627"/>
<rect x="70.2012" y="108.322" width="44.9488" height="44.9488" stroke="white" stroke-opacity="0.15" stroke-width="1.7627"/>
<rect x="115.15" y="108.322" width="44.9488" height="44.9488" stroke="white" stroke-opacity="0.15" stroke-width="1.7627"/>
<rect x="160.1" y="108.322" width="44.9488" height="44.9488" stroke="white" stroke-opacity="0.15" stroke-width="1.7627"/>
<rect x="205.049" y="108.322" width="44.9488" height="44.9488" stroke="white" stroke-opacity="0.15" stroke-width="1.7627"/>
<rect x="249.998" y="108.322" width="44.9488" height="44.9488" stroke="white" stroke-opacity="0.15" stroke-width="1.7627"/>
<rect x="294.945" y="108.322" width="44.9488" height="44.9488" stroke="white" stroke-opacity="0.15" stroke-width="1.7627"/>
<rect x="339.895" y="108.322" width="44.9488" height="44.9488" stroke="white" stroke-opacity="0.15" stroke-width="1.7627"/>
<rect x="384.844" y="108.322" width="44.9488" height="44.9488" stroke="white" stroke-opacity="0.15" stroke-width="1.7627"/>
<rect x="429.793" y="108.322" width="44.9488" height="44.9488" stroke="white" stroke-opacity="0.15" stroke-width="1.7627"/>
<rect x="-19.6953" y="153.271" width="44.9488" height="44.9488" stroke="white" stroke-opacity="0.15" stroke-width="1.7627"/>
<rect x="25.2539" y="153.271" width="44.9488" height="44.9488" stroke="white" stroke-opacity="0.15" stroke-width="1.7627"/>
<rect x="70.2012" y="153.271" width="44.9488" height="44.9488" stroke="white" stroke-opacity="0.15" stroke-width="1.7627"/>
<rect x="115.15" y="153.271" width="44.9488" height="44.9488" stroke="white" stroke-opacity="0.15" stroke-width="1.7627"/>
<rect x="160.1" y="153.271" width="44.9488" height="44.9488" stroke="white" stroke-opacity="0.15" stroke-width="1.7627"/>
<rect x="205.049" y="153.271" width="44.9488" height="44.9488" stroke="white" stroke-opacity="0.15" stroke-width="1.7627"/>
<rect x="249.998" y="153.271" width="44.9488" height="44.9488" stroke="white" stroke-opacity="0.15" stroke-width="1.7627"/>
<rect x="294.945" y="153.271" width="44.9488" height="44.9488" stroke="white" stroke-opacity="0.15" stroke-width="1.7627"/>
<rect x="339.895" y="153.271" width="44.9488" height="44.9488" stroke="white" stroke-opacity="0.15" stroke-width="1.7627"/>
<rect x="384.844" y="153.271" width="44.9488" height="44.9488" stroke="white" stroke-opacity="0.15" stroke-width="1.7627"/>
<rect x="429.793" y="153.271" width="44.9488" height="44.9488" stroke="white" stroke-opacity="0.15" stroke-width="1.7627"/>
<rect x="-19.6953" y="198.22" width="44.9488" height="44.9488" stroke="white" stroke-opacity="0.15" stroke-width="1.7627"/>
<rect x="25.2539" y="198.22" width="44.9488" height="44.9488" stroke="white" stroke-opacity="0.15" stroke-width="1.7627"/>
<rect x="70.2012" y="198.22" width="44.9488" height="44.9488" stroke="white" stroke-opacity="0.15" stroke-width="1.7627"/>
<rect x="115.15" y="198.22" width="44.9488" height="44.9488" stroke="white" stroke-opacity="0.15" stroke-width="1.7627"/>
<rect x="160.1" y="198.22" width="44.9488" height="44.9488" stroke="white" stroke-opacity="0.15" stroke-width="1.7627"/>
<rect x="205.049" y="198.22" width="44.9488" height="44.9488" stroke="white" stroke-opacity="0.15" stroke-width="1.7627"/>
<rect x="249.998" y="198.22" width="44.9488" height="44.9488" stroke="white" stroke-opacity="0.15" stroke-width="1.7627"/>
<rect x="294.945" y="198.22" width="44.9488" height="44.9488" stroke="white" stroke-opacity="0.15" stroke-width="1.7627"/>
<rect x="339.895" y="198.22" width="44.9488" height="44.9488" stroke="white" stroke-opacity="0.15" stroke-width="1.7627"/>
<rect x="384.844" y="198.22" width="44.9488" height="44.9488" stroke="white" stroke-opacity="0.15" stroke-width="1.7627"/>
<rect x="429.793" y="198.22" width="44.9488" height="44.9488" stroke="white" stroke-opacity="0.15" stroke-width="1.7627"/>
<rect x="-19.6953" y="243.168" width="44.9488" height="44.9488" stroke="white" stroke-opacity="0.15" stroke-width="1.7627"/>
<rect x="25.2539" y="243.168" width="44.9488" height="44.9488" stroke="white" stroke-opacity="0.15" stroke-width="1.7627"/>
<rect x="70.2012" y="243.168" width="44.9488" height="44.9488" stroke="white" stroke-opacity="0.15" stroke-width="1.7627"/>
<rect x="115.15" y="243.168" width="44.9488" height="44.9488" stroke="white" stroke-opacity="0.15" stroke-width="1.7627"/>
<rect x="160.1" y="243.168" width="44.9488" height="44.9488" stroke="white" stroke-opacity="0.15" stroke-width="1.7627"/>
<rect x="205.049" y="243.168" width="44.9488" height="44.9488" stroke="white" stroke-opacity="0.15" stroke-width="1.7627"/>
<rect x="249.998" y="243.168" width="44.9488" height="44.9488" stroke="white" stroke-opacity="0.15" stroke-width="1.7627"/>
<rect x="294.945" y="243.168" width="44.9488" height="44.9488" stroke="white" stroke-opacity="0.15" stroke-width="1.7627"/>
<rect x="339.895" y="243.168" width="44.9488" height="44.9488" stroke="white" stroke-opacity="0.15" stroke-width="1.7627"/>
<rect x="384.844" y="243.168" width="44.9488" height="44.9488" stroke="white" stroke-opacity="0.15" stroke-width="1.7627"/>
<rect x="429.793" y="243.168" width="44.9488" height="44.9488" stroke="white" stroke-opacity="0.15" stroke-width="1.7627"/>
<rect x="-19.6953" y="288.117" width="44.9488" height="44.9488" stroke="white" stroke-opacity="0.15" stroke-width="1.7627"/>
<rect x="25.2539" y="288.117" width="44.9488" height="44.9488" stroke="white" stroke-opacity="0.15" stroke-width="1.7627"/>
<rect x="70.2012" y="288.117" width="44.9488" height="44.9488" stroke="white" stroke-opacity="0.15" stroke-width="1.7627"/>
<rect x="115.15" y="288.117" width="44.9488" height="44.9488" stroke="white" stroke-opacity="0.15" stroke-width="1.7627"/>
<rect x="160.1" y="288.117" width="44.9488" height="44.9488" stroke="white" stroke-opacity="0.15" stroke-width="1.7627"/>
<rect x="205.049" y="288.117" width="44.9488" height="44.9488" stroke="white" stroke-opacity="0.15" stroke-width="1.7627"/>
<rect x="249.998" y="288.117" width="44.9488" height="44.9488" stroke="white" stroke-opacity="0.15" stroke-width="1.7627"/>
<rect x="294.945" y="288.117" width="44.9488" height="44.9488" stroke="white" stroke-opacity="0.15" stroke-width="1.7627"/>
<rect x="339.895" y="288.117" width="44.9488" height="44.9488" stroke="white" stroke-opacity="0.15" stroke-width="1.7627"/>
<rect x="384.844" y="288.117" width="44.9488" height="44.9488" stroke="white" stroke-opacity="0.15" stroke-width="1.7627"/>
<rect x="429.793" y="288.117" width="44.9488" height="44.9488" stroke="white" stroke-opacity="0.15" stroke-width="1.7627"/>
<rect x="-19.6953" y="333.066" width="44.9488" height="44.9488" stroke="white" stroke-opacity="0.15" stroke-width="1.7627"/>
<rect x="25.2539" y="333.066" width="44.9488" height="44.9488" stroke="white" stroke-opacity="0.15" stroke-width="1.7627"/>
<rect x="70.2012" y="333.066" width="44.9488" height="44.9488" stroke="white" stroke-opacity="0.15" stroke-width="1.7627"/>
<rect x="115.15" y="333.066" width="44.9488" height="44.9488" stroke="white" stroke-opacity="0.15" stroke-width="1.7627"/>
<rect x="160.1" y="333.066" width="44.9488" height="44.9488" stroke="white" stroke-opacity="0.15" stroke-width="1.7627"/>
<rect x="205.049" y="333.066" width="44.9488" height="44.9488" stroke="white" stroke-opacity="0.15" stroke-width="1.7627"/>
<rect x="249.998" y="333.066" width="44.9488" height="44.9488" stroke="white" stroke-opacity="0.15" stroke-width="1.7627"/>
<rect x="294.945" y="333.066" width="44.9488" height="44.9488" stroke="white" stroke-opacity="0.15" stroke-width="1.7627"/>
<rect x="339.895" y="333.066" width="44.9488" height="44.9488" stroke="white" stroke-opacity="0.15" stroke-width="1.7627"/>
<rect x="384.844" y="333.066" width="44.9488" height="44.9488" stroke="white" stroke-opacity="0.15" stroke-width="1.7627"/>
<rect x="429.793" y="333.066" width="44.9488" height="44.9488" stroke="white" stroke-opacity="0.15" stroke-width="1.7627"/>
<rect x="-19.6953" y="378.015" width="44.9488" height="44.9488" stroke="white" stroke-opacity="0.15" stroke-width="1.7627"/>
<rect x="25.2539" y="378.015" width="44.9488" height="44.9488" stroke="white" stroke-opacity="0.15" stroke-width="1.7627"/>
<rect x="70.2012" y="378.015" width="44.9488" height="44.9488" stroke="white" stroke-opacity="0.15" stroke-width="1.7627"/>
<rect x="115.15" y="378.015" width="44.9488" height="44.9488" stroke="white" stroke-opacity="0.15" stroke-width="1.7627"/>
<rect x="160.1" y="378.015" width="44.9488" height="44.9488" stroke="white" stroke-opacity="0.15" stroke-width="1.7627"/>
<rect x="205.049" y="378.015" width="44.9488" height="44.9488" stroke="white" stroke-opacity="0.15" stroke-width="1.7627"/>
<rect x="249.998" y="378.015" width="44.9488" height="44.9488" stroke="white" stroke-opacity="0.15" stroke-width="1.7627"/>
<rect x="294.945" y="378.015" width="44.9488" height="44.9488" stroke="white" stroke-opacity="0.15" stroke-width="1.7627"/>
<rect x="339.895" y="378.015" width="44.9488" height="44.9488" stroke="white" stroke-opacity="0.15" stroke-width="1.7627"/>
<rect x="384.844" y="378.015" width="44.9488" height="44.9488" stroke="white" stroke-opacity="0.15" stroke-width="1.7627"/>
<rect x="429.793" y="378.015" width="44.9488" height="44.9488" stroke="white" stroke-opacity="0.15" stroke-width="1.7627"/>
<rect x="-19.6953" y="422.963" width="44.9488" height="44.9488" stroke="white" stroke-opacity="0.15" stroke-width="1.7627"/>
<rect x="25.2539" y="422.963" width="44.9488" height="44.9488" stroke="white" stroke-opacity="0.15" stroke-width="1.7627"/>
<rect x="70.2012" y="422.963" width="44.9488" height="44.9488" stroke="white" stroke-opacity="0.15" stroke-width="1.7627"/>
<rect x="115.15" y="422.963" width="44.9488" height="44.9488" stroke="white" stroke-opacity="0.15" stroke-width="1.7627"/>
<rect x="160.1" y="422.963" width="44.9488" height="44.9488" stroke="white" stroke-opacity="0.15" stroke-width="1.7627"/>
<rect x="205.049" y="422.963" width="44.9488" height="44.9488" stroke="white" stroke-opacity="0.15" stroke-width="1.7627"/>
<rect x="249.998" y="422.963" width="44.9488" height="44.9488" stroke="white" stroke-opacity="0.15" stroke-width="1.7627"/>
<rect x="294.945" y="422.963" width="44.9488" height="44.9488" stroke="white" stroke-opacity="0.15" stroke-width="1.7627"/>
<rect x="339.895" y="422.963" width="44.9488" height="44.9488" stroke="white" stroke-opacity="0.15" stroke-width="1.7627"/>
<rect x="384.844" y="422.963" width="44.9488" height="44.9488" stroke="white" stroke-opacity="0.15" stroke-width="1.7627"/>
<rect x="429.793" y="422.963" width="44.9488" height="44.9488" stroke="white" stroke-opacity="0.15" stroke-width="1.7627"/>
<rect x="-19.6953" y="467.913" width="44.9488" height="44.9488" stroke="white" stroke-opacity="0.15" stroke-width="1.7627"/>
<rect x="25.2539" y="467.913" width="44.9488" height="44.9488" stroke="white" stroke-opacity="0.15" stroke-width="1.7627"/>
<rect x="70.2012" y="467.913" width="44.9488" height="44.9488" stroke="white" stroke-opacity="0.15" stroke-width="1.7627"/>
<rect x="115.15" y="467.913" width="44.9488" height="44.9488" stroke="white" stroke-opacity="0.15" stroke-width="1.7627"/>
<rect x="160.1" y="467.913" width="44.9488" height="44.9488" stroke="white" stroke-opacity="0.15" stroke-width="1.7627"/>
<rect x="205.049" y="467.913" width="44.9488" height="44.9488" stroke="white" stroke-opacity="0.15" stroke-width="1.7627"/>
<rect x="249.998" y="467.913" width="44.9488" height="44.9488" stroke="white" stroke-opacity="0.15" stroke-width="1.7627"/>
<rect x="294.945" y="467.913" width="44.9488" height="44.9488" stroke="white" stroke-opacity="0.15" stroke-width="1.7627"/>
<rect x="339.895" y="467.913" width="44.9488" height="44.9488" stroke="white" stroke-opacity="0.15" stroke-width="1.7627"/>
<rect x="384.844" y="467.913" width="44.9488" height="44.9488" stroke="white" stroke-opacity="0.15" stroke-width="1.7627"/>
<rect x="429.793" y="467.913" width="44.9488" height="44.9488" stroke="white" stroke-opacity="0.15" stroke-width="1.7627"/>
<rect x="-19.6953" y="512.861" width="44.9488" height="44.9488" stroke="white" stroke-opacity="0.15" stroke-width="1.7627"/>
<rect x="25.2539" y="512.861" width="44.9488" height="44.9488" stroke="white" stroke-opacity="0.15" stroke-width="1.7627"/>
<rect x="70.2012" y="512.861" width="44.9488" height="44.9488" stroke="white" stroke-opacity="0.15" stroke-width="1.7627"/>
<rect x="115.15" y="512.861" width="44.9488" height="44.9488" stroke="white" stroke-opacity="0.15" stroke-width="1.7627"/>
<rect x="160.1" y="512.861" width="44.9488" height="44.9488" stroke="white" stroke-opacity="0.15" stroke-width="1.7627"/>
<rect x="205.049" y="512.861" width="44.9488" height="44.9488" stroke="white" stroke-opacity="0.15" stroke-width="1.7627"/>
<rect x="249.998" y="512.861" width="44.9488" height="44.9488" stroke="white" stroke-opacity="0.15" stroke-width="1.7627"/>
<rect x="294.945" y="512.861" width="44.9488" height="44.9488" stroke="white" stroke-opacity="0.15" stroke-width="1.7627"/>
<rect x="339.895" y="512.861" width="44.9488" height="44.9488" stroke="white" stroke-opacity="0.15" stroke-width="1.7627"/>
<rect x="384.844" y="512.861" width="44.9488" height="44.9488" stroke="white" stroke-opacity="0.15" stroke-width="1.7627"/>
<rect x="429.793" y="512.861" width="44.9488" height="44.9488" stroke="white" stroke-opacity="0.15" stroke-width="1.7627"/>
<rect x="-19.6953" y="557.81" width="44.9488" height="44.9488" stroke="white" stroke-opacity="0.15" stroke-width="1.7627"/>
<rect x="25.2539" y="557.81" width="44.9488" height="44.9488" stroke="white" stroke-opacity="0.15" stroke-width="1.7627"/>
<rect x="70.2012" y="557.81" width="44.9488" height="44.9488" stroke="white" stroke-opacity="0.15" stroke-width="1.7627"/>
<rect x="115.15" y="557.81" width="44.9488" height="44.9488" stroke="white" stroke-opacity="0.15" stroke-width="1.7627"/>
<rect x="160.1" y="557.81" width="44.9488" height="44.9488" stroke="white" stroke-opacity="0.15" stroke-width="1.7627"/>
<rect x="205.049" y="557.81" width="44.9488" height="44.9488" stroke="white" stroke-opacity="0.15" stroke-width="1.7627"/>
<rect x="249.998" y="557.81" width="44.9488" height="44.9488" stroke="white" stroke-opacity="0.15" stroke-width="1.7627"/>
<rect x="294.945" y="557.81" width="44.9488" height="44.9488" stroke="white" stroke-opacity="0.15" stroke-width="1.7627"/>
<rect x="339.895" y="557.81" width="44.9488" height="44.9488" stroke="white" stroke-opacity="0.15" stroke-width="1.7627"/>
<rect x="384.844" y="557.81" width="44.9488" height="44.9488" stroke="white" stroke-opacity="0.15" stroke-width="1.7627"/>
<rect x="429.793" y="557.81" width="44.9488" height="44.9488" stroke="white" stroke-opacity="0.15" stroke-width="1.7627"/>
<rect x="-19.6953" y="602.759" width="44.9488" height="44.9488" stroke="white" stroke-opacity="0.15" stroke-width="1.7627"/>
<rect x="25.2539" y="602.759" width="44.9488" height="44.9488" stroke="white" stroke-opacity="0.15" stroke-width="1.7627"/>
<rect x="70.2012" y="602.759" width="44.9488" height="44.9488" stroke="white" stroke-opacity="0.15" stroke-width="1.7627"/>
<rect x="115.15" y="602.759" width="44.9488" height="44.9488" stroke="white" stroke-opacity="0.15" stroke-width="1.7627"/>
<rect x="160.1" y="602.759" width="44.9488" height="44.9488" stroke="white" stroke-opacity="0.15" stroke-width="1.7627"/>
<rect x="205.049" y="602.759" width="44.9488" height="44.9488" stroke="white" stroke-opacity="0.15" stroke-width="1.7627"/>
<rect x="249.998" y="602.759" width="44.9488" height="44.9488" stroke="white" stroke-opacity="0.15" stroke-width="1.7627"/>
<rect x="294.945" y="602.759" width="44.9488" height="44.9488" stroke="white" stroke-opacity="0.15" stroke-width="1.7627"/>
<rect x="339.895" y="602.759" width="44.9488" height="44.9488" stroke="white" stroke-opacity="0.15" stroke-width="1.7627"/>
<rect x="384.844" y="602.759" width="44.9488" height="44.9488" stroke="white" stroke-opacity="0.15" stroke-width="1.7627"/>
<rect x="429.793" y="602.759" width="44.9488" height="44.9488" stroke="white" stroke-opacity="0.15" stroke-width="1.7627"/>
<rect x="-19.6953" y="647.708" width="44.9488" height="44.9488" stroke="white" stroke-opacity="0.15" stroke-width="1.7627"/>
<rect x="25.2539" y="647.708" width="44.9488" height="44.9488" stroke="white" stroke-opacity="0.15" stroke-width="1.7627"/>
<rect x="70.2012" y="647.708" width="44.9488" height="44.9488" stroke="white" stroke-opacity="0.15" stroke-width="1.7627"/>
<rect x="115.15" y="647.708" width="44.9488" height="44.9488" stroke="white" stroke-opacity="0.15" stroke-width="1.7627"/>
<rect x="160.1" y="647.708" width="44.9488" height="44.9488" stroke="white" stroke-opacity="0.15" stroke-width="1.7627"/>
<rect x="205.049" y="647.708" width="44.9488" height="44.9488" stroke="white" stroke-opacity="0.15" stroke-width="1.7627"/>
<rect x="249.998" y="647.708" width="44.9488" height="44.9488" stroke="white" stroke-opacity="0.15" stroke-width="1.7627"/>
<rect x="294.945" y="647.708" width="44.9488" height="44.9488" stroke="white" stroke-opacity="0.15" stroke-width="1.7627"/>
<rect x="339.895" y="647.708" width="44.9488" height="44.9488" stroke="white" stroke-opacity="0.15" stroke-width="1.7627"/>
<rect x="384.844" y="647.708" width="44.9488" height="44.9488" stroke="white" stroke-opacity="0.15" stroke-width="1.7627"/>
<rect x="429.793" y="647.708" width="44.9488" height="44.9488" stroke="white" stroke-opacity="0.15" stroke-width="1.7627"/>
</g>
<defs>
<clipPath id="clip0_337_2601">
<rect width="456" height="673.279" fill="white"/>
</clipPath>
</defs>
</svg>
