<svg width="1440" height="855" viewBox="0 0 1440 855" fill="none" xmlns="http://www.w3.org/2000/svg">
<g clip-path="url(#clip0_667_96530)">
<rect x="76.6094" y="680.705" width="110.229" height="135.666" rx="5.02467" fill="#B7E1F6"/>
<mask id="path-3-inside-1_667_96530" fill="white">
<rect x="94.5078" y="707.714" width="74.8609" height="46.1642" rx="2"/>
</mask>
<rect x="94.5078" y="707.714" width="74.8609" height="46.1642" rx="2" fill="white" stroke="#262626" stroke-width="6" stroke-linejoin="round" mask="url(#path-3-inside-1_667_96530)"/>
<path d="M120.71 729.86L94.8203 753.566H168.433L143.48 729.86L134.122 738.906L120.71 729.86Z" fill="#262626"/>
<circle cx="144.415" cy="720.191" r="4.99072" fill="#262626"/>
<mask id="path-6-inside-2_667_96530" fill="white">
<path d="M76.6094 780.885H186.838V816.372H76.6094V780.885Z"/>
</mask>
<path d="M76.6094 783.885H186.838V777.885H76.6094V783.885Z" fill="#262626" mask="url(#path-6-inside-2_667_96530)"/>
<rect x="86.6602" y="788.736" width="90.1301" height="4.39659" rx="2.19829" fill="#262626"/>
<path d="M86.6602 799.807C86.6602 798.593 87.6444 797.608 88.8585 797.608H174.592C175.806 797.608 176.79 798.593 176.79 799.807V799.807C176.79 801.021 175.806 802.005 174.592 802.005H88.8584C87.6444 802.005 86.6602 801.021 86.6602 799.807V799.807Z" fill="#262626"/>
<path d="M86.7129 808.434C86.7129 807.239 87.6821 806.27 88.8778 806.27H136.024C137.22 806.27 138.189 807.239 138.189 808.434V808.434C138.189 809.63 137.22 810.599 136.024 810.599H88.8778C87.6821 810.599 86.7129 809.63 86.7129 808.434V808.434Z" fill="#262626"/>
</g>
<rect x="75.1094" y="679.205" width="113.229" height="138.666" rx="6.52467" stroke="#262626" stroke-width="3"/>
<path fill-rule="evenodd" clip-rule="evenodd" d="M206.328 801.384C207.986 795.077 212.339 789.575 218.996 787.427C221.574 786.596 224.28 786.808 226.92 787.098C216.818 783.774 216.4 772.013 217.399 763.293C215.723 770.886 209.502 777.804 201.363 776.239C207.893 783.197 208.108 792.539 206.328 801.384Z" fill="white" stroke="#2E2E2E" stroke-width="2.5" stroke-miterlimit="1.5" stroke-linecap="round" stroke-linejoin="round"/>
<rect x="43.8613" y="140.725" width="303.362" height="246.496" rx="11.5842" fill="#262626"/>
<rect x="33" y="134.562" width="303.362" height="246.496" rx="11.5842" fill="#F7CE5F"/>
<path d="M41.4708 136.062H327.891C331.741 136.062 334.862 139.183 334.862 143.033V175.417H34.5V143.033C34.5 139.183 37.621 136.062 41.4708 136.062Z" stroke="#262626" stroke-width="3"/>
<circle cx="56.5675" cy="156.166" r="8.34653" fill="white" stroke="#262626" stroke-width="2.94583"/>
<circle cx="84.0616" cy="156.166" r="8.34653" fill="white" stroke="#262626" stroke-width="2.94583"/>
<circle cx="111.556" cy="156.166" r="8.34653" fill="white" stroke="#262626" stroke-width="2.94583"/>
<g clip-path="url(#clip1_667_96530)">
<mask id="path-18-inside-3_667_96530" fill="white">
<path d="M33 176.917H336.362V372.588C336.362 377.266 332.57 381.059 327.891 381.059H41.4708C36.7925 381.059 33 377.266 33 372.588V176.917Z"/>
</mask>
<path d="M33 176.917H336.362H33ZM339.362 372.588C339.362 378.923 334.226 384.059 327.891 384.059H41.4708C35.1357 384.059 30 378.923 30 372.588H36C36 375.609 38.4494 378.059 41.4708 378.059H327.891C330.913 378.059 333.362 375.609 333.362 372.588H339.362ZM41.4708 384.059C35.1357 384.059 30 378.923 30 372.588V176.917H36V372.588C36 375.609 38.4494 378.059 41.4708 378.059V384.059ZM339.362 176.917V372.588C339.362 378.923 334.226 384.059 327.891 384.059V378.059C330.913 378.059 333.362 375.609 333.362 372.588V176.917H339.362Z" fill="#262626" mask="url(#path-18-inside-3_667_96530)"/>
</g>
<path fill-rule="evenodd" clip-rule="evenodd" d="M26.0986 403.877C23.062 406.296 20.1139 410.027 18.7356 413.739C17.8067 409.22 15.0607 405.674 11.0092 403.514C15.3535 403.058 18.6431 397.836 19.6775 394.006C19.8121 397.816 22.7841 401.848 26.0986 403.877Z" fill="white" stroke="#2E2E2E" stroke-width="1.6" stroke-miterlimit="1.5" stroke-linecap="round" stroke-linejoin="round"/>
<path fill-rule="evenodd" clip-rule="evenodd" d="M70.0597 430.918C66.5847 439.759 64.9018 451.271 66.5227 460.823C59.0259 452.384 48.8689 448.23 37.6415 448.61C46.2884 442.327 46.8711 427.239 44.3773 417.857C49.3236 425.766 60.5539 430.673 70.0597 430.918Z" fill="white" stroke="#2E2E2E" stroke-width="1.6" stroke-miterlimit="1.5" stroke-linecap="round" stroke-linejoin="round"/>
<path d="M1207 637H1373V775.253C1373 775.253 1372.76 782.974 1368.17 789.006C1363.59 795.038 1348.93 803 1348.93 803H1207V637Z" fill="#D8F78C"/>
<path d="M1373 775.253V637H1207V803H1348.93M1373 775.253C1365.28 781.526 1358.04 782.25 1348.93 780.078C1353.22 790.453 1352.49 792.866 1348.93 803M1373 775.253C1373 775.253 1372.76 782.974 1368.17 789.006C1363.59 795.038 1348.93 803 1348.93 803" stroke="#262626" stroke-width="3"/>
<mask id="path-24-outside-4_667_96530" maskUnits="userSpaceOnUse" x="1264.86" y="763.994" width="74.6084" height="79.2291" fill="black">
<rect fill="white" x="1264.86" y="763.994" width="74.6084" height="79.2291"/>
<path fill-rule="evenodd" clip-rule="evenodd" d="M1283.45 781.768C1282.94 780.128 1283.86 778.388 1285.5 777.881C1287.14 777.374 1288.88 778.292 1289.39 779.933L1295.2 798.739C1295.54 799.833 1296.7 800.446 1297.8 800.108V800.108C1298.89 799.769 1299.5 798.608 1299.17 797.515L1298.25 794.546C1297.74 792.906 1298.66 791.165 1300.3 790.658C1301.94 790.151 1303.68 791.07 1304.19 792.71L1305.1 795.679C1305.44 796.773 1306.6 797.385 1307.7 797.047V797.047C1308.79 796.709 1309.4 795.548 1309.07 794.454L1308.76 793.465C1308.25 791.825 1309.17 790.085 1310.81 789.578C1312.45 789.071 1314.19 789.989 1314.7 791.63L1315.01 792.618C1315.34 793.712 1316.5 794.325 1317.6 793.987L1318.59 793.68C1319.14 793.512 1319.44 792.931 1319.27 792.385V792.385C1318.77 790.745 1319.69 789.004 1321.33 788.497C1322.97 787.99 1324.71 788.909 1325.21 790.549L1328.27 800.448C1328.29 800.509 1328.31 800.57 1328.32 800.631L1330.37 807.263C1333.1 816.074 1328.16 825.426 1319.35 828.15L1315.62 829.301C1309.26 831.269 1302.61 829.24 1298.39 824.642C1298.09 824.32 1297.75 824.041 1297.36 823.846C1293.94 822.142 1289.89 820.577 1286.28 819.18L1286.28 819.18L1286.28 819.18L1286.28 819.18L1286.28 819.18C1284.77 818.597 1283.34 818.044 1282.06 817.521C1279.68 816.551 1278.52 813.739 1279.57 811.395C1281.38 807.364 1287.46 810.19 1291.3 812.382C1291.33 812.4 1291.36 812.418 1291.39 812.436C1292.05 812.814 1292.85 812.191 1292.63 811.466V811.466L1289.88 802.556L1283.45 781.768Z"/>
</mask>
<path fill-rule="evenodd" clip-rule="evenodd" d="M1283.45 781.768C1282.94 780.128 1283.86 778.388 1285.5 777.881C1287.14 777.374 1288.88 778.292 1289.39 779.933L1295.2 798.739C1295.54 799.833 1296.7 800.446 1297.8 800.108V800.108C1298.89 799.769 1299.5 798.608 1299.17 797.515L1298.25 794.546C1297.74 792.906 1298.66 791.165 1300.3 790.658C1301.94 790.151 1303.68 791.07 1304.19 792.71L1305.1 795.679C1305.44 796.773 1306.6 797.385 1307.7 797.047V797.047C1308.79 796.709 1309.4 795.548 1309.07 794.454L1308.76 793.465C1308.25 791.825 1309.17 790.085 1310.81 789.578C1312.45 789.071 1314.19 789.989 1314.7 791.63L1315.01 792.618C1315.34 793.712 1316.5 794.325 1317.6 793.987L1318.59 793.68C1319.14 793.512 1319.44 792.931 1319.27 792.385V792.385C1318.77 790.745 1319.69 789.004 1321.33 788.497C1322.97 787.99 1324.71 788.909 1325.21 790.549L1328.27 800.448C1328.29 800.509 1328.31 800.57 1328.32 800.631L1330.37 807.263C1333.1 816.074 1328.16 825.426 1319.35 828.15L1315.62 829.301C1309.26 831.269 1302.61 829.24 1298.39 824.642C1298.09 824.32 1297.75 824.041 1297.36 823.846C1293.94 822.142 1289.89 820.577 1286.28 819.18L1286.28 819.18L1286.28 819.18L1286.28 819.18L1286.28 819.18C1284.77 818.597 1283.34 818.044 1282.06 817.521C1279.68 816.551 1278.52 813.739 1279.57 811.395C1281.38 807.364 1287.46 810.19 1291.3 812.382C1291.33 812.4 1291.36 812.418 1291.39 812.436C1292.05 812.814 1292.85 812.191 1292.63 811.466V811.466L1289.88 802.556L1283.45 781.768Z" fill="white"/>
<path d="M1289.39 779.933L1286.52 780.819L1289.39 779.933ZM1298.25 794.546L1301.11 793.66L1298.25 794.546ZM1304.19 792.71L1307.05 791.824L1304.19 792.71ZM1325.21 790.549L1322.35 791.435L1325.21 790.549ZM1328.27 800.448L1331.14 799.562L1328.27 800.448ZM1328.32 800.631L1325.41 801.343L1325.43 801.431L1325.46 801.517L1328.32 800.631ZM1286.28 819.18L1287.36 816.382L1287.27 816.345L1287.17 816.315L1286.28 819.18ZM1286.28 819.18L1285.28 822.011L1285.34 822.029L1285.39 822.045L1286.28 819.18ZM1286.28 819.18L1285.24 821.994L1285.26 822.002L1285.28 822.011L1286.28 819.18ZM1286.28 819.18L1285.19 821.977L1285.21 821.985L1285.24 821.993L1286.28 819.18ZM1286.28 819.18L1287.36 816.383L1287.36 816.382L1286.28 819.18ZM1282.06 817.521L1280.93 820.299L1280.93 820.299L1282.06 817.521ZM1279.57 811.395L1282.31 812.623L1282.31 812.623L1279.57 811.395ZM1291.3 812.382L1289.81 814.987L1289.81 814.987L1291.3 812.382ZM1289.88 802.556L1287.01 803.442L1289.88 802.556ZM1291.39 812.436L1289.9 815.038L1291.39 812.436ZM1298.39 824.642L1300.59 822.612L1298.39 824.642ZM1297.36 823.846L1298.69 821.161L1297.36 823.846ZM1299.17 797.515L1302.03 796.629L1299.17 797.515ZM1305.1 795.679L1307.97 794.793L1305.1 795.679ZM1295.2 798.739L1292.34 799.625L1295.2 798.739ZM1284.62 775.015C1281.39 776.011 1279.59 779.431 1280.58 782.654L1286.32 780.883C1286.3 780.825 1286.33 780.765 1286.39 780.747L1284.62 775.015ZM1292.26 779.047C1291.26 775.824 1287.84 774.018 1284.62 775.015L1286.39 780.747C1286.45 780.729 1286.51 780.761 1286.52 780.819L1292.26 779.047ZM1298.07 797.853L1292.26 779.047L1286.52 780.819L1292.34 799.625L1298.07 797.853ZM1295.38 795.432L1296.3 798.4L1302.03 796.629L1301.11 793.66L1295.38 795.432ZM1299.41 787.792C1296.19 788.788 1294.39 792.209 1295.38 795.432L1301.11 793.66C1301.1 793.603 1301.13 793.542 1301.19 793.525L1299.41 787.792ZM1307.05 791.824C1306.06 788.601 1302.64 786.796 1299.41 787.792L1301.19 793.525C1301.24 793.507 1301.3 793.539 1301.32 793.596L1307.05 791.824ZM1307.97 794.793L1307.05 791.824L1301.32 793.596L1302.24 796.565L1307.97 794.793ZM1305.89 794.351L1306.2 795.34L1311.93 793.568L1311.63 792.58L1305.89 794.351ZM1309.93 786.712C1306.7 787.708 1304.9 791.128 1305.89 794.351L1311.63 792.58C1311.61 792.522 1311.64 792.462 1311.7 792.444L1309.93 786.712ZM1317.57 790.744C1316.57 787.521 1313.15 785.715 1309.93 786.712L1311.7 792.444C1311.76 792.426 1311.82 792.458 1311.83 792.515L1317.57 790.744ZM1317.87 791.732L1317.57 790.744L1311.83 792.515L1312.14 793.504L1317.87 791.732ZM1317.7 790.814L1316.71 791.121L1318.48 796.853L1319.48 796.547L1317.7 790.814ZM1322.14 791.499C1322.12 791.442 1322.15 791.381 1322.21 791.363L1320.44 785.631C1317.22 786.627 1315.41 790.048 1316.41 793.271L1322.14 791.499ZM1322.21 791.363C1322.27 791.346 1322.33 791.378 1322.35 791.435L1328.08 789.663C1327.08 786.44 1323.66 784.635 1320.44 785.631L1322.21 791.363ZM1322.35 791.435L1325.41 801.334L1331.14 799.562L1328.08 789.663L1322.35 791.435ZM1325.41 801.334C1325.41 801.337 1325.41 801.34 1325.41 801.343L1331.24 799.918C1331.21 799.799 1331.18 799.68 1331.14 799.562L1325.41 801.334ZM1333.24 806.377L1331.19 799.745L1325.46 801.517L1327.51 808.149L1333.24 806.377ZM1320.24 831.016C1330.63 827.803 1336.45 816.772 1333.24 806.377L1327.51 808.149C1329.74 815.377 1325.69 823.049 1318.46 825.283L1320.24 831.016ZM1316.51 832.168L1320.24 831.016L1318.46 825.283L1314.74 826.435L1316.51 832.168ZM1296.18 826.672C1301.16 832.091 1309 834.49 1316.51 832.168L1314.74 826.435C1309.52 828.048 1304.07 826.39 1300.59 822.612L1296.18 826.672ZM1285.2 821.978C1288.84 823.388 1292.75 824.902 1296.02 826.531L1298.69 821.161C1295.13 819.383 1290.94 817.767 1287.36 816.382L1285.2 821.978ZM1285.39 822.045L1285.39 822.045L1287.17 816.315L1287.17 816.315L1285.39 822.045ZM1285.28 822.011L1285.28 822.011L1287.27 816.35L1287.27 816.35L1285.28 822.011ZM1285.24 821.993L1285.24 821.994L1287.32 816.367L1287.32 816.367L1285.24 821.993ZM1285.19 821.976L1285.19 821.977L1287.36 816.383L1287.36 816.383L1285.19 821.976ZM1280.93 820.299C1282.24 820.834 1283.7 821.398 1285.2 821.978L1287.36 816.382C1285.85 815.796 1284.44 815.254 1283.19 814.744L1280.93 820.299ZM1276.83 810.167C1275.07 814.099 1277.02 818.703 1280.93 820.299L1283.19 814.744C1282.35 814.398 1281.97 813.378 1282.31 812.623L1276.83 810.167ZM1292.79 809.777C1290.84 808.662 1288.01 807.202 1285.3 806.621C1283.94 806.33 1282.32 806.195 1280.76 806.669C1279.05 807.186 1277.64 808.361 1276.83 810.167L1282.31 812.623C1282.4 812.414 1282.43 812.43 1282.49 812.412C1282.7 812.35 1283.18 812.303 1284.05 812.488C1285.79 812.861 1287.93 813.91 1289.81 814.987L1292.79 809.777ZM1292.89 809.834C1292.85 809.815 1292.82 809.796 1292.79 809.777L1289.81 814.987C1289.84 815.004 1289.87 815.021 1289.9 815.038L1292.89 809.834ZM1287.01 803.442L1289.76 812.352L1295.5 810.58L1292.74 801.67L1287.01 803.442ZM1280.58 782.654L1287.01 803.442L1292.74 801.67L1286.32 780.883L1280.58 782.654ZM1289.9 815.038C1292.81 816.709 1296.56 814.028 1295.5 810.58L1289.76 812.352C1289.15 810.354 1291.29 808.918 1292.89 809.834L1289.9 815.038ZM1300.59 822.612C1300.11 822.083 1299.48 821.554 1298.69 821.161L1296.02 826.531C1296.01 826.529 1296.07 826.557 1296.18 826.672L1300.59 822.612ZM1308.58 799.913C1311.26 799.086 1312.76 796.245 1311.93 793.568L1306.2 795.34C1306.05 794.851 1306.32 794.332 1306.81 794.181L1308.58 799.913ZM1298.68 802.974C1301.36 802.146 1302.86 799.305 1302.03 796.629L1296.3 798.4C1296.15 797.911 1296.42 797.392 1296.91 797.241L1298.68 802.974ZM1312.14 793.504C1312.97 796.181 1315.81 797.68 1318.48 796.853L1316.71 791.121C1317.2 790.969 1317.72 791.243 1317.87 791.732L1312.14 793.504ZM1302.24 796.565C1303.07 799.241 1305.91 800.741 1308.58 799.913L1306.81 794.181C1307.3 794.03 1307.82 794.304 1307.97 794.793L1302.24 796.565ZM1319.48 796.547C1321.61 795.888 1322.8 793.628 1322.14 791.499L1316.41 793.271C1316.09 792.234 1316.67 791.135 1317.7 790.814L1319.48 796.547ZM1292.34 799.625C1293.16 802.302 1296.01 803.801 1298.68 802.974L1296.91 797.241C1297.4 797.09 1297.92 797.364 1298.07 797.853L1292.34 799.625Z" fill="#262626" mask="url(#path-24-outside-4_667_96530)"/>
<path fill-rule="evenodd" clip-rule="evenodd" d="M1388.4 604.531C1391.52 597.423 1394.52 590.652 1397.37 583.429C1398.73 579.983 1399.95 575.997 1401.14 572.485C1396.65 573.282 1394.37 574.356 1389.88 575.104C1389.88 575.105 1389.16 565.397 1388.41 558.481C1383.75 566.809 1381.56 579.43 1380.75 586.452C1383.88 585.799 1387.07 585.083 1390.14 584.168C1389.64 590.957 1388.98 597.753 1388.4 604.531Z" fill="white" stroke="#2E2E2E" stroke-width="1.6" stroke-miterlimit="1.5" stroke-linecap="round" stroke-linejoin="round"/>
<path d="M1405.52 611.332C1404.6 611.118 1403.68 610.869 1402.75 610.674" stroke="#2E2E2E" stroke-width="1.6" stroke-miterlimit="1.5" stroke-linecap="round" stroke-linejoin="round"/>
<path d="M1398.23 622.318C1397.73 621.388 1397.16 620.499 1396.65 619.577" stroke="#2E2E2E" stroke-width="1.6" stroke-miterlimit="1.5" stroke-linecap="round" stroke-linejoin="round"/>
<path d="M1386.19 621.032C1385.61 622.345 1385.16 623.712 1384.58 625.026" stroke="#2E2E2E" stroke-width="1.6" stroke-miterlimit="1.5" stroke-linecap="round" stroke-linejoin="round"/>
<path d="M1374.47 614.447C1373.25 615.186 1372.01 615.92 1370.86 616.765" stroke="#2E2E2E" stroke-width="1.6" stroke-miterlimit="1.5" stroke-linecap="round" stroke-linejoin="round"/>
<rect x="1264.59" y="121" width="69.8123" height="69.8123" rx="16.6716" transform="rotate(12.9027 1264.59 121)" fill="#FFA02E"/>
<rect x="1264.59" y="121" width="69.8123" height="69.8123" rx="16.6716" transform="rotate(12.9027 1264.59 121)" stroke="#1D1D1D" stroke-width="3"/>
<path d="M1303.45 174.098L1291.65 171.556L1312.36 150.797C1312.68 150.475 1312.8 150.004 1312.68 149.567C1312.55 149.13 1312.2 148.796 1311.75 148.695L1281.22 141.699C1280.56 141.548 1279.9 141.951 1279.73 142.607L1277.34 151.916C1277.25 152.248 1277.3 152.599 1277.49 152.889C1277.67 153.18 1277.96 153.383 1278.29 153.452L1291.44 156.163L1269.21 175.633C1268.86 175.942 1268.71 176.422 1268.82 176.876C1268.93 177.331 1269.29 177.684 1269.75 177.791L1300.93 185.126C1301.26 185.202 1301.6 185.146 1301.88 184.97C1302.16 184.794 1302.36 184.513 1302.44 184.188L1304.41 175.6C1304.48 175.274 1304.42 174.931 1304.24 174.649C1304.06 174.367 1303.78 174.169 1303.45 174.098Z" fill="white" stroke="black" stroke-width="2.50074" stroke-linejoin="round"/>
<path fill-rule="evenodd" clip-rule="evenodd" d="M1405.23 149.441C1405.22 148.302 1405.07 147.153 1404.77 145.997C1403.72 141.937 1399.04 139.331 1394.06 138.719C1389.08 138.106 1383.9 139.5 1381.9 143.031C1380.76 145.05 1380.6 146.79 1381.07 148.257C1381.54 149.716 1382.64 150.926 1384.13 151.868C1388.3 154.494 1395.61 155.03 1398.94 153.932C1400.48 153.424 1401.99 152.811 1403.45 152.11C1402.62 156.7 1399.49 161.048 1395.32 164.965C1386.26 173.481 1372.2 179.944 1364.55 182.32C1364.14 182.448 1363.91 182.883 1364.04 183.294C1364.16 183.704 1364.6 183.934 1365.01 183.807C1372.82 181.383 1387.15 174.783 1396.39 166.099C1401.17 161.613 1404.57 156.564 1405.15 151.256C1415.94 145.504 1424.8 135.068 1432.37 126.286C1432.66 125.962 1432.62 125.469 1432.29 125.188C1431.97 124.909 1431.47 124.944 1431.19 125.27C1423.92 133.693 1415.49 143.713 1405.23 149.441ZM1403.67 150.276C1403.72 148.995 1403.6 147.695 1403.26 146.383C1402.35 142.87 1398.18 140.792 1393.87 140.262C1391.22 139.938 1388.51 140.205 1386.37 141.156C1385.03 141.753 1383.93 142.619 1383.26 143.797C1382.39 145.343 1382.2 146.664 1382.56 147.786C1382.92 148.915 1383.81 149.822 1384.97 150.551C1388.77 152.945 1395.42 153.453 1398.45 152.454C1400.24 151.865 1401.98 151.13 1403.67 150.276Z" fill="black"/>
<rect x="1334.74" y="199.073" width="75.2841" height="75.2841" rx="11.825" transform="rotate(-10.1998 1334.74 199.073)" fill="#7856FF"/>
<rect x="1334.74" y="199.073" width="75.2841" height="75.2841" rx="11.825" transform="rotate(-10.1998 1334.74 199.073)" stroke="black" stroke-width="3"/>
<mask id="path-35-inside-5_667_96530" fill="white">
<path fill-rule="evenodd" clip-rule="evenodd" d="M1398.07 211.845C1397.4 211.215 1396.3 211.228 1395.62 211.877L1358.68 247.058C1359.06 247.413 1359.63 247.595 1360.2 247.489L1401.69 240.024C1402.64 239.855 1403.27 238.999 1403.11 238.108L1398.54 212.687C1398.48 212.376 1398.32 212.083 1398.07 211.845ZM1356.09 218.987C1355.23 218.62 1354.19 218.99 1353.78 219.813C1353.63 220.122 1353.58 220.454 1353.64 220.762L1358.22 246.232L1375.4 227.253L1356.09 218.987Z"/>
</mask>
<path fill-rule="evenodd" clip-rule="evenodd" d="M1398.07 211.845C1397.4 211.215 1396.3 211.228 1395.62 211.877L1358.68 247.058C1359.06 247.413 1359.63 247.595 1360.2 247.489L1401.69 240.024C1402.64 239.855 1403.27 238.999 1403.11 238.108L1398.54 212.687C1398.48 212.376 1398.32 212.083 1398.07 211.845ZM1356.09 218.987C1355.23 218.62 1354.19 218.99 1353.78 219.813C1353.63 220.122 1353.58 220.454 1353.64 220.762L1358.22 246.232L1375.4 227.253L1356.09 218.987Z" fill="white"/>
<path d="M1398.07 211.845L1399.79 210.035C1399.79 210.03 1399.78 210.026 1399.78 210.021L1398.07 211.845ZM1395.62 211.877L1397.34 213.687L1397.35 213.686L1395.62 211.877ZM1358.68 247.058L1356.96 245.248C1356.46 245.724 1356.18 246.384 1356.18 247.073C1356.19 247.762 1356.48 248.419 1356.98 248.889L1358.68 247.058ZM1360.2 247.489L1359.76 245.029L1359.75 245.03L1360.2 247.489ZM1398.54 212.687L1401 212.244C1401 212.228 1400.99 212.212 1400.99 212.196L1398.54 212.687ZM1356.09 218.987L1357.08 216.689L1357.07 216.685L1356.09 218.987ZM1353.78 219.813L1356.02 220.938L1356.02 220.933L1353.78 219.813ZM1353.64 220.762L1351.17 221.172C1351.17 221.182 1351.17 221.193 1351.18 221.204L1353.64 220.762ZM1358.22 246.232L1355.76 246.675C1355.93 247.613 1356.61 248.373 1357.53 248.636C1358.45 248.898 1359.43 248.617 1360.07 247.91L1358.22 246.232ZM1375.4 227.253L1377.26 228.931C1377.8 228.333 1378.02 227.509 1377.84 226.719C1377.67 225.93 1377.13 225.273 1376.39 224.955L1375.4 227.253ZM1399.78 210.021C1398.11 208.457 1395.51 208.53 1393.89 210.068L1397.35 213.686C1397.2 213.823 1397.03 213.879 1396.88 213.881C1396.73 213.883 1396.53 213.83 1396.36 213.668L1399.78 210.021ZM1393.9 210.067L1356.96 245.248L1360.41 248.869L1397.34 213.687L1393.9 210.067ZM1356.98 248.889C1357.93 249.775 1359.29 250.199 1360.65 249.948L1359.75 245.03C1359.96 244.992 1360.2 245.051 1360.39 245.228L1356.98 248.889ZM1360.65 249.95L1402.14 242.485L1401.25 237.564L1359.76 245.029L1360.65 249.95ZM1402.14 242.485C1404.29 242.097 1406 240.058 1405.57 237.665L1400.65 238.551C1400.54 237.941 1400.98 237.612 1401.25 237.564L1402.14 242.485ZM1405.57 237.665L1401 212.244L1396.08 213.129L1400.65 238.551L1405.57 237.665ZM1400.99 212.196C1400.83 211.372 1400.41 210.621 1399.79 210.035L1396.34 213.655C1396.23 213.545 1396.13 213.381 1396.09 213.178L1400.99 212.196ZM1357.07 216.685C1355.03 215.82 1352.57 216.654 1351.55 218.693L1356.02 220.933C1355.91 221.143 1355.75 221.258 1355.61 221.308C1355.47 221.357 1355.3 221.365 1355.12 221.289L1357.07 216.685ZM1351.55 218.688C1351.15 219.486 1351.03 220.356 1351.17 221.172L1356.1 220.352C1356.14 220.551 1356.11 220.759 1356.02 220.938L1351.55 218.688ZM1351.18 221.204L1355.76 246.675L1360.68 245.79L1356.1 220.319L1351.18 221.204ZM1360.07 247.91L1377.26 228.931L1373.55 225.575L1356.37 244.554L1360.07 247.91ZM1376.39 224.955L1357.08 216.689L1355.11 221.285L1374.42 229.552L1376.39 224.955Z" fill="black" mask="url(#path-35-inside-5_667_96530)"/>
<defs>
<clipPath id="clip0_667_96530">
<rect x="76.6094" y="680.705" width="110.229" height="135.666" rx="5.02467" fill="white"/>
</clipPath>
<clipPath id="clip1_667_96530">
<rect width="303.362" height="204.142" fill="white" transform="translate(33 176.917)"/>
</clipPath>
</defs>
</svg>
