<svg width="1325" height="716" viewBox="0 0 1325 716" fill="none" xmlns="http://www.w3.org/2000/svg">
<g clip-path="url(#clip0_661_32942)">
<rect x="33" y="575" width="112.256" height="138.161" rx="5.11707" fill="white"/>
<rect x="52.2305" y="603.504" width="74.2374" height="45.013" stroke="#262626" stroke-width="2"/>
<path d="M91.0123 635.098L91.684 635.551L92.2665 634.988L101.107 626.442L124.009 648.198H54.1198L78.0065 626.326L91.0123 635.098Z" stroke="#262626" stroke-width="2"/>
<circle cx="102.055" cy="615.209" r="5.08249" stroke="#262626" stroke-width="2"/>
<mask id="path-6-inside-1_661_32942" fill="white">
<path d="M33 677.021H145.256V713.161H33V677.021Z"/>
</mask>
<path d="M33 678.981H145.256V675.062H33V678.981Z" fill="#262626" mask="url(#path-6-inside-1_661_32942)"/>
<rect x="43.2344" y="685.018" width="91.7874" height="4.47743" rx="2.23872" stroke="#262626"/>
<path d="M43.2344 696.291C43.2344 695.055 44.2367 694.053 45.4731 694.053H132.783C134.019 694.053 135.022 695.055 135.022 696.291V696.291C135.022 697.528 134.019 698.53 132.783 698.53H45.4731C44.2367 698.53 43.2344 697.528 43.2344 696.291V696.291Z" stroke="#262626"/>
<path d="M43.2891 705.078C43.2891 703.86 44.2761 702.873 45.4938 702.873H93.5071C94.7247 702.873 95.7118 703.86 95.7118 705.078V705.078C95.7118 706.295 94.7247 707.282 93.5071 707.282H45.4938C44.2761 707.282 43.2891 706.295 43.2891 705.078V705.078Z" stroke="#262626"/>
</g>
<rect x="32.0201" y="574.02" width="114.215" height="140.12" rx="6.09693" stroke="#262626" stroke-width="1.95973"/>
<rect x="11.0625" y="46.2754" width="308.94" height="251.028" rx="11.7972" fill="#262626"/>
<rect y="40" width="308.94" height="251.028" rx="11.7972" fill="white"/>
<path d="M8.6266 41H300.314C304.526 41 307.94 44.4145 307.94 48.6266V82.133H1V48.6266C1 44.4145 4.41454 41 8.6266 41Z" stroke="#262626" stroke-width="2"/>
<circle cx="24" cy="62" r="9" stroke="#262626" stroke-width="2"/>
<circle cx="52" cy="62" r="9" stroke="#262626" stroke-width="2"/>
<circle cx="80" cy="62" r="9" stroke="#262626" stroke-width="2"/>
<g clip-path="url(#clip1_661_32942)">
<mask id="path-17-inside-2_661_32942" fill="white">
<path d="M0 83.1328H308.94V282.402C308.94 287.166 305.078 291.028 300.313 291.028H8.62659C3.86225 291.028 0 287.166 0 282.402V83.1328Z"/>
</mask>
<path d="M0 83.1328H308.94H0ZM310.94 282.402C310.94 288.271 306.182 293.028 300.313 293.028H8.6266C2.75769 293.028 -2 288.271 -2 282.402H2C2 286.061 4.96683 289.028 8.6266 289.028H300.313C303.973 289.028 306.94 286.061 306.94 282.402H310.94ZM8.6266 293.028C2.75769 293.028 -2 288.271 -2 282.402V83.1328H2V282.402C2 286.061 4.96683 289.028 8.6266 289.028V293.028ZM310.94 83.1328V282.402C310.94 288.271 306.182 293.028 300.313 293.028V289.028C303.973 289.028 306.94 286.061 306.94 282.402V83.1328H310.94Z" fill="#262626" mask="url(#path-17-inside-2_661_32942)"/>
</g>
<path d="M1235.71 50.3246L1235.71 50.3247C1236.53 52.0689 1237.3 53.8456 1238.06 55.6034C1238.27 56.0996 1238.49 56.5944 1238.7 57.0864C1238.89 57.5152 1239.03 57.8415 1239.13 58.0663C1239.18 58.179 1239.22 58.2639 1239.25 58.3226C1239.26 58.3553 1239.27 58.3733 1239.27 58.381C1239.77 59.2453 1240.77 59.7196 1241.69 59.5426C1242.53 59.3808 1243.13 58.8548 1243.49 57.9993L1235.71 50.3246ZM1235.71 50.3246C1232.76 44.0869 1227.87 39.3991 1221.56 36.5726C1218.86 35.3615 1216.15 34.158 1213.44 32.9622L1213.44 32.9621M1235.71 50.3246L1213.44 32.9621M1213.44 32.9621C1211.83 32.2505 1211.49 29.9912 1212.84 28.8593L1212.84 28.8589M1213.44 32.9621L1212.84 28.8589M1212.84 28.8589C1212.97 28.7477 1213.28 28.5607 1213.84 28.3079L1212.84 28.8589ZM1225.92 22.4436L1225.92 22.4437C1224.38 23.5064 1222.73 24.3658 1221.04 25.1072C1219.74 25.6781 1217.34 26.7445 1213.84 28.3077L1225.92 22.4436ZM1225.92 22.4436C1230.14 19.5262 1233.35 15.7202 1235.55 11.0414L1235.55 11.041M1225.92 22.4436L1235.55 11.041M1235.55 11.041C1235.8 10.5171 1236.18 9.62104 1236.7 8.36981C1237.37 6.73224 1238.05 5.0965 1238.73 3.46259L1238.73 3.46237M1235.55 11.041L1238.73 3.46237M1238.73 3.46237C1238.79 3.33621 1238.83 3.22058 1238.88 3.11409C1239.22 2.28045 1239.34 2.00663 1239.73 1.62589L1239.73 1.62558M1238.73 3.46237L1239.73 1.62558M1239.73 1.62558C1240.7 0.688228 1242.32 0.823235 1243.12 1.9036C1243.23 2.04642 1243.42 2.40533 1243.69 3.07348C1244.52 5.07594 1245.35 7.07901 1246.18 9.08268L1246.18 9.08279M1239.73 1.62558L1246.18 9.08279M1246.18 9.08279C1246.65 10.2195 1247.17 11.4131 1247.76 12.5015L1247.76 12.5017M1246.18 9.08279L1247.76 12.5017M1247.76 12.5017C1250.65 17.8288 1254.82 21.8399 1260.26 24.5148L1260.26 24.5151M1247.76 12.5017L1260.26 24.5151M1260.26 24.5151C1260.62 24.6939 1261.19 24.9545 1261.96 25.2934L1261.96 25.2936M1260.26 24.5151L1261.96 25.2936M1261.96 25.2936C1264.24 26.3031 1266.52 27.3151 1268.8 28.3295M1261.96 25.2936L1268.8 28.3295M1269.54 32.7476L1269.54 32.7461C1270.35 32.2066 1270.74 31.1677 1270.52 30.1695L1269.54 32.7476ZM1269.54 32.7476L1269.54 32.7479C1269.53 32.7484 1269.53 32.7494 1269.53 32.751L1269.51 32.7605C1269.5 32.7687 1269.48 32.7794 1269.46 32.7926C1269.41 32.8193 1269.34 32.8527 1269.26 32.8932C1269.1 32.9744 1268.88 33.0764 1268.6 33.2L1268.6 33.2001M1269.54 32.7476L1268.6 33.2001M1268.6 33.2001C1266.33 34.2112 1264.05 35.2219 1261.78 36.2323C1260.44 36.8292 1259.26 37.4044 1258.25 37.9581L1258.73 38.8345M1268.6 33.2001L1258.73 38.8345M1258.73 38.8345L1258.25 37.9581C1256.51 38.9126 1254.81 40.1772 1253.14 41.7405L1258.73 38.8345ZM1268.8 28.3295C1269.81 28.7759 1270.33 29.3094 1270.52 30.1689L1268.8 28.3295Z" fill="white" stroke="#262626" stroke-width="2"/>
<path d="M1299.48 99.8949L1299.48 99.895C1300.05 101.112 1300.59 102.352 1301.12 103.574C1301.27 103.918 1301.42 104.261 1301.56 104.601C1301.69 104.899 1301.79 105.125 1301.86 105.28C1301.9 105.358 1301.92 105.416 1301.94 105.455C1301.94 105.466 1301.95 105.474 1301.95 105.481C1302.24 105.969 1302.8 106.226 1303.3 106.13C1303.77 106.039 1304.12 105.752 1304.33 105.239C1304.61 104.563 1305.33 102.926 1306.48 100.34C1307.58 97.8597 1309.12 95.6903 1311.11 93.8385C1312.28 92.738 1313.49 91.8434 1314.72 91.1662L1315.19 92.0141L1314.72 91.1662C1315.43 90.7763 1316.25 90.3729 1317.19 89.9557C1318.77 89.2537 1320.35 88.5516 1321.93 87.8492L1321.93 87.849C1322.12 87.764 1322.27 87.695 1322.38 87.6411C1322.5 87.5816 1322.54 87.5569 1322.54 87.5601L1322.54 87.5586C1322.99 87.2597 1323.22 86.6695 1323.09 86.0873L1299.48 99.8949ZM1299.48 99.8949C1297.4 95.4932 1293.95 92.1849 1289.5 90.1925L1299.48 99.8949ZM1283.86 87.6834L1283.86 87.6835C1285.74 88.5145 1287.62 89.3508 1289.5 90.1924L1283.86 87.6834ZM1283.86 87.6834C1282.94 87.2785 1282.75 85.9841 1283.51 85.3459L1283.51 85.3455M1283.86 87.6834L1283.51 85.3455M1283.51 85.3455C1283.57 85.2969 1283.75 85.1811 1284.14 85.008L1283.51 85.3455ZM1292.58 80.9061L1292.58 80.9062C1291.49 81.6587 1290.32 82.2647 1289.14 82.7851C1288.24 83.1812 1286.57 83.9217 1284.14 85.0078L1292.58 80.9061ZM1292.58 80.9061C1295.55 78.8483 1297.82 76.1623 1299.37 72.8634L1299.37 72.8631L1292.58 80.9061ZM1301.59 67.5857L1301.59 67.5859C1301.11 68.7204 1300.64 69.8561 1300.17 70.9931C1300.17 70.9932 1300.17 70.9934 1300.17 70.9935L1299.25 70.613L1301.59 67.5857ZM1301.59 67.5857C1301.62 67.5014 1301.66 67.4246 1301.69 67.3542C1301.93 66.7596 1301.99 66.6302 1302.21 66.4114L1302.21 66.4111M1301.59 67.5857L1302.21 66.4111M1302.21 66.4111C1302.75 65.8885 1303.66 65.9643 1304.11 66.5663C1304.16 66.6325 1304.28 66.8508 1304.47 67.3146L1305.39 66.9339M1302.21 66.4111L1305.39 66.9339M1305.39 66.9339L1304.47 67.3146C1305.05 68.7057 1305.62 70.0973 1306.2 71.4893L1306.2 71.4894M1305.39 66.9339L1306.2 71.4894M1306.2 71.4894C1306.53 72.2815 1306.89 73.1227 1307.31 73.8933L1307.31 73.8934M1306.2 71.4894L1307.31 73.8934M1307.31 73.8934C1309.35 77.65 1312.29 80.4816 1316.13 82.3679L1316.13 82.3682M1307.31 73.8934L1316.13 82.3682M1316.13 82.3682C1316.39 82.4953 1316.79 82.6784 1317.32 82.914L1317.32 82.9143M1316.13 82.3682L1317.32 82.9143M1317.32 82.9143C1318.9 83.6155 1320.49 84.3185 1322.07 85.0231L1317.32 82.9143ZM1322.07 85.0231C1322.72 85.3091 1322.99 85.6165 1323.09 86.0868L1322.07 85.0231Z" fill="white" stroke="#262626" stroke-width="2"/>
<path d="M1280.68 148.14L1280.68 148.141C1280.97 148.761 1281.24 149.394 1281.51 150.01C1281.59 150.182 1281.66 150.353 1281.73 150.521L1280.68 148.14ZM1280.68 148.14C1279.58 145.816 1277.76 144.068 1275.41 143.019L1280.68 148.14ZM1272.57 141.756L1272.57 141.756C1273.52 142.175 1274.47 142.596 1275.41 143.019L1272.57 141.756ZM1272.57 141.756C1272.52 141.733 1272.47 141.682 1272.46 141.594M1272.57 141.756L1272.46 141.594M1277.04 139.211L1277.04 139.211C1276.46 139.613 1275.84 139.932 1275.23 140.203C1274.77 140.401 1273.94 140.773 1272.72 141.319L1277.04 139.211ZM1277.04 139.211C1278.61 138.126 1279.81 136.707 1280.63 134.969L1280.63 134.969M1277.04 139.211L1280.63 134.969M1280.63 134.969C1280.72 134.769 1280.86 134.443 1281.04 134.006L1280.63 134.969ZM1281.75 132.295L1281.75 132.295C1281.51 132.865 1281.27 133.435 1281.04 134.006L1281.75 132.295ZM1281.75 132.295C1281.77 132.248 1281.79 132.204 1281.8 132.166L1281.8 132.161C1281.82 132.121 1281.83 132.087 1281.85 132.055C1281.87 131.992 1281.89 131.956 1281.9 131.931C1281.91 131.91 1281.92 131.901 1281.92 131.898C1281.92 131.895 1281.93 131.886 1281.95 131.87L1281.95 131.869M1281.75 132.295L1281.95 131.869M1281.95 131.869C1281.97 131.846 1282.01 131.831 1282.06 131.835C1282.1 131.838 1282.13 131.856 1282.15 131.879C1282.16 131.886 1282.16 131.901 1282.18 131.927C1282.2 131.979 1282.24 132.054 1282.28 132.157L1282.28 132.157M1281.95 131.869L1282.28 132.157M1282.28 132.157C1282.57 132.856 1282.86 133.556 1283.15 134.256L1283.15 134.256M1282.28 132.157L1283.15 134.256M1283.15 134.256C1283.32 134.659 1283.51 135.101 1283.73 135.512L1283.73 135.512M1283.15 134.256L1283.73 135.512M1283.73 135.512C1284.8 137.492 1286.36 138.989 1288.38 139.984L1288.38 139.984M1283.73 135.512L1288.38 139.984M1288.38 139.984C1288.52 140.052 1288.73 140.148 1289 140.267L1289 140.267M1288.38 139.984L1289 140.267M1289 140.267C1289.8 140.619 1290.59 140.973 1291.39 141.327L1289 140.267ZM1291.32 141.84L1291.32 141.84C1291.41 141.799 1291.48 141.767 1291.53 141.744C1291.54 141.737 1291.55 141.731 1291.56 141.727C1291.58 141.712 1291.6 141.69 1291.61 141.656C1291.62 141.613 1291.63 141.562 1291.62 141.513C1291.61 141.485 1291.61 141.471 1291.6 141.467C1291.6 141.462 1291.6 141.456 1291.59 141.448C1291.57 141.43 1291.52 141.385 1291.39 141.327L1291.32 141.84ZM1291.32 141.84L1288.94 142.9C1288.94 142.9 1288.94 142.9 1288.94 142.9C1288.45 143.114 1288.03 143.323 1287.65 143.527L1288.1 144.338M1291.32 141.84L1288.1 144.338M1288.1 144.338L1287.65 143.527C1286.99 143.891 1286.35 144.367 1285.74 144.943L1288.1 144.338ZM1272.46 141.594C1272.45 141.514 1272.47 141.459 1272.51 141.423M1272.46 141.594L1272.51 141.423M1272.51 141.423C1272.51 141.42 1272.52 141.414 1272.54 141.407C1272.57 141.385 1272.63 141.356 1272.72 141.319L1272.51 141.423ZM1285.74 144.944C1284.69 145.92 1283.88 147.066 1283.3 148.375C1282.72 149.673 1282.35 150.502 1282.21 150.848C1282.18 150.921 1282.15 150.954 1282.13 150.967C1282.12 150.979 1282.1 150.992 1282.06 151C1282.04 151.003 1282.02 151.003 1281.98 150.986C1281.95 150.971 1281.93 150.949 1281.91 150.925C1281.9 150.908 1281.89 150.887 1281.88 150.86C1281.85 150.783 1281.8 150.67 1281.73 150.521L1285.74 144.944ZM1281.03 151.398C1281.02 151.38 1280.95 151.22 1280.82 150.92L1281.03 151.398Z" fill="white" stroke="#262626" stroke-width="2"/>
<defs>
<clipPath id="clip0_661_32942">
<rect x="33" y="575" width="112.256" height="138.161" rx="5.11707" fill="white"/>
</clipPath>
<clipPath id="clip1_661_32942">
<rect width="308.94" height="207.895" fill="white" transform="translate(0 83.1328)"/>
</clipPath>
</defs>
</svg>
