<svg width="1440" height="855" viewBox="0 0 1440 855" fill="none" xmlns="http://www.w3.org/2000/svg">
<g clip-path="url(#clip0_337_4073)">
<rect x="83.3047" y="83.4756" width="44.9488" height="44.9488" stroke="white" stroke-opacity="0.15" stroke-width="1.7627"/>
<rect x="128.254" y="83.4756" width="44.9488" height="44.9488" stroke="white" stroke-opacity="0.15" stroke-width="1.7627"/>
<rect x="173.201" y="83.4756" width="44.9488" height="44.9488" stroke="white" stroke-opacity="0.15" stroke-width="1.7627"/>
<rect x="218.15" y="83.4756" width="44.9488" height="44.9488" stroke="white" stroke-opacity="0.15" stroke-width="1.7627"/>
<rect x="263.1" y="83.4756" width="44.9488" height="44.9488" stroke="white" stroke-opacity="0.15" stroke-width="1.7627"/>
<rect x="308.049" y="83.4756" width="44.9488" height="44.9488" stroke="white" stroke-opacity="0.15" stroke-width="1.7627"/>
<rect x="352.998" y="83.4756" width="44.9488" height="44.9488" stroke="white" stroke-opacity="0.15" stroke-width="1.7627"/>
<rect x="397.945" y="83.4756" width="44.9488" height="44.9488" stroke="white" stroke-opacity="0.15" stroke-width="1.7627"/>
<rect x="442.895" y="83.4756" width="44.9488" height="44.9488" stroke="white" stroke-opacity="0.15" stroke-width="1.7627"/>
<rect x="487.844" y="83.4756" width="44.9488" height="44.9488" stroke="white" stroke-opacity="0.15" stroke-width="1.7627"/>
<rect x="532.793" y="83.4756" width="44.9488" height="44.9488" stroke="white" stroke-opacity="0.15" stroke-width="1.7627"/>
<rect x="83.3047" y="128.424" width="44.9488" height="44.9488" stroke="white" stroke-opacity="0.15" stroke-width="1.7627"/>
<rect x="128.254" y="128.424" width="44.9488" height="44.9488" stroke="white" stroke-opacity="0.15" stroke-width="1.7627"/>
<rect x="173.201" y="128.424" width="44.9488" height="44.9488" stroke="white" stroke-opacity="0.15" stroke-width="1.7627"/>
<rect x="218.15" y="128.424" width="44.9488" height="44.9488" stroke="white" stroke-opacity="0.15" stroke-width="1.7627"/>
<rect x="263.1" y="128.424" width="44.9488" height="44.9488" stroke="white" stroke-opacity="0.15" stroke-width="1.7627"/>
<rect x="308.049" y="128.424" width="44.9488" height="44.9488" stroke="white" stroke-opacity="0.15" stroke-width="1.7627"/>
<rect x="352.998" y="128.424" width="44.9488" height="44.9488" stroke="white" stroke-opacity="0.15" stroke-width="1.7627"/>
<rect x="397.945" y="128.424" width="44.9488" height="44.9488" stroke="white" stroke-opacity="0.15" stroke-width="1.7627"/>
<rect x="442.895" y="128.424" width="44.9488" height="44.9488" stroke="white" stroke-opacity="0.15" stroke-width="1.7627"/>
<rect x="487.844" y="128.424" width="44.9488" height="44.9488" stroke="white" stroke-opacity="0.15" stroke-width="1.7627"/>
<rect x="532.793" y="128.424" width="44.9488" height="44.9488" stroke="white" stroke-opacity="0.15" stroke-width="1.7627"/>
<rect x="83.3047" y="173.373" width="44.9488" height="44.9488" stroke="white" stroke-opacity="0.15" stroke-width="1.7627"/>
<rect x="128.254" y="173.373" width="44.9488" height="44.9488" stroke="white" stroke-opacity="0.15" stroke-width="1.7627"/>
<rect x="173.201" y="173.373" width="44.9488" height="44.9488" stroke="white" stroke-opacity="0.15" stroke-width="1.7627"/>
<rect x="218.15" y="173.373" width="44.9488" height="44.9488" stroke="white" stroke-opacity="0.15" stroke-width="1.7627"/>
<rect x="263.1" y="173.373" width="44.9488" height="44.9488" stroke="white" stroke-opacity="0.15" stroke-width="1.7627"/>
<rect x="308.049" y="173.373" width="44.9488" height="44.9488" stroke="white" stroke-opacity="0.15" stroke-width="1.7627"/>
<rect x="352.998" y="173.373" width="44.9488" height="44.9488" stroke="white" stroke-opacity="0.15" stroke-width="1.7627"/>
<rect x="397.945" y="173.373" width="44.9488" height="44.9488" stroke="white" stroke-opacity="0.15" stroke-width="1.7627"/>
<rect x="442.895" y="173.373" width="44.9488" height="44.9488" stroke="white" stroke-opacity="0.15" stroke-width="1.7627"/>
<rect x="487.844" y="173.373" width="44.9488" height="44.9488" stroke="white" stroke-opacity="0.15" stroke-width="1.7627"/>
<rect x="532.793" y="173.373" width="44.9488" height="44.9488" stroke="white" stroke-opacity="0.15" stroke-width="1.7627"/>
<rect x="83.3047" y="218.322" width="44.9488" height="44.9488" stroke="white" stroke-opacity="0.15" stroke-width="1.7627"/>
<rect x="128.254" y="218.322" width="44.9488" height="44.9488" stroke="white" stroke-opacity="0.15" stroke-width="1.7627"/>
<rect x="173.201" y="218.322" width="44.9488" height="44.9488" stroke="white" stroke-opacity="0.15" stroke-width="1.7627"/>
<rect x="218.15" y="218.322" width="44.9488" height="44.9488" stroke="white" stroke-opacity="0.15" stroke-width="1.7627"/>
<rect x="263.1" y="218.322" width="44.9488" height="44.9488" stroke="white" stroke-opacity="0.15" stroke-width="1.7627"/>
<rect x="308.049" y="218.322" width="44.9488" height="44.9488" stroke="white" stroke-opacity="0.15" stroke-width="1.7627"/>
<rect x="352.998" y="218.322" width="44.9488" height="44.9488" stroke="white" stroke-opacity="0.15" stroke-width="1.7627"/>
<rect x="397.945" y="218.322" width="44.9488" height="44.9488" stroke="white" stroke-opacity="0.15" stroke-width="1.7627"/>
<rect x="442.895" y="218.322" width="44.9488" height="44.9488" stroke="white" stroke-opacity="0.15" stroke-width="1.7627"/>
<rect x="487.844" y="218.322" width="44.9488" height="44.9488" stroke="white" stroke-opacity="0.15" stroke-width="1.7627"/>
<rect x="532.793" y="218.322" width="44.9488" height="44.9488" stroke="white" stroke-opacity="0.15" stroke-width="1.7627"/>
<rect x="83.3047" y="263.271" width="44.9488" height="44.9488" stroke="white" stroke-opacity="0.15" stroke-width="1.7627"/>
<rect x="128.254" y="263.271" width="44.9488" height="44.9488" stroke="white" stroke-opacity="0.15" stroke-width="1.7627"/>
<rect x="173.201" y="263.271" width="44.9488" height="44.9488" stroke="white" stroke-opacity="0.15" stroke-width="1.7627"/>
<rect x="218.15" y="263.271" width="44.9488" height="44.9488" stroke="white" stroke-opacity="0.15" stroke-width="1.7627"/>
<rect x="263.1" y="263.271" width="44.9488" height="44.9488" stroke="white" stroke-opacity="0.15" stroke-width="1.7627"/>
<rect x="308.049" y="263.271" width="44.9488" height="44.9488" stroke="white" stroke-opacity="0.15" stroke-width="1.7627"/>
<rect x="352.998" y="263.271" width="44.9488" height="44.9488" stroke="white" stroke-opacity="0.15" stroke-width="1.7627"/>
<rect x="397.945" y="263.271" width="44.9488" height="44.9488" stroke="white" stroke-opacity="0.15" stroke-width="1.7627"/>
<rect x="442.895" y="263.271" width="44.9488" height="44.9488" stroke="white" stroke-opacity="0.15" stroke-width="1.7627"/>
<rect x="487.844" y="263.271" width="44.9488" height="44.9488" stroke="white" stroke-opacity="0.15" stroke-width="1.7627"/>
<rect x="532.793" y="263.271" width="44.9488" height="44.9488" stroke="white" stroke-opacity="0.15" stroke-width="1.7627"/>
<rect x="83.3047" y="308.22" width="44.9488" height="44.9488" stroke="white" stroke-opacity="0.15" stroke-width="1.7627"/>
<rect x="128.254" y="308.22" width="44.9488" height="44.9488" stroke="white" stroke-opacity="0.15" stroke-width="1.7627"/>
<rect x="173.201" y="308.22" width="44.9488" height="44.9488" stroke="white" stroke-opacity="0.15" stroke-width="1.7627"/>
<rect x="218.15" y="308.22" width="44.9488" height="44.9488" stroke="white" stroke-opacity="0.15" stroke-width="1.7627"/>
<rect x="263.1" y="308.22" width="44.9488" height="44.9488" stroke="white" stroke-opacity="0.15" stroke-width="1.7627"/>
<rect x="308.049" y="308.22" width="44.9488" height="44.9488" stroke="white" stroke-opacity="0.15" stroke-width="1.7627"/>
<rect x="352.998" y="308.22" width="44.9488" height="44.9488" stroke="white" stroke-opacity="0.15" stroke-width="1.7627"/>
<rect x="397.945" y="308.22" width="44.9488" height="44.9488" stroke="white" stroke-opacity="0.15" stroke-width="1.7627"/>
<rect x="442.895" y="308.22" width="44.9488" height="44.9488" stroke="white" stroke-opacity="0.15" stroke-width="1.7627"/>
<rect x="487.844" y="308.22" width="44.9488" height="44.9488" stroke="white" stroke-opacity="0.15" stroke-width="1.7627"/>
<rect x="532.793" y="308.22" width="44.9488" height="44.9488" stroke="white" stroke-opacity="0.15" stroke-width="1.7627"/>
<rect x="83.3047" y="353.168" width="44.9488" height="44.9488" stroke="white" stroke-opacity="0.15" stroke-width="1.7627"/>
<rect x="128.254" y="353.168" width="44.9488" height="44.9488" stroke="white" stroke-opacity="0.15" stroke-width="1.7627"/>
<rect x="173.201" y="353.168" width="44.9488" height="44.9488" stroke="white" stroke-opacity="0.15" stroke-width="1.7627"/>
<rect x="218.15" y="353.168" width="44.9488" height="44.9488" stroke="white" stroke-opacity="0.15" stroke-width="1.7627"/>
<rect x="263.1" y="353.168" width="44.9488" height="44.9488" stroke="white" stroke-opacity="0.15" stroke-width="1.7627"/>
<rect x="308.049" y="353.168" width="44.9488" height="44.9488" stroke="white" stroke-opacity="0.15" stroke-width="1.7627"/>
<rect x="352.998" y="353.168" width="44.9488" height="44.9488" stroke="white" stroke-opacity="0.15" stroke-width="1.7627"/>
<rect x="397.945" y="353.168" width="44.9488" height="44.9488" stroke="white" stroke-opacity="0.15" stroke-width="1.7627"/>
<rect x="442.895" y="353.168" width="44.9488" height="44.9488" stroke="white" stroke-opacity="0.15" stroke-width="1.7627"/>
<rect x="487.844" y="353.168" width="44.9488" height="44.9488" stroke="white" stroke-opacity="0.15" stroke-width="1.7627"/>
<rect x="532.793" y="353.168" width="44.9488" height="44.9488" stroke="white" stroke-opacity="0.15" stroke-width="1.7627"/>
<rect x="83.3047" y="398.117" width="44.9488" height="44.9488" stroke="white" stroke-opacity="0.15" stroke-width="1.7627"/>
<rect x="128.254" y="398.117" width="44.9488" height="44.9488" stroke="white" stroke-opacity="0.15" stroke-width="1.7627"/>
<rect x="173.201" y="398.117" width="44.9488" height="44.9488" stroke="white" stroke-opacity="0.15" stroke-width="1.7627"/>
<rect x="218.15" y="398.117" width="44.9488" height="44.9488" stroke="white" stroke-opacity="0.15" stroke-width="1.7627"/>
<rect x="263.1" y="398.117" width="44.9488" height="44.9488" stroke="white" stroke-opacity="0.15" stroke-width="1.7627"/>
<rect x="308.049" y="398.117" width="44.9488" height="44.9488" stroke="white" stroke-opacity="0.15" stroke-width="1.7627"/>
<rect x="352.998" y="398.117" width="44.9488" height="44.9488" stroke="white" stroke-opacity="0.15" stroke-width="1.7627"/>
<rect x="397.945" y="398.117" width="44.9488" height="44.9488" stroke="white" stroke-opacity="0.15" stroke-width="1.7627"/>
<rect x="442.895" y="398.117" width="44.9488" height="44.9488" stroke="white" stroke-opacity="0.15" stroke-width="1.7627"/>
<rect x="487.844" y="398.117" width="44.9488" height="44.9488" stroke="white" stroke-opacity="0.15" stroke-width="1.7627"/>
<rect x="532.793" y="398.117" width="44.9488" height="44.9488" stroke="white" stroke-opacity="0.15" stroke-width="1.7627"/>
<rect x="83.3047" y="443.066" width="44.9488" height="44.9488" stroke="white" stroke-opacity="0.15" stroke-width="1.7627"/>
<rect x="128.254" y="443.066" width="44.9488" height="44.9488" stroke="white" stroke-opacity="0.15" stroke-width="1.7627"/>
<rect x="173.201" y="443.066" width="44.9488" height="44.9488" stroke="white" stroke-opacity="0.15" stroke-width="1.7627"/>
<rect x="218.15" y="443.066" width="44.9488" height="44.9488" stroke="white" stroke-opacity="0.15" stroke-width="1.7627"/>
<rect x="263.1" y="443.066" width="44.9488" height="44.9488" stroke="white" stroke-opacity="0.15" stroke-width="1.7627"/>
<rect x="308.049" y="443.066" width="44.9488" height="44.9488" stroke="white" stroke-opacity="0.15" stroke-width="1.7627"/>
<rect x="352.998" y="443.066" width="44.9488" height="44.9488" stroke="white" stroke-opacity="0.15" stroke-width="1.7627"/>
<rect x="397.945" y="443.066" width="44.9488" height="44.9488" stroke="white" stroke-opacity="0.15" stroke-width="1.7627"/>
<rect x="442.895" y="443.066" width="44.9488" height="44.9488" stroke="white" stroke-opacity="0.15" stroke-width="1.7627"/>
<rect x="487.844" y="443.066" width="44.9488" height="44.9488" stroke="white" stroke-opacity="0.15" stroke-width="1.7627"/>
<rect x="532.793" y="443.066" width="44.9488" height="44.9488" stroke="white" stroke-opacity="0.15" stroke-width="1.7627"/>
<rect x="83.3047" y="488.015" width="44.9488" height="44.9488" stroke="white" stroke-opacity="0.15" stroke-width="1.7627"/>
<rect x="128.254" y="488.015" width="44.9488" height="44.9488" stroke="white" stroke-opacity="0.15" stroke-width="1.7627"/>
<rect x="173.201" y="488.015" width="44.9488" height="44.9488" stroke="white" stroke-opacity="0.15" stroke-width="1.7627"/>
<rect x="218.15" y="488.015" width="44.9488" height="44.9488" stroke="white" stroke-opacity="0.15" stroke-width="1.7627"/>
<rect x="263.1" y="488.015" width="44.9488" height="44.9488" stroke="white" stroke-opacity="0.15" stroke-width="1.7627"/>
<rect x="308.049" y="488.015" width="44.9488" height="44.9488" stroke="white" stroke-opacity="0.15" stroke-width="1.7627"/>
<rect x="352.998" y="488.015" width="44.9488" height="44.9488" stroke="white" stroke-opacity="0.15" stroke-width="1.7627"/>
<rect x="397.945" y="488.015" width="44.9488" height="44.9488" stroke="white" stroke-opacity="0.15" stroke-width="1.7627"/>
<rect x="442.895" y="488.015" width="44.9488" height="44.9488" stroke="white" stroke-opacity="0.15" stroke-width="1.7627"/>
<rect x="487.844" y="488.015" width="44.9488" height="44.9488" stroke="white" stroke-opacity="0.15" stroke-width="1.7627"/>
<rect x="532.793" y="488.015" width="44.9488" height="44.9488" stroke="white" stroke-opacity="0.15" stroke-width="1.7627"/>
<rect x="83.3047" y="532.963" width="44.9488" height="44.9488" stroke="white" stroke-opacity="0.15" stroke-width="1.7627"/>
<rect x="128.254" y="532.963" width="44.9488" height="44.9488" stroke="white" stroke-opacity="0.15" stroke-width="1.7627"/>
<rect x="173.201" y="532.963" width="44.9488" height="44.9488" stroke="white" stroke-opacity="0.15" stroke-width="1.7627"/>
<rect x="218.15" y="532.963" width="44.9488" height="44.9488" stroke="white" stroke-opacity="0.15" stroke-width="1.7627"/>
<rect x="263.1" y="532.963" width="44.9488" height="44.9488" stroke="white" stroke-opacity="0.15" stroke-width="1.7627"/>
<rect x="308.049" y="532.963" width="44.9488" height="44.9488" stroke="white" stroke-opacity="0.15" stroke-width="1.7627"/>
<rect x="352.998" y="532.963" width="44.9488" height="44.9488" stroke="white" stroke-opacity="0.15" stroke-width="1.7627"/>
<rect x="397.945" y="532.963" width="44.9488" height="44.9488" stroke="white" stroke-opacity="0.15" stroke-width="1.7627"/>
<rect x="442.895" y="532.963" width="44.9488" height="44.9488" stroke="white" stroke-opacity="0.15" stroke-width="1.7627"/>
<rect x="487.844" y="532.963" width="44.9488" height="44.9488" stroke="white" stroke-opacity="0.15" stroke-width="1.7627"/>
<rect x="532.793" y="532.963" width="44.9488" height="44.9488" stroke="white" stroke-opacity="0.15" stroke-width="1.7627"/>
<rect x="83.3047" y="577.913" width="44.9488" height="44.9488" stroke="white" stroke-opacity="0.15" stroke-width="1.7627"/>
<rect x="128.254" y="577.913" width="44.9488" height="44.9488" stroke="white" stroke-opacity="0.15" stroke-width="1.7627"/>
<rect x="173.201" y="577.913" width="44.9488" height="44.9488" stroke="white" stroke-opacity="0.15" stroke-width="1.7627"/>
<rect x="218.15" y="577.913" width="44.9488" height="44.9488" stroke="white" stroke-opacity="0.15" stroke-width="1.7627"/>
<rect x="263.1" y="577.913" width="44.9488" height="44.9488" stroke="white" stroke-opacity="0.15" stroke-width="1.7627"/>
<rect x="308.049" y="577.913" width="44.9488" height="44.9488" stroke="white" stroke-opacity="0.15" stroke-width="1.7627"/>
<rect x="352.998" y="577.913" width="44.9488" height="44.9488" stroke="white" stroke-opacity="0.15" stroke-width="1.7627"/>
<rect x="397.945" y="577.913" width="44.9488" height="44.9488" stroke="white" stroke-opacity="0.15" stroke-width="1.7627"/>
<rect x="442.895" y="577.913" width="44.9488" height="44.9488" stroke="white" stroke-opacity="0.15" stroke-width="1.7627"/>
<rect x="487.844" y="577.913" width="44.9488" height="44.9488" stroke="white" stroke-opacity="0.15" stroke-width="1.7627"/>
<rect x="532.793" y="577.913" width="44.9488" height="44.9488" stroke="white" stroke-opacity="0.15" stroke-width="1.7627"/>
<rect x="83.3047" y="622.861" width="44.9488" height="44.9488" stroke="white" stroke-opacity="0.15" stroke-width="1.7627"/>
<rect x="128.254" y="622.861" width="44.9488" height="44.9488" stroke="white" stroke-opacity="0.15" stroke-width="1.7627"/>
<rect x="173.201" y="622.861" width="44.9488" height="44.9488" stroke="white" stroke-opacity="0.15" stroke-width="1.7627"/>
<rect x="218.15" y="622.861" width="44.9488" height="44.9488" stroke="white" stroke-opacity="0.15" stroke-width="1.7627"/>
<rect x="263.1" y="622.861" width="44.9488" height="44.9488" stroke="white" stroke-opacity="0.15" stroke-width="1.7627"/>
<rect x="308.049" y="622.861" width="44.9488" height="44.9488" stroke="white" stroke-opacity="0.15" stroke-width="1.7627"/>
<rect x="352.998" y="622.861" width="44.9488" height="44.9488" stroke="white" stroke-opacity="0.15" stroke-width="1.7627"/>
<rect x="397.945" y="622.861" width="44.9488" height="44.9488" stroke="white" stroke-opacity="0.15" stroke-width="1.7627"/>
<rect x="442.895" y="622.861" width="44.9488" height="44.9488" stroke="white" stroke-opacity="0.15" stroke-width="1.7627"/>
<rect x="487.844" y="622.861" width="44.9488" height="44.9488" stroke="white" stroke-opacity="0.15" stroke-width="1.7627"/>
<rect x="532.793" y="622.861" width="44.9488" height="44.9488" stroke="white" stroke-opacity="0.15" stroke-width="1.7627"/>
<rect x="83.3047" y="667.81" width="44.9488" height="44.9488" stroke="white" stroke-opacity="0.15" stroke-width="1.7627"/>
<rect x="128.254" y="667.81" width="44.9488" height="44.9488" stroke="white" stroke-opacity="0.15" stroke-width="1.7627"/>
<rect x="173.201" y="667.81" width="44.9488" height="44.9488" stroke="white" stroke-opacity="0.15" stroke-width="1.7627"/>
<rect x="218.15" y="667.81" width="44.9488" height="44.9488" stroke="white" stroke-opacity="0.15" stroke-width="1.7627"/>
<rect x="263.1" y="667.81" width="44.9488" height="44.9488" stroke="white" stroke-opacity="0.15" stroke-width="1.7627"/>
<rect x="308.049" y="667.81" width="44.9488" height="44.9488" stroke="white" stroke-opacity="0.15" stroke-width="1.7627"/>
<rect x="352.998" y="667.81" width="44.9488" height="44.9488" stroke="white" stroke-opacity="0.15" stroke-width="1.7627"/>
<rect x="397.945" y="667.81" width="44.9488" height="44.9488" stroke="white" stroke-opacity="0.15" stroke-width="1.7627"/>
<rect x="442.895" y="667.81" width="44.9488" height="44.9488" stroke="white" stroke-opacity="0.15" stroke-width="1.7627"/>
<rect x="487.844" y="667.81" width="44.9488" height="44.9488" stroke="white" stroke-opacity="0.15" stroke-width="1.7627"/>
<rect x="532.793" y="667.81" width="44.9488" height="44.9488" stroke="white" stroke-opacity="0.15" stroke-width="1.7627"/>
<rect x="83.3047" y="712.759" width="44.9488" height="44.9488" stroke="white" stroke-opacity="0.15" stroke-width="1.7627"/>
<rect x="128.254" y="712.759" width="44.9488" height="44.9488" stroke="white" stroke-opacity="0.15" stroke-width="1.7627"/>
<rect x="173.201" y="712.759" width="44.9488" height="44.9488" stroke="white" stroke-opacity="0.15" stroke-width="1.7627"/>
<rect x="218.15" y="712.759" width="44.9488" height="44.9488" stroke="white" stroke-opacity="0.15" stroke-width="1.7627"/>
<rect x="263.1" y="712.759" width="44.9488" height="44.9488" stroke="white" stroke-opacity="0.15" stroke-width="1.7627"/>
<rect x="308.049" y="712.759" width="44.9488" height="44.9488" stroke="white" stroke-opacity="0.15" stroke-width="1.7627"/>
<rect x="352.998" y="712.759" width="44.9488" height="44.9488" stroke="white" stroke-opacity="0.15" stroke-width="1.7627"/>
<rect x="397.945" y="712.759" width="44.9488" height="44.9488" stroke="white" stroke-opacity="0.15" stroke-width="1.7627"/>
<rect x="442.895" y="712.759" width="44.9488" height="44.9488" stroke="white" stroke-opacity="0.15" stroke-width="1.7627"/>
<rect x="487.844" y="712.759" width="44.9488" height="44.9488" stroke="white" stroke-opacity="0.15" stroke-width="1.7627"/>
<rect x="532.793" y="712.759" width="44.9488" height="44.9488" stroke="white" stroke-opacity="0.15" stroke-width="1.7627"/>
<rect x="83.3047" y="757.708" width="44.9488" height="44.9488" stroke="white" stroke-opacity="0.15" stroke-width="1.7627"/>
<rect x="128.254" y="757.708" width="44.9488" height="44.9488" stroke="white" stroke-opacity="0.15" stroke-width="1.7627"/>
<rect x="173.201" y="757.708" width="44.9488" height="44.9488" stroke="white" stroke-opacity="0.15" stroke-width="1.7627"/>
<rect x="218.15" y="757.708" width="44.9488" height="44.9488" stroke="white" stroke-opacity="0.15" stroke-width="1.7627"/>
<rect x="263.1" y="757.708" width="44.9488" height="44.9488" stroke="white" stroke-opacity="0.15" stroke-width="1.7627"/>
<rect x="308.049" y="757.708" width="44.9488" height="44.9488" stroke="white" stroke-opacity="0.15" stroke-width="1.7627"/>
<rect x="352.998" y="757.708" width="44.9488" height="44.9488" stroke="white" stroke-opacity="0.15" stroke-width="1.7627"/>
<rect x="397.945" y="757.708" width="44.9488" height="44.9488" stroke="white" stroke-opacity="0.15" stroke-width="1.7627"/>
<rect x="442.895" y="757.708" width="44.9488" height="44.9488" stroke="white" stroke-opacity="0.15" stroke-width="1.7627"/>
<rect x="487.844" y="757.708" width="44.9488" height="44.9488" stroke="white" stroke-opacity="0.15" stroke-width="1.7627"/>
<rect x="532.793" y="757.708" width="44.9488" height="44.9488" stroke="white" stroke-opacity="0.15" stroke-width="1.7627"/>
</g>
<path d="M1374.92 623L1374.92 618.438L1365.8 618.438L1365.8 623L1374.92 623ZM1365.8 674.359C1365.8 676.879 1367.84 678.922 1370.36 678.922C1372.88 678.922 1374.92 676.879 1374.92 674.359L1365.8 674.359ZM1365.8 623L1365.8 674.359L1374.92 674.359L1374.92 623L1365.8 623Z" fill="#43F07E"/>
<path d="M1318.63 623L1318.63 618.438L1309.5 618.438L1309.5 623L1318.63 623ZM1309.5 674.359C1309.5 676.879 1311.54 678.922 1314.06 678.922C1316.58 678.922 1318.63 676.879 1318.63 674.359L1309.5 674.359ZM1309.5 623L1309.5 674.359L1318.63 674.359L1318.63 623L1309.5 623Z" fill="#43F07E"/>
<path d="M1299.86 623L1299.86 618.438L1290.74 618.438L1290.74 623L1299.86 623ZM1290.74 674.359C1290.74 676.879 1292.78 678.922 1295.3 678.922C1297.82 678.922 1299.86 676.879 1299.86 674.359L1290.74 674.359ZM1290.74 623L1290.74 674.359L1299.86 674.359L1299.86 623L1290.74 623Z" fill="#43F07E"/>
<path d="M1281.09 623L1281.09 618.438L1271.97 618.438L1271.97 623L1281.09 623ZM1271.97 674.359C1271.97 676.879 1274.01 678.922 1276.53 678.922C1279.05 678.922 1281.09 676.879 1281.09 674.359L1271.97 674.359ZM1271.97 623L1271.97 674.359L1281.09 674.359L1281.09 623L1271.97 623Z" fill="#43F054" fill-opacity="0.3"/>
<path d="M1262.33 623L1262.33 618.438L1253.2 618.438L1253.2 623L1262.33 623ZM1253.2 674.359C1253.2 676.879 1255.25 678.922 1257.77 678.922C1260.29 678.922 1262.33 676.879 1262.33 674.359L1253.2 674.359ZM1253.2 623L1253.2 674.359L1262.33 674.359L1262.33 623L1253.2 623Z" fill="#43F07E"/>
<path d="M1243.56 623L1243.56 618.438L1234.44 618.438L1234.44 623L1243.56 623ZM1234.44 674.359C1234.44 676.879 1236.48 678.922 1239 678.922C1241.52 678.922 1243.56 676.879 1243.56 674.359L1234.44 674.359ZM1234.44 623L1234.44 674.359L1243.56 674.359L1243.56 623L1234.44 623Z" fill="#43F07E"/>
<path d="M1356.16 623L1356.16 618.438L1347.03 618.438L1347.03 623L1356.16 623ZM1347.03 674.359C1347.03 676.879 1349.08 678.922 1351.6 678.922C1354.12 678.922 1356.16 676.879 1356.16 674.359L1347.03 674.359ZM1347.03 623L1347.03 674.359L1356.16 674.359L1356.16 623L1347.03 623Z" fill="#43F07E"/>
<path d="M1337.39 623L1337.39 618.438L1328.27 618.438L1328.27 623L1337.39 623ZM1328.27 674.359C1328.27 676.879 1330.31 678.922 1332.83 678.922C1335.35 678.922 1337.39 676.879 1337.39 674.359L1328.27 674.359ZM1328.27 623L1328.27 674.359L1337.39 674.359L1337.39 623L1328.27 623Z" fill="#43F07E"/>
<g clip-path="url(#clip1_337_4073)">
<rect x="77" y="681" width="112.256" height="138.161" rx="5.11707" fill="#55C5BC"/>
<rect x="96.1815" y="709.457" width="74.3314" height="45.1071" stroke="white" stroke-width="1.90593"/>
<path d="M121.912 731.058L95.5469 755.199H170.514L145.101 731.058L135.571 740.27L121.912 731.058Z" fill="white"/>
<circle cx="146.053" cy="721.21" r="5.08249" fill="white"/>
<mask id="path-190-inside-1_337_4073" fill="white">
<path d="M77 783.021H189.256V819.161H77V783.021Z"/>
</mask>
<path d="M77 784.981H189.256V781.062H77V784.981Z" fill="white" mask="url(#path-190-inside-1_337_4073)"/>
<rect x="87.2344" y="791.017" width="91.7874" height="4.47743" rx="2.23872" fill="white"/>
<path d="M87.2344 802.292C87.2344 801.056 88.2367 800.053 89.4731 800.053H176.783C178.019 800.053 179.022 801.056 179.022 802.292V802.292C179.022 803.528 178.019 804.531 176.783 804.531H89.4731C88.2367 804.531 87.2344 803.528 87.2344 802.292V802.292Z" fill="white"/>
<path d="M87.2891 811.077C87.2891 809.86 88.2761 808.873 89.4938 808.873H137.507C138.725 808.873 139.712 809.86 139.712 811.077V811.077C139.712 812.295 138.725 813.282 137.507 813.282H89.4938C88.2761 813.282 87.2891 812.295 87.2891 811.077V811.077Z" fill="white"/>
</g>
<rect x="76.0201" y="680.02" width="114.215" height="140.12" rx="6.09693" stroke="white" stroke-width="1.95973"/>
<rect x="45.0605" y="141.276" width="308.94" height="251.028" rx="11.7972" fill="white"/>
<rect x="34" y="135" width="308.94" height="251.028" rx="11.7972" fill="#F5CD27"/>
<path d="M42.6266 136.475H334.314C338.263 136.475 341.465 139.677 341.465 143.627V176.658H35.4747V143.627C35.4747 139.677 38.6767 136.475 42.6266 136.475Z" stroke="white" stroke-width="2.94931"/>
<rect x="312.746" y="147.94" width="17.2532" height="17.2532" stroke="white" stroke-width="2.94931"/>
<path d="M329.707 164.901L313.039 148.232" stroke="white" stroke-width="2.94931"/>
<path d="M313.039 164.901L329.707 148.232" stroke="white" stroke-width="2.94931"/>
<circle cx="58" cy="157" r="8.5" fill="white" stroke="white" stroke-width="3"/>
<circle cx="86" cy="157" r="8.5" fill="white" stroke="white" stroke-width="3"/>
<circle cx="114" cy="157" r="8.5" fill="white" stroke="white" stroke-width="3"/>
<g clip-path="url(#clip2_337_4073)">
<mask id="path-204-inside-2_337_4073" fill="white">
<path d="M34 178.133H342.94V377.402C342.94 382.166 339.078 386.028 334.313 386.028H42.6266C37.8622 386.028 34 382.166 34 377.402V178.133Z"/>
</mask>
<path d="M34 178.133H342.94H34ZM345.889 377.402C345.889 383.795 340.707 388.978 334.313 388.978H42.6266C36.2334 388.978 31.0507 383.795 31.0507 377.402L36.9493 377.402C36.9493 380.537 39.4911 383.079 42.6266 383.079H334.313C337.449 383.079 339.991 380.537 339.991 377.402L345.889 377.402ZM42.6266 388.978C36.2334 388.978 31.0507 383.795 31.0507 377.402V178.133H36.9493V377.402C36.9493 380.537 39.4911 383.079 42.6266 383.079L42.6266 388.978ZM345.889 178.133V377.402C345.889 383.795 340.707 388.978 334.313 388.978L334.313 383.079C337.449 383.079 339.991 380.537 339.991 377.402V178.133H345.889Z" fill="white" mask="url(#path-204-inside-2_337_4073)"/>
</g>
<path d="M1314.52 224.471L1314.52 224.471C1315.35 226.248 1316.14 228.065 1316.9 229.827C1317.11 230.319 1317.33 230.807 1317.53 231.288C1317.72 231.715 1317.86 232.037 1317.96 232.256C1317.99 232.326 1318.02 232.382 1318.04 232.427C1318.07 232.475 1318.12 232.519 1318.19 232.549C1318.26 232.585 1318.31 232.58 1318.31 232.579C1318.41 232.559 1318.45 232.532 1318.46 232.516C1318.49 232.493 1318.57 232.417 1318.65 232.227L1314.52 224.471ZM1314.52 224.471C1311.36 217.787 1306.11 212.762 1299.38 209.747L1314.52 224.471ZM1328.77 215.279C1325.77 218.088 1323.42 221.383 1321.75 225.144L1337.97 209.405C1336.59 210.018 1335.36 210.618 1334.29 211.205L1334.29 211.205C1332.38 212.253 1330.55 213.622 1328.77 215.279ZM1328.77 215.279L1330.82 217.471L1328.77 215.28C1328.77 215.279 1328.77 215.279 1328.77 215.279ZM1291.25 206.132L1291.25 206.132C1293.96 207.33 1296.67 208.535 1299.38 209.747L1291.25 206.132ZM1291.25 206.132C1291.15 206.088 1291.04 205.983 1291.01 205.774C1290.99 205.675 1291 205.59 1291.02 205.531C1291.04 205.489 1291.06 205.452 1291.1 205.415C1291.11 205.407 1291.13 205.394 1291.16 205.379C1291.26 205.32 1291.42 205.238 1291.66 205.134L1290.43 202.395L1291.66 205.133C1295.16 203.571 1297.55 202.507 1298.84 201.939M1291.25 206.132L1304.05 199.089M1304.05 199.089L1304.05 199.089C1302.38 200.244 1300.61 201.162 1298.84 201.939M1304.05 199.089C1308.57 195.969 1312.01 191.888 1314.36 186.893L1314.36 186.892M1304.05 199.089L1314.36 186.892M1298.84 201.939L1297.64 199.193L1298.84 201.938C1298.84 201.939 1298.84 201.939 1298.84 201.939ZM1314.36 186.892C1314.63 186.318 1315.03 185.381 1315.55 184.131C1316.22 182.497 1316.9 180.865 1317.58 179.235L1317.58 179.234M1314.36 186.892L1317.58 179.234M1317.58 179.234C1317.64 179.1 1317.69 178.975 1317.73 178.865L1317.74 178.851C1317.79 178.734 1317.83 178.638 1317.86 178.549C1317.94 178.369 1317.98 178.27 1318.02 178.204C1318.05 178.147 1318.06 178.129 1318.06 178.126L1318.06 178.126C1318.07 178.123 1318.08 178.105 1318.12 178.063L1318.12 178.062M1317.58 179.234L1318.12 178.062M1318.12 178.062C1318.16 178.026 1318.22 177.993 1318.32 178.001C1318.41 178.008 1318.46 178.039 1318.49 178.072C1318.51 178.094 1318.53 178.132 1318.56 178.189C1318.63 178.334 1318.73 178.546 1318.85 178.839L1318.85 178.839M1318.12 178.062L1318.85 178.839M1318.85 178.839C1319.68 180.841 1320.51 182.844 1321.33 184.847L1321.33 184.847M1318.85 178.839L1321.33 184.847M1321.33 184.847C1321.81 186 1322.36 187.271 1323 188.454L1323 188.455M1321.33 184.847L1323 188.455M1323 188.455C1326.09 194.146 1330.57 198.451 1336.38 201.309L1336.38 201.31M1323 188.455L1336.38 201.31M1336.38 201.31C1336.78 201.508 1337.38 201.782 1338.15 202.122L1338.15 202.123M1336.38 201.31L1338.15 202.123M1338.15 202.123C1340.43 203.132 1342.71 204.143 1344.99 205.157L1338.15 202.123ZM1344.79 206.373L1344.79 206.372C1345.05 206.254 1345.25 206.164 1345.38 206.099C1345.41 206.083 1345.44 206.07 1345.46 206.06C1345.49 206.033 1345.52 205.991 1345.54 205.922C1345.58 205.825 1345.59 205.706 1345.57 205.593C1345.55 205.524 1345.54 205.496 1345.54 205.494L1345.54 205.493C1345.53 205.491 1345.53 205.486 1345.52 205.473C1345.48 205.437 1345.35 205.319 1344.99 205.157L1344.79 206.373ZM1344.79 206.373C1342.51 207.384 1340.24 208.394 1337.97 209.405L1344.79 206.373Z" stroke="white" stroke-width="6"/>
<path d="M1378.29 274.041L1378.29 274.041C1378.88 275.29 1379.43 276.571 1379.96 277.797C1380 277.891 1380.05 277.985 1380.09 278.079C1380.47 277.21 1380.99 276.023 1381.65 274.528C1382.86 271.802 1384.56 269.412 1386.74 267.377L1378.29 274.041ZM1378.29 274.041C1376 269.192 1372.19 265.547 1367.32 263.367L1378.29 274.041ZM1370.72 257.551L1370.72 257.551C1369.49 258.396 1368.21 259.061 1366.94 259.616L1365.74 256.87L1366.94 259.616L1370.72 257.551ZM1370.72 257.551C1373.98 255.29 1376.48 252.33 1378.19 248.715L1378.19 248.713L1370.72 257.551ZM1380.09 244.193C1380.51 245.213 1380.93 246.233 1381.35 247.253L1381.35 247.254C1381.69 248.061 1382.09 248.98 1382.55 249.845L1382.56 249.846C1384.79 253.967 1388.04 257.093 1392.25 259.162L1392.25 259.163C1392.54 259.309 1392.98 259.505 1393.51 259.742L1393.51 259.743C1394.76 260.296 1396.01 260.849 1397.26 261.404C1395.97 261.979 1394.68 262.553 1393.38 263.127L1380.09 244.193ZM1380.09 244.193C1379.73 245.046 1379.38 245.899 1379.03 246.753C1379.03 246.753 1379.03 246.754 1379.03 246.754L1376.25 245.612L1380.09 244.193ZM1390.76 264.413L1390.76 264.413C1391.53 263.989 1392.41 263.561 1393.38 263.128L1390.76 264.413ZM1390.76 264.413C1389.36 265.183 1388.02 266.182 1386.74 267.377L1390.76 264.413ZM1361.67 260.853C1361.67 260.853 1361.67 260.854 1361.67 260.854C1361.67 260.854 1361.67 260.854 1361.67 260.853L1361.67 260.853ZM1367.32 263.367C1365.85 262.709 1364.38 262.056 1362.91 261.405L1367.32 263.367Z" stroke="white" stroke-width="6"/>
<path d="M1359.04 321.426C1359.66 320.334 1360.44 319.35 1361.37 318.481L1359.04 321.426ZM1359.04 321.426C1357.85 319.329 1356.12 317.682 1354 316.566C1354.39 316.359 1354.79 316.124 1355.18 315.855L1355.18 315.855C1356.8 314.732 1358.1 313.3 1359.04 311.59C1360.23 313.737 1361.93 315.411 1364.08 316.564C1363.95 316.633 1363.82 316.703 1363.69 316.773L1363.69 316.773C1362.86 317.229 1362.09 317.81 1361.37 318.481L1359.04 321.426Z" stroke="white" stroke-width="6"/>
<path d="M578 740C578 762.644 559.644 781 537 781C514.356 781 496 762.644 496 740C496 717.356 514.356 699 537 699C559.644 699 578 717.356 578 740ZM506.998 740C506.998 756.57 520.43 770.002 537 770.002C553.57 770.002 567.002 756.57 567.002 740C567.002 723.43 553.57 709.998 537 709.998C520.43 709.998 506.998 723.43 506.998 740Z" fill="white" fill-opacity="0.23"/>
<path d="M578 740C578 748.109 575.595 756.036 571.09 762.778C566.585 769.521 560.182 774.776 552.69 777.879C545.198 780.982 536.955 781.794 529.001 780.212C521.048 778.63 513.743 774.725 508.009 768.991C502.275 763.257 498.37 755.952 496.788 747.999C495.206 740.045 496.018 731.802 499.121 724.31C502.224 716.818 507.479 710.415 514.222 705.91C520.964 701.405 528.891 699 537 699L537 709.998C531.066 709.998 525.265 711.757 520.332 715.054C515.398 718.351 511.552 723.036 509.282 728.519C507.011 734.001 506.417 740.033 507.574 745.853C508.732 751.673 511.589 757.019 515.785 761.215C519.981 765.411 525.327 768.268 531.147 769.426C536.967 770.583 542.999 769.989 548.481 767.718C553.964 765.448 558.649 761.602 561.946 756.668C565.243 751.735 567.002 745.934 567.002 740H578Z" fill="white"/>
<path d="M501.203 805.194C497.126 820.216 481.587 829.092 466.478 824.992C451.37 820.892 442.449 805.379 446.525 790.357C450.602 775.335 466.141 766.459 481.25 770.559C496.358 774.659 505.279 790.173 501.203 805.194Z" stroke="#FE741B" stroke-width="5.11888" stroke-linecap="round"/>
<path d="M461.865 798.433L468.496 806.894L488.498 793.776" stroke="#FE741B" stroke-width="5.11888" stroke-linecap="round" stroke-linejoin="round"/>
<defs>
<clipPath id="clip0_337_4073">
<rect width="456" height="673.279" fill="white" transform="translate(103 110)"/>
</clipPath>
<clipPath id="clip1_337_4073">
<rect x="77" y="681" width="112.256" height="138.161" rx="5.11707" fill="white"/>
</clipPath>
<clipPath id="clip2_337_4073">
<rect width="308.94" height="207.895" fill="white" transform="translate(34 178.133)"/>
</clipPath>
</defs>
</svg>
