<svg width="697" height="104" viewBox="0 0 697 104" fill="none" xmlns="http://www.w3.org/2000/svg">
<g filter="url(#filter0_d_508_50854)">
<path d="M43.4401 39.1431C44.9536 37.1622 47.3041 36 49.7971 36H653.593C656.299 36 658.821 37.3674 660.297 39.6346L688.948 83.6346C692.413 88.9563 688.595 96 682.244 96H16.1799C9.55467 96 5.80072 88.4077 9.82298 83.1431L43.4401 39.1431Z" fill="white" fill-opacity="0.7" shape-rendering="crispEdges"/>
<path d="M49.7971 37.5H653.593C655.792 37.5 657.841 38.611 659.04 40.4531L687.691 84.4531C690.507 88.777 687.404 94.5 682.244 94.5H16.1799C10.7969 94.5 7.74683 88.3312 11.0149 84.0538L44.6321 40.0538C45.8618 38.4443 47.7715 37.5 49.7971 37.5Z" stroke="black" stroke-width="3" shape-rendering="crispEdges"/>
</g>
<rect x="149" y="5" width="67" height="67" rx="16" fill="#82E4EA"/>
<rect x="149" y="5" width="67" height="67" rx="16" stroke="#1D1D1D" stroke-width="2"/>
<path d="M192.073 26.3899L192.073 26.3895C192.314 26.1575 192.508 25.9873 192.66 25.87C192.799 25.7624 192.869 25.7261 192.882 25.7196C192.884 25.7184 192.885 25.7182 192.883 25.7187C193.124 25.6289 193.39 25.6629 193.712 25.981C194.368 26.6281 195.021 27.2775 195.672 27.9292L195.672 27.9299C195.876 28.1334 196.025 28.3003 196.129 28.4328C196.181 28.4985 196.217 28.5505 196.241 28.5896C196.265 28.6277 196.273 28.6454 196.273 28.6448C196.347 28.8307 196.335 28.9449 196.299 29.0503C196.25 29.1903 196.132 29.3779 195.884 29.6374L195.884 29.6375C194.811 30.7587 193.735 31.8761 192.655 32.9899C191.439 31.7762 190.227 30.559 189.016 29.3385C190.039 28.3523 191.058 27.3695 192.073 26.3899Z" fill="white" stroke="#1D1D1D" stroke-width="1.9"/>
<path d="M191.015 34.3723C182.657 43.0319 174.299 51.6909 165.94 60.3493L191.015 34.3723ZM191.015 34.3723C189.889 33.2482 188.766 32.1212 187.646 30.9913C179.019 39.303 170.396 47.6191 161.777 55.9396C161.433 56.2719 161.413 56.459 161.412 56.5034C161.412 56.5445 161.424 56.7283 161.761 57.0641L161.761 57.0647C162.828 58.1292 163.894 59.1957 164.959 60.2642L164.96 60.265C165.215 60.5215 165.412 60.5787 165.508 60.5842C165.573 60.588 165.718 60.5797 165.94 60.3496L191.015 34.3723Z" fill="#1D1D1D" stroke="#1D1D1D" stroke-width="2.375"/>
<path d="M184.659 23.4934C183.942 23.2359 183.193 23.2513 182.477 23.5245C182.16 23.6455 181.843 23.7673 181.527 23.89C181.261 23.9932 180.965 23.7764 180.99 23.4895C180.993 23.4531 181.007 23.4007 181.033 23.3322C181.19 22.9218 181.299 22.6405 181.358 22.4885C181.433 22.296 181.494 22.0998 181.531 21.8982C181.633 21.3397 181.587 20.7909 181.393 20.2519C181.372 20.1924 181.331 20.0911 181.271 19.9479C181.193 19.7603 181.115 19.5725 181.038 19.3844C180.989 19.265 180.96 19.209 180.962 19.1093C180.965 18.8855 181.17 18.7126 181.39 18.7455C181.426 18.7508 181.482 18.7694 181.559 18.8013C181.788 18.8964 182.018 18.9916 182.248 19.0868C182.377 19.1405 182.512 19.1932 182.642 19.2318C183.285 19.4229 183.924 19.4103 184.559 19.1941C184.601 19.1798 184.666 19.1555 184.756 19.121C185.023 19.0177 185.29 18.9148 185.557 18.8122C185.695 18.759 185.823 18.7517 185.948 18.8326C186.083 18.9192 186.16 19.0804 186.128 19.2401C186.124 19.2612 186.109 19.305 186.083 19.3717C185.981 19.638 185.879 19.9042 185.776 20.1704C185.717 20.3255 185.669 20.4645 185.633 20.5872C185.573 20.7948 185.538 21.0258 185.53 21.2802C185.516 21.7053 185.585 22.1165 185.738 22.5138C185.906 22.9502 186.012 23.2233 186.057 23.3331C186.11 23.4624 186.104 23.5953 186.025 23.712C185.935 23.8451 185.762 23.9027 185.607 23.8592C185.6 23.8574 185.547 23.8369 185.447 23.7976C185.185 23.6946 184.924 23.5884 184.659 23.4934Z" fill="#1D1D1D"/>
<path d="M192.419 55.2862C191.556 54.9769 190.657 54.9954 189.797 55.3237C189.415 55.469 189.035 55.6154 188.654 55.7628C188.335 55.8869 187.979 55.6263 188.009 55.2816C188.013 55.2379 188.03 55.1749 188.062 55.0926C188.25 54.5994 188.38 54.2615 188.452 54.0788C188.542 53.8476 188.616 53.6118 188.66 53.3695C188.782 52.6985 188.727 52.0391 188.494 51.3915C188.468 51.32 188.419 51.1983 188.348 51.0262C188.254 50.8008 188.16 50.5751 188.068 50.3491C188.009 50.2056 187.974 50.1384 187.976 50.0185C187.98 49.7496 188.225 49.5419 188.491 49.5815C188.533 49.5878 188.601 49.6102 188.693 49.6484C188.969 49.7627 189.245 49.8771 189.521 49.9915C189.676 50.056 189.838 50.1193 189.994 50.1658C190.767 50.3954 191.535 50.3802 192.298 50.1204C192.348 50.1033 192.427 50.0741 192.534 50.0326C192.855 49.9085 193.176 49.7848 193.497 49.6615C193.663 49.5977 193.816 49.5889 193.968 49.6861C194.129 49.7901 194.222 49.9839 194.183 50.1758C194.178 50.2011 194.16 50.2538 194.13 50.3338C194.007 50.6538 193.884 50.9737 193.761 51.2935C193.689 51.4799 193.632 51.6469 193.589 51.7943C193.516 52.0437 193.475 52.3213 193.465 52.627C193.447 53.1378 193.531 53.6319 193.714 54.1093C193.916 54.6336 194.044 54.9617 194.098 55.0937C194.162 55.249 194.155 55.4087 194.06 55.5489C193.951 55.7089 193.744 55.7781 193.557 55.7259C193.549 55.7237 193.485 55.699 193.365 55.6518C193.05 55.5281 192.737 55.4004 192.419 55.2862Z" fill="#1D1D1D"/>
<path d="M169.609 21.7928C170.181 23.1583 171.2 24.2244 172.554 24.8482C172.885 25.0005 173.139 25.1164 173.316 25.1959C173.519 25.2862 173.653 25.3626 173.719 25.425C174.078 25.7616 173.971 26.354 173.518 26.5624C173.22 26.6999 172.92 26.8357 172.62 26.9698C171.198 27.6034 170.176 28.6344 169.555 30.0629C169.461 30.2794 169.368 30.4971 169.276 30.7157C169.095 31.1484 168.544 31.2745 168.195 30.9507C168.139 30.8991 168.087 30.8195 168.038 30.7119C167.85 30.2986 167.66 29.8327 167.461 29.4771C166.847 28.3804 165.966 27.5635 164.817 27.0265C164.707 26.9751 164.456 26.8618 164.063 26.6864C163.757 26.5499 163.589 26.5029 163.46 26.2593C163.312 25.9814 163.36 25.6569 163.579 25.4309C163.632 25.3756 163.715 25.3228 163.826 25.2726C164.43 25.0027 165.127 24.711 165.708 24.3025C166.598 23.677 167.286 22.7809 167.704 21.7783C167.823 21.4929 167.928 21.2492 168.041 20.9845C168.251 20.4875 168.895 20.4326 169.205 20.8715C169.236 20.916 169.271 20.9839 169.308 21.0754C169.407 21.3152 169.506 21.5457 169.609 21.7928Z" fill="#1D1D1D"/>
<path d="M202.936 38.6343C203.184 39.2269 203.626 39.6895 204.214 39.9602C204.357 40.0263 204.468 40.0766 204.545 40.1111C204.632 40.1503 204.691 40.1834 204.719 40.2105C204.875 40.3566 204.829 40.6137 204.632 40.7041C204.503 40.7638 204.373 40.8227 204.242 40.8809C203.625 41.1559 203.182 41.6033 202.912 42.2232C202.872 42.3172 202.831 42.4116 202.791 42.5065C202.713 42.6943 202.474 42.749 202.322 42.6085C202.298 42.5861 202.275 42.5515 202.254 42.5048C202.172 42.3255 202.09 42.1233 202.004 41.969C201.737 41.4931 201.355 41.1386 200.856 40.9055C200.809 40.8832 200.699 40.834 200.529 40.7579C200.396 40.6987 200.324 40.6783 200.267 40.5726C200.203 40.452 200.224 40.3112 200.319 40.2131C200.342 40.1891 200.378 40.1662 200.426 40.1444C200.688 40.0273 200.991 39.9007 201.243 39.7234C201.629 39.452 201.928 39.0631 202.109 38.628C202.161 38.5041 202.206 38.3984 202.255 38.2835C202.346 38.0678 202.626 38.044 202.76 38.2345C202.774 38.2538 202.789 38.2833 202.805 38.323C202.848 38.427 202.891 38.5271 202.936 38.6343Z" fill="#1D1D1D"/>
<rect x="232" y="5" width="67" height="67" rx="16" fill="#CA87FF"/>
<rect x="232" y="5" width="67" height="67" rx="16" stroke="#1D1D1D" stroke-width="2"/>
<g clip-path="url(#clip0_508_50854)">
<path d="M269.5 16.5H250V59.5H280.5V27L269.5 16.5Z" fill="white"/>
<path d="M268.739 15H250.52C249.133 15 248.004 16.1287 248.004 17.5162V58.4838C248.004 59.8713 249.133 61 250.52 61H279.481C280.869 61 281.998 59.8713 281.998 58.4838V27.4191C281.998 26.7472 281.736 26.1154 281.261 25.6401L270.49 15.7094C270.019 15.2516 269.398 15 268.739 15ZM278.852 57.8547H251.149V18.1453H266.198V26.5822C266.198 28.4453 267.713 29.9611 269.575 29.9611H278.852V57.8547ZM269.575 26.8158C269.447 26.8158 269.343 26.7109 269.343 26.5822V19.9603L276.675 26.8156L269.575 26.8158ZM255.735 35.5083C254.657 35.5083 253.78 36.3852 253.78 37.4628C253.78 38.5406 254.657 39.4173 255.735 39.4173C256.813 39.4173 257.689 38.5404 257.689 37.4628C257.689 36.3852 256.812 35.5083 255.735 35.5083ZM259.299 35.8904H275.969V39.0356H259.299V35.8904ZM255.735 41.7989C254.657 41.7989 253.78 42.6758 253.78 43.7534C253.78 44.8309 254.657 45.7078 255.735 45.7078C256.813 45.7078 257.689 44.8309 257.689 43.7534C257.689 42.6758 256.812 41.7989 255.735 41.7989ZM259.299 42.1807H275.969V45.326H259.299V42.1807ZM255.735 48.0894C254.657 48.0894 253.78 48.9664 253.78 50.0439C253.78 51.1215 254.657 51.9984 255.735 51.9984C256.813 51.9984 257.689 51.1215 257.689 50.0439C257.689 48.9664 256.812 48.0894 255.735 48.0894ZM259.299 48.4713H275.969V51.6166H259.299V48.4713Z" fill="#1D1D1D"/>
</g>
<rect x="315" y="5" width="67" height="67" rx="16" fill="#FFA02E"/>
<rect x="315" y="5" width="67" height="67" rx="16" stroke="#1D1D1D" stroke-width="2"/>
<path d="M362.731 46.3441L351.15 46.4943L366.073 22.6364C366.304 22.2665 366.317 21.8001 366.105 21.4185C365.894 21.0368 365.492 20.8 365.056 20.8H334.989C334.339 20.8 333.807 21.3182 333.79 21.9684L333.547 31.1897C333.539 31.5178 333.665 31.8352 333.896 32.0678C334.128 32.3004 334.445 32.4281 334.773 32.4209L347.648 32.1411L331.028 55.118C330.764 55.4822 330.726 55.9632 330.93 56.3641C331.133 56.765 331.543 57.0186 331.993 57.0213L362.739 57.2C363.059 57.2018 363.366 57.0762 363.592 56.851C363.819 56.6258 363.946 56.3195 363.946 56V47.544C363.946 47.2231 363.818 46.9155 363.589 46.69C363.361 46.4645 363.052 46.34 362.731 46.3441Z" fill="white" stroke="black" stroke-width="2.4" stroke-linejoin="round"/>
<rect x="398" y="5" width="67" height="67" rx="16" fill="#FF92DA"/>
<rect x="398" y="5" width="67" height="67" rx="16" stroke="#1D1D1D" stroke-width="2"/>
<path d="M442.186 18.2227H421.816L420.594 19.8523L421.001 55.7041L422.223 58.9634L443.001 58.556L443.816 24.3338L443.001 20.6671L442.186 18.2227Z" fill="white"/>
<path d="M441.258 17H422.745C420.973 17 419.543 18.4366 419.543 20.2052V57.798C419.543 59.565 420.973 61 422.745 61H441.258C443.026 61 444.46 59.565 444.46 57.798V20.2052C444.46 18.4366 443.026 17 441.258 17ZM427.433 18.9465H436.572C436.803 18.9465 436.991 19.2912 436.991 19.7177C436.991 20.1442 436.803 20.4906 436.572 20.4906H427.433C427.201 20.4906 427.016 20.1442 427.016 19.7177C427.016 19.2912 427.201 18.9465 427.433 18.9465ZM432.003 57.8365C430.876 57.8365 429.959 56.9194 429.959 55.7906C429.959 54.6618 430.876 53.7479 432.003 53.7479C433.127 53.7479 434.044 54.6618 434.044 55.7906C434.044 56.9194 433.127 57.8365 432.003 57.8365ZM442.061 50.8314H421.943V22.4082H442.061V50.8314Z" fill="#1D1D1D"/>
<rect x="481" y="5" width="67" height="67" rx="16" fill="#7EE26D"/>
<rect x="481" y="5" width="67" height="67" rx="16" stroke="#1D1D1D" stroke-width="2"/>
<path d="M515 55.5005V28.0005C509.5 17.0005 495 21.5005 494 26.5005V52.5005C502.8 44.9005 512 51.3339 515 55.5005Z" fill="white" stroke="black" stroke-width="2.4" stroke-linejoin="round"/>
<path d="M514.767 55.3013V27.8013C520.267 16.8013 534.5 21.3013 535.5 26.3013V52.3013C526.7 44.7013 517.767 51.1346 514.767 55.3013Z" fill="white" stroke="black" stroke-width="2.4" stroke-linejoin="round"/>
<rect x="564" y="5" width="67" height="67" rx="16" fill="white"/>
<rect x="564" y="5" width="67" height="67" rx="16" stroke="#1D1D1D" stroke-width="2"/>
<path d="M604.809 26.8828C602.632 26.8828 600.867 25.1182 600.867 22.9414C600.867 20.7646 602.632 19 604.809 19C606.985 19 608.75 20.7646 608.75 22.9414C608.75 25.1182 606.985 26.8828 604.809 26.8828Z" fill="#9CDE0F" stroke="black" stroke-width="2" stroke-linejoin="round"/>
<path d="M582.49 43.7863C586.623 46.2031 589.101 42.6573 590.968 39.244C591.05 38.9153 591.17 38.5821 591.342 38.2455C592.787 35.4345 594.296 32.6516 595.874 29.912C592.791 28.9287 589.972 29.8268 587.756 32.9311C585.953 35.4568 581.736 33.0347 583.56 30.4795C587.85 24.471 594.248 22.9798 600.653 26.7822C600.919 26.9403 600.696 26.6747 601 27C601.097 27.038 602.233 27.7015 602.328 27.7461C602.589 27.7986 602.121 27.6028 602.392 27.7636C606.374 30.1272 610.074 29.6792 612.837 25.8086C614.641 23.2829 618.857 25.705 617.032 28.2602C613.507 33.1981 608.557 35.0776 603.349 33.4821C601.715 36.2886 600.164 39.1449 598.673 42.0314C600.876 43.1578 602.916 44.5591 604.812 46.209C604.894 46.2805 604.967 46.3546 605.035 46.4288C605.448 46.6407 605.812 46.9982 606.069 47.5283C607.343 50.1622 608.618 52.7948 609.892 55.4288C611.26 58.2575 606.857 60.3083 605.494 57.4926C604.283 54.9905 603.071 52.4852 601.859 49.9844C601.695 49.8919 601.532 49.7817 601.376 49.6446C599.177 47.7303 596.659 46.1788 593.9 45.2177C593.764 45.1705 593.64 45.1141 593.524 45.0511C590.146 49.3369 585.435 51.6973 579.793 48.4001C576.82 46.663 579.509 42.0439 582.49 43.7863Z" fill="#9CDE0F" stroke="black" stroke-width="2" stroke-linejoin="round"/>
<g clip-path="url(#clip1_508_50854)">
<rect x="66" y="5" width="67" height="67" rx="33.5" fill="#767FFF"/>
<g clip-path="url(#clip2_508_50854)">
<path fill-rule="evenodd" clip-rule="evenodd" d="M79.3369 68.2599C83.0733 79.1407 91.735 89.0365 109.179 86.1047C121.747 83.9925 125.095 75.0713 125.474 64.3677C127.671 63.6119 131.143 56.2134 126.925 53.1187C126.394 52.7294 125.738 52.7089 125.072 52.9763C124.94 51.3541 124.791 49.7306 124.643 48.1204C124.597 47.6181 124.551 47.1171 124.506 46.6178C123.437 34.8256 116.011 27.877 99.2074 29.4582C83.8195 30.9063 77.9631 36.6896 77.0087 51.2445C76.9186 52.6192 76.9044 54.1467 76.9836 55.7734C76.5891 55.6605 76.181 55.6243 75.7693 55.6956C70.482 56.6113 71.7549 66.8397 79.3369 68.2599Z" fill="white"/>
<path d="M109.179 86.1047L109.044 85.2998L109.044 85.2998L109.179 86.1047ZM79.3369 68.2599L80.1089 67.9948C80.0135 67.7169 79.776 67.5117 79.4872 67.4576L79.3369 68.2599ZM125.474 64.3677L125.208 63.5959C124.889 63.7058 124.67 64.0012 124.658 64.3388L125.474 64.3677ZM126.925 53.1187L127.408 52.4606L127.408 52.4606L126.925 53.1187ZM125.072 52.9763L124.258 53.0424C124.279 53.3008 124.422 53.5339 124.642 53.6703C124.863 53.8068 125.135 53.8304 125.375 53.7339L125.072 52.9763ZM124.643 48.1204L125.456 48.0459L125.456 48.0459L124.643 48.1204ZM124.506 46.6178L125.319 46.5441L125.319 46.5441L124.506 46.6178ZM99.2074 29.4582L99.2839 30.2708L99.2074 29.4582ZM77.0087 51.2445L77.8232 51.2979L77.8232 51.2979L77.0087 51.2445ZM76.9836 55.7734L76.759 56.5581C77.012 56.6305 77.2844 56.5765 77.4907 56.413C77.6969 56.2495 77.8116 55.9966 77.7988 55.7337L76.9836 55.7734ZM75.7693 55.6956L75.9086 56.4998L75.9086 56.4998L75.7693 55.6956ZM109.044 85.2998C100.506 86.7347 94.2071 85.0229 89.5947 81.6998C84.9615 78.3617 81.9423 73.3338 80.1089 67.9948L78.565 68.5249C80.468 74.0668 83.6478 79.4272 88.6405 83.0243C93.654 86.6363 100.408 88.4065 109.314 86.9097L109.044 85.2998ZM124.658 64.3388C124.471 69.6328 123.55 74.3662 121.21 78.0176C118.895 81.6302 115.132 84.2765 109.044 85.2998L109.314 86.9097C115.793 85.8207 119.988 82.9503 122.585 78.8983C125.156 74.8852 126.098 69.8062 126.29 64.3966L124.658 64.3388ZM126.442 53.7768C128.15 55.0294 128.397 57.2123 127.816 59.4119C127.531 60.4906 127.06 61.4997 126.543 62.272C125.999 63.0834 125.496 63.497 125.208 63.5959L125.739 65.1395C126.55 64.8605 127.305 64.0659 127.898 63.1809C128.518 62.2566 129.064 61.0809 129.394 59.8287C130.044 57.3665 129.919 54.3027 127.408 52.4606L126.442 53.7768ZM125.375 53.7339C125.855 53.5417 126.197 53.5967 126.442 53.7768L127.408 52.4606C126.592 51.8621 125.622 51.8762 124.768 52.2187L125.375 53.7339ZM123.831 48.195C123.978 49.8058 124.127 51.4251 124.258 53.0424L125.885 52.9102C125.753 51.2831 125.604 49.6554 125.456 48.0459L123.831 48.195ZM123.693 46.6915C123.739 47.1913 123.785 47.6927 123.831 48.195L125.456 48.0459C125.41 47.5435 125.364 47.0429 125.319 46.5441L123.693 46.6915ZM99.2839 30.2708C107.58 29.4902 113.407 30.8315 117.273 33.6801C121.121 36.5147 123.173 40.9502 123.693 46.6915L125.319 46.5441C124.771 40.4932 122.575 35.5582 118.242 32.3658C113.927 29.1874 107.639 27.845 99.1309 28.6456L99.2839 30.2708ZM77.8232 51.2979C78.2949 44.1039 79.9694 39.2595 83.2676 36.0185C86.5744 32.7688 91.6566 30.9886 99.2839 30.2708L99.1309 28.6456C91.3703 29.3759 85.8303 31.2114 82.1234 34.8541C78.4078 38.5055 76.6769 43.8302 76.1943 51.1911L77.8232 51.2979ZM77.7988 55.7337C77.721 54.1359 77.7352 52.6396 77.8232 51.2979L76.1943 51.1911C76.1019 52.5989 76.0877 54.1575 76.1683 55.8131L77.7988 55.7337ZM75.9086 56.4998C76.1815 56.4526 76.4644 56.4738 76.759 56.5581L77.2081 54.9887C76.7138 54.8472 76.1804 54.796 75.63 54.8914L75.9086 56.4998ZM79.4872 67.4576C76.0734 66.8182 74.0741 64.2022 73.5255 61.619C73.2508 60.3252 73.3548 59.101 73.7727 58.1838C74.1791 57.2919 74.8809 56.6778 75.9086 56.4998L75.63 54.8914C74.014 55.1713 72.8922 56.1791 72.2872 57.5069C71.6937 58.8095 71.5984 60.4028 71.9287 61.9581C72.5902 65.0731 75.0184 68.2814 79.1867 69.0621L79.4872 67.4576Z" fill="white"/>
<path d="M79.1761 51.9178V58.8055C77.9083 58.4317 75.5462 55.7428 74.5879 52.8255C69.1054 36.1363 79.0755 29.0478 84.0662 29.2258C87.0647 25.7455 91.7053 20.5376 100.868 20.0521C127.938 18.6179 129.987 47.2149 125.964 52.8255C125.495 53.4795 124.254 55.1214 123.61 55.8155V48.821L117.408 48.7007C116.412 45.3416 112.959 40.6628 109.626 38.3901C112.604 41.1535 116.462 48.7007 115.442 48.5876C111.904 47.9559 101.463 35.232 93.7257 37.1813C92.3815 36.9465 86.801 42.9024 87.4662 50.1558C86.79 49.088 85.582 44.9931 85.4612 42.5904C85.2197 43.8184 85.5151 49.1414 85.6962 50.1558L79.1761 51.9178Z" fill="white"/>
<path d="M87.4763 56.8116C85.0798 57.8098 84.6512 55.6675 86.2862 54.9865C87.9212 54.3056 89.8515 53.7333 91.1786 53.5508C92.5057 53.3683 93.9745 53.1279 96.0926 53.5627C98.086 53.972 97.4015 55.8445 95.4216 55.6288C92.6311 55.3249 90.7464 55.4496 87.4763 56.8116Z" fill="white"/>
<path d="M111.12 54.6535C108.567 55.1716 108.584 52.9894 110.325 52.636C112.067 52.2825 114.075 52.0924 115.414 52.1684C116.752 52.2444 118.24 52.2909 120.228 53.124C122.099 53.9081 121.046 55.6121 119.149 55.0204C116.476 54.1864 114.603 53.9466 111.12 54.6535Z" fill="white"/>
<path d="M116.729 59.7782C116.767 61.5805 115.45 62.8863 113.958 62.8868C112.466 62.8873 111.363 61.5823 111.325 59.78C111.287 57.9777 112.466 56.5162 113.958 56.5157C115.45 56.5152 116.691 57.9759 116.729 59.7782Z" fill="white"/>
<path d="M95.6625 60.7255C95.7005 62.5278 94.384 63.8336 92.8916 63.8341C91.3993 63.8346 90.2961 62.5295 90.2582 60.7272C90.2202 58.9249 91.3993 57.4635 92.8916 57.463C94.384 57.4625 95.6246 58.9232 95.6625 60.7255Z" fill="white"/>
<path d="M105.443 64.042C107.769 65.7958 108.904 67.8726 107.357 69.3084C106.606 70.0048 104.978 70.0048 104.396 68.8356" stroke="white" stroke-width="1.63242" stroke-linecap="round"/>
<path d="M76.2838 65.6608C76.5653 65.6388 76.7778 65.3937 76.7583 65.1133C76.7389 64.8329 76.4949 64.6234 76.2133 64.6454L76.2838 65.6608ZM74.7677 68.6429L74.4044 69.0045L74.7677 68.6429ZM77.5293 68.9352L77.8067 68.5049L76.9484 67.96L76.671 68.3903L77.5293 68.9352ZM76.2133 64.6454C73.7551 64.8377 72.9259 67.529 74.4044 69.0045L75.1309 68.2814C74.2619 67.4141 74.7054 65.7843 76.2838 65.6608L76.2133 64.6454ZM74.4044 69.0045C74.7818 69.3811 75.3387 69.6525 75.9035 69.6999C76.4865 69.7488 77.1291 69.5558 77.5293 68.9352L76.671 68.3903C76.5247 68.6173 76.2973 68.71 75.9988 68.6849C75.6821 68.6583 75.346 68.496 75.1309 68.2814L74.4044 69.0045Z" fill="white"/>
<path d="M74.89 62.5131C75.1604 62.5909 75.445 62.4348 75.5256 62.1645C75.6062 61.8942 75.4522 61.612 75.1818 61.5343L74.89 62.5131ZM72.2701 65.6055L71.8874 65.9466L72.2701 65.6055ZM74.4824 66.6851L74.9536 66.4837L74.5582 65.5482L74.087 65.7496L74.4824 66.6851ZM75.1818 61.5343C73.6776 61.1018 72.3646 61.6205 71.6688 62.581C70.9732 63.5412 70.9419 64.8907 71.8874 65.9466L72.6527 65.2644C72.0342 64.5736 72.0733 63.7548 72.4955 63.1721C72.9174 62.5897 73.7693 62.1909 74.89 62.5131L75.1818 61.5343ZM71.8874 65.9466C72.3438 66.4562 72.9122 66.6727 73.3831 66.7496C73.6185 66.788 73.8358 66.7928 74.0143 66.7806C74.1774 66.7693 74.3517 66.7409 74.4824 66.6851L74.087 65.7496C74.114 65.738 74.0748 65.7561 73.9535 65.7644C73.8477 65.7717 73.7097 65.7692 73.5576 65.7444C73.2536 65.6948 72.9184 65.561 72.6527 65.2644L71.8874 65.9466Z" fill="white"/>
<path d="M78.8074 60.5774C78.6035 62.3591 78.6035 63.4479 79.623 64.9326" stroke="white" stroke-width="1.63242" stroke-linecap="round"/>
<path d="M124.433 60.8743C124.644 59.8473 124.7 59.2137 124.178 58.3008" stroke="white" stroke-width="1.63242" stroke-linecap="round"/>
<path fill-rule="evenodd" clip-rule="evenodd" d="M80.5473 68.8112C84.0659 79.3654 92.2227 88.9641 108.65 86.1203C120.485 84.0715 123.638 75.4181 123.995 65.0359C126.064 64.3027 129.334 57.1264 125.362 54.1246C124.862 53.7469 124.244 53.7271 123.616 53.9864C123.492 52.4129 123.352 50.838 123.213 49.2762C123.17 48.789 123.126 48.303 123.084 47.8187C122.077 36.3804 115.084 29.6404 99.2595 31.1742C84.7685 32.5788 79.2535 38.1885 78.3547 52.3065C78.2698 53.64 78.2565 55.1216 78.331 56.6995C77.9596 56.5901 77.5752 56.5549 77.1875 56.6241C72.2084 57.5123 73.4071 67.4337 80.5473 68.8112Z" fill="white"/>
<path d="M108.65 86.1203L108.511 85.3161L108.511 85.3161L108.65 86.1203ZM80.5473 68.8112L81.3216 68.5531C81.2283 68.2733 80.9914 68.0656 80.7019 68.0098L80.5473 68.8112ZM123.995 65.0359L123.722 64.2665C123.406 64.3786 123.191 64.6726 123.179 65.0078L123.995 65.0359ZM125.362 54.1246L125.854 53.4734L125.854 53.4734L125.362 54.1246ZM123.616 53.9864L122.803 54.0506C122.823 54.3109 122.967 54.5456 123.19 54.6821C123.412 54.8187 123.687 54.8405 123.928 54.7408L123.616 53.9864ZM123.213 49.2762L124.026 49.2038L124.026 49.2038L123.213 49.2762ZM123.084 47.8187L122.271 47.8902L122.271 47.8903L123.084 47.8187ZM99.2595 31.1742L99.3383 31.9866L99.2595 31.1742ZM78.3547 52.3065L79.1693 52.3583L79.1693 52.3583L78.3547 52.3065ZM78.331 56.6995L78.1003 57.4825C78.3536 57.5571 78.6274 57.5046 78.8351 57.3415C79.0429 57.1784 79.1588 56.9248 79.1463 56.661L78.331 56.6995ZM77.1875 56.6241L77.3308 57.4276L77.3308 57.4276L77.1875 56.6241ZM108.511 85.3161C100.488 86.7049 94.575 85.0483 90.2443 81.8345C85.8901 78.6033 83.0483 73.7323 81.3216 68.5531L79.773 69.0694C81.5649 74.4443 84.5608 79.6497 89.2715 83.1454C94.0056 86.6586 100.384 88.3795 108.789 86.9246L108.511 85.3161ZM123.179 65.0078C123.003 70.1437 122.135 74.7335 119.934 78.272C117.758 81.7696 114.226 84.3267 108.511 85.3161L108.789 86.9246C114.909 85.8651 118.871 83.0711 121.32 79.1342C123.743 75.2383 124.63 70.3102 124.811 65.0639L123.179 65.0078ZM124.869 54.7758C126.463 55.9797 126.701 58.0903 126.153 60.2283C125.885 61.2741 125.442 62.2516 124.956 62.9986C124.442 63.7874 123.975 64.1771 123.722 64.2665L124.268 65.8052C125.05 65.5281 125.766 64.7458 126.324 63.889C126.909 62.9905 127.423 61.8488 127.734 60.6337C128.345 58.2497 128.233 55.2713 125.854 53.4734L124.869 54.7758ZM123.928 54.7408C124.363 54.5612 124.658 54.616 124.869 54.7758L125.854 53.4734C125.065 52.8778 124.126 52.893 123.305 53.232L123.928 54.7408ZM122.4 49.3486C122.539 50.9111 122.679 52.4818 122.803 54.0506L124.43 53.9222C124.306 52.3439 124.165 50.765 124.026 49.2038L122.4 49.3486ZM122.271 47.8903C122.313 48.375 122.357 48.8614 122.4 49.3486L124.026 49.2038C123.983 48.7165 123.939 48.2309 123.897 47.7471L122.271 47.8903ZM99.3383 31.9866C107.14 31.2304 112.608 32.5302 116.235 35.2821C119.847 38.0231 121.78 42.3186 122.271 47.8902L123.897 47.7471C123.381 41.8805 121.314 37.0869 117.222 33.9817C113.144 30.8875 107.204 29.5842 99.1808 30.3618L99.3383 31.9866ZM79.1693 52.3583C79.6136 45.378 81.1915 40.6834 84.2907 37.5465C87.3938 34.4055 92.1637 32.682 99.3383 31.9866L99.1808 30.3618C91.8643 31.071 86.6312 32.8546 83.1294 36.3992C79.6236 39.9477 77.9945 45.117 77.5402 52.2546L79.1693 52.3583ZM79.1463 56.661C79.0731 55.1111 79.0864 53.6597 79.1693 52.3583L77.5402 52.2546C77.4532 53.6202 77.4399 55.1321 77.5157 56.7381L79.1463 56.661ZM77.3308 57.4276C77.5757 57.3839 77.8311 57.4031 78.1003 57.4825L78.5618 55.9166C78.088 55.777 77.5747 55.7259 77.0441 55.8206L77.3308 57.4276ZM80.7019 68.0098C77.5196 67.3958 75.6395 64.879 75.122 62.3694C74.8633 61.1144 74.9615 59.9273 75.3543 59.0395C75.7363 58.1759 76.3892 57.5956 77.3308 57.4276L77.0441 55.8206C75.4963 56.0967 74.4318 57.0896 73.8614 58.3791C73.3016 59.6445 73.2122 61.1904 73.5233 62.699C74.1454 65.7165 76.4348 68.8491 80.3927 69.6126L80.7019 68.0098Z" fill="#252525"/>
<path d="M80.3975 52.9597V59.6406C79.2035 59.2781 76.9792 56.6699 76.0766 53.8401C70.9137 37.6519 80.3027 30.7762 85.0025 30.9488C87.8262 27.573 92.1964 22.5214 100.825 22.0506C126.317 20.6594 128.247 48.3979 124.458 53.8401C124.017 54.4745 122.848 56.0671 122.241 56.7404V49.9558L116.401 49.8392C115.463 46.5809 112.211 42.0425 109.072 39.8381C111.877 42.5185 115.51 49.8392 114.549 49.7295C111.218 49.1167 101.385 36.7747 94.099 38.6656C92.8332 38.4378 87.5779 44.215 88.2043 51.2506C87.5676 50.2148 86.43 46.2429 86.3163 43.9123C86.0888 45.1035 86.367 50.2666 86.5376 51.2506L80.3975 52.9597Z" fill="#252525"/>
<path d="M88.2136 57.7067C85.9568 58.6749 85.5532 56.5969 87.0929 55.9364C88.6326 55.2759 90.4504 54.7208 91.7001 54.5438C92.9499 54.3667 94.3331 54.1336 96.3277 54.5553C98.2049 54.9523 97.5603 56.7686 95.6958 56.5594C93.068 56.2646 91.2931 56.3855 88.2136 57.7067Z" fill="#252525"/>
<path d="M110.478 55.6132C108.074 56.1157 108.09 53.999 109.73 53.6561C111.369 53.3133 113.261 53.1289 114.521 53.2026C115.781 53.2763 117.183 53.3214 119.055 54.1295C120.817 54.8901 119.825 56.5429 118.039 55.969C115.522 55.1601 113.758 54.9274 110.478 55.6132Z" fill="#252525"/>
<path d="M115.761 60.5836C115.797 62.3318 114.557 63.5985 113.152 63.5989C111.747 63.5994 110.708 62.3335 110.672 60.5853C110.636 58.8371 111.747 57.4195 113.152 57.4191C114.557 57.4186 115.726 58.8354 115.761 60.5836Z" fill="#252525"/>
<path d="M95.9216 61.5026C95.9574 63.2508 94.7176 64.5174 93.3122 64.5179C91.9069 64.5183 90.868 63.2525 90.8323 61.5043C90.7966 59.7561 91.9069 58.3385 93.3122 58.338C94.7176 58.3375 95.8859 59.7544 95.9216 61.5026Z" fill="#252525"/>
<path d="M105.132 64.7197C107.323 66.4209 108.391 68.4353 106.934 69.828C106.227 70.5036 104.694 70.5036 104.146 69.3695" stroke="#252525" stroke-width="1.63242" stroke-linecap="round"/>
<path d="M77.6801 66.3055C77.9609 66.2828 78.1702 66.0368 78.1476 65.756C78.125 65.4752 77.879 65.2659 77.5981 65.2885L77.6801 66.3055ZM76.2446 69.182L75.8789 69.5377L76.2446 69.182ZM78.8735 69.4719L79.1441 69.0395L78.2794 68.4982L78.0087 68.9306L78.8735 69.4719ZM77.5981 65.2885C75.2506 65.4777 74.4843 68.1041 75.8789 69.5377L76.6102 68.8263C75.7942 67.9874 76.2264 66.4226 77.6801 66.3055L77.5981 65.2885ZM75.8789 69.5377C76.2391 69.908 76.7721 70.1763 77.3151 70.2232C77.8793 70.272 78.4941 70.0779 78.8735 69.4719L78.0087 68.9306C77.8734 69.1467 77.6689 69.2297 77.403 69.2067C77.1159 69.1819 76.808 69.0296 76.6102 68.8263L75.8789 69.5377Z" fill="#252525"/>
<path d="M76.3512 63.2512C76.6213 63.3312 76.9052 63.177 76.9852 62.9069C77.0652 62.6368 76.911 62.3529 76.6409 62.2729L76.3512 63.2512ZM73.8915 66.2363L73.5065 66.571L73.5065 66.571L73.8915 66.2363ZM75.9942 67.2967L76.4611 67.0911L76.05 66.1574L75.5831 66.3629L75.9942 67.2967ZM76.6409 62.2729C75.2047 61.8476 73.9552 62.3603 73.2972 63.2959C72.6422 64.2272 72.609 65.5388 73.5065 66.571L74.2765 65.9016C73.7009 65.2396 73.7341 64.4481 74.1317 63.8828C74.5264 63.3217 75.3156 62.9445 76.3512 63.2512L76.6409 62.2729ZM73.5065 66.571C73.9419 67.0718 74.4857 67.2857 74.9372 67.3616C75.1624 67.3995 75.3704 67.4043 75.5415 67.3922C75.6971 67.3812 75.866 67.3531 75.9942 67.2967L75.5831 66.3629C75.6136 66.3495 75.5816 66.3665 75.4694 66.3745C75.3727 66.3813 75.246 66.379 75.1064 66.3555C74.828 66.3087 74.5209 66.1828 74.2765 65.9016L73.5065 66.571Z" fill="#252525"/>
<path d="M80.0483 61.3595C79.8563 63.0877 79.8563 64.1438 80.8164 65.584" stroke="#252525" stroke-width="1.63242" stroke-linecap="round"/>
<path d="M123.014 61.6477C123.213 60.6515 123.265 60.0369 122.773 59.1514" stroke="#252525" stroke-width="1.63242" stroke-linecap="round"/>
</g>
</g>
<rect x="66" y="5" width="67" height="67" rx="33.5" stroke="#1D1D1D" stroke-width="2"/>
<g filter="url(#filter1_d_508_50854)">
<circle cx="125.5" cy="10.5" r="10" fill="#FF4141" stroke="#1D1D1D"/>
<path d="M121.721 5.649H121.221V6.149V7.661V8.161H121.721H124.11V15.9602V16.4602H124.61H126.71H127.21V15.9602V4.2002V3.7002H126.71H125.148H124.733L124.656 4.10805C124.605 4.38433 124.497 4.59967 124.341 4.77106L124.341 4.77095L124.333 4.78059C124.166 4.97329 123.957 5.13541 123.698 5.26498L123.698 5.26493L123.691 5.26832C123.44 5.39886 123.147 5.49625 122.81 5.5558C122.459 5.61773 122.096 5.649 121.721 5.649Z" fill="white" stroke="#1D1D1D"/>
</g>
<circle cx="100.5" cy="80.5" r="2" fill="#2A2A2A" stroke="#1D1D1D"/>
<defs>
<filter id="filter0_d_508_50854" x="8.16602" y="36" width="682.092" height="68" filterUnits="userSpaceOnUse" color-interpolation-filters="sRGB">
<feFlood flood-opacity="0" result="BackgroundImageFix"/>
<feColorMatrix in="SourceAlpha" type="matrix" values="0 0 0 0 0 0 0 0 0 0 0 0 0 0 0 0 0 0 127 0" result="hardAlpha"/>
<feOffset dy="8"/>
<feComposite in2="hardAlpha" operator="out"/>
<feColorMatrix type="matrix" values="0 0 0 0 0.113725 0 0 0 0 0.113725 0 0 0 0 0.113725 0 0 0 1 0"/>
<feBlend mode="normal" in2="BackgroundImageFix" result="effect1_dropShadow_508_50854"/>
<feBlend mode="normal" in="SourceGraphic" in2="effect1_dropShadow_508_50854" result="shape"/>
</filter>
<filter id="filter1_d_508_50854" x="114" y="0" width="23" height="23" filterUnits="userSpaceOnUse" color-interpolation-filters="sRGB">
<feFlood flood-opacity="0" result="BackgroundImageFix"/>
<feColorMatrix in="SourceAlpha" type="matrix" values="0 0 0 0 0 0 0 0 0 0 0 0 0 0 0 0 0 0 127 0" result="hardAlpha"/>
<feOffset dy="1"/>
<feGaussianBlur stdDeviation="0.5"/>
<feComposite in2="hardAlpha" operator="out"/>
<feColorMatrix type="matrix" values="0 0 0 0 0 0 0 0 0 0 0 0 0 0 0 0 0 0 0.25 0"/>
<feBlend mode="normal" in2="BackgroundImageFix" result="effect1_dropShadow_508_50854"/>
<feBlend mode="normal" in="SourceGraphic" in2="effect1_dropShadow_508_50854" result="shape"/>
</filter>
<clipPath id="clip0_508_50854">
<rect width="46" height="46" fill="white" transform="translate(242 15)"/>
</clipPath>
<clipPath id="clip1_508_50854">
<rect x="66" y="5" width="67" height="67" rx="33.5" fill="white"/>
</clipPath>
<clipPath id="clip2_508_50854">
<rect width="61" height="62" fill="white" transform="translate(70 11)"/>
</clipPath>
</defs>
</svg>
