<svg width="1440" height="855" viewBox="0 0 1440 855" fill="none" xmlns="http://www.w3.org/2000/svg">
<g clip-path="url(#clip0_665_80014)">
<rect x="77" y="681" width="112.256" height="138.161" rx="5.11707" fill="white"/>
<rect x="96.2285" y="709.504" width="74.2374" height="45.013" stroke="#262626" stroke-width="2"/>
<path d="M135.012 741.099L135.684 741.552L136.267 740.989L145.107 732.443L168.009 754.199H98.1198L122.006 732.327L135.012 741.099Z" stroke="#262626" stroke-width="2"/>
<circle cx="146.053" cy="721.21" r="5.08249" stroke="#262626" stroke-width="2"/>
<mask id="path-6-inside-1_665_80014" fill="white">
<path d="M77 783.021H189.256V819.161H77V783.021Z"/>
</mask>
<path d="M77 784.981H189.256V781.062H77V784.981Z" fill="#262626" mask="url(#path-6-inside-1_665_80014)"/>
<rect x="87.2344" y="791.017" width="91.7874" height="4.47743" rx="2.23872" stroke="#262626"/>
<path d="M87.2344 802.292C87.2344 801.056 88.2367 800.054 89.4731 800.054H176.783C178.019 800.054 179.022 801.056 179.022 802.292V802.292C179.022 803.529 178.019 804.531 176.783 804.531H89.4731C88.2367 804.531 87.2344 803.529 87.2344 802.292V802.292Z" stroke="#262626"/>
<path d="M87.2891 811.077C87.2891 809.859 88.2761 808.872 89.4938 808.872H137.507C138.725 808.872 139.712 809.859 139.712 811.077V811.077C139.712 812.294 138.725 813.281 137.507 813.281H89.4938C88.2761 813.281 87.2891 812.294 87.2891 811.077V811.077Z" stroke="#262626"/>
</g>
<rect x="76.0201" y="680.02" width="114.215" height="140.12" rx="6.09693" stroke="#262626" stroke-width="1.95973"/>
<rect x="45.0605" y="141.276" width="308.94" height="251.028" rx="11.7972" fill="#262626"/>
<rect x="34" y="135" width="308.94" height="251.028" rx="11.7972" fill="white"/>
<path d="M42.6266 136H334.314C338.526 136 341.94 139.415 341.94 143.627V177.133H35V143.627C35 139.415 38.4145 136 42.6266 136Z" stroke="#262626" stroke-width="2"/>
<circle cx="58" cy="157" r="9" stroke="#262626" stroke-width="2"/>
<circle cx="86" cy="157" r="9" stroke="#262626" stroke-width="2"/>
<circle cx="114" cy="157" r="9" stroke="#262626" stroke-width="2"/>
<g clip-path="url(#clip1_665_80014)">
<mask id="path-17-inside-2_665_80014" fill="white">
<path d="M34 178.133H342.94V377.402C342.94 382.166 339.078 386.028 334.313 386.028H42.6266C37.8622 386.028 34 382.166 34 377.402V178.133Z"/>
</mask>
<path d="M34 178.133H342.94H34ZM344.94 377.402C344.94 383.271 340.182 388.028 334.313 388.028H42.6266C36.7577 388.028 32 383.271 32 377.402H36C36 381.061 38.9668 384.028 42.6266 384.028H334.313C337.973 384.028 340.94 381.061 340.94 377.402H344.94ZM42.6266 388.028C36.7577 388.028 32 383.271 32 377.402V178.133H36V377.402C36 381.061 38.9668 384.028 42.6266 384.028V388.028ZM344.94 178.133V377.402C344.94 383.271 340.182 388.028 334.313 388.028V384.028C337.973 384.028 340.94 381.061 340.94 377.402V178.133H344.94Z" fill="#262626" mask="url(#path-17-inside-2_665_80014)"/>
</g>
<path d="M1236 642H1370V753.602C1370 753.602 1369.81 759.834 1366.1 764.703C1362.4 769.573 1350.57 776 1350.57 776H1236V642Z" fill="white"/>
<path d="M1370 753.602V642H1236V776H1350.57M1370 753.602C1363.77 758.666 1357.92 759.25 1350.57 757.497C1354.03 765.872 1353.44 767.82 1350.57 776M1370 753.602C1370 753.602 1369.81 759.834 1366.1 764.703C1362.4 769.573 1350.57 776 1350.57 776" stroke="#262626" stroke-width="2"/>
<path d="M1281.71 131.325L1281.71 131.325C1282.53 133.069 1283.3 134.846 1284.06 136.603C1284.27 137.1 1284.49 137.594 1284.7 138.086C1284.89 138.515 1285.03 138.841 1285.13 139.066C1285.18 139.179 1285.22 139.264 1285.25 139.323C1285.26 139.355 1285.27 139.373 1285.27 139.381C1285.77 140.245 1286.77 140.72 1287.69 140.543C1288.53 140.381 1289.13 139.855 1289.49 138.999L1281.71 131.325ZM1281.71 131.325C1278.76 125.087 1273.87 120.399 1267.56 117.573C1264.86 116.361 1262.15 115.158 1259.44 113.962L1259.44 113.962M1281.71 131.325L1259.44 113.962M1259.44 113.962C1257.83 113.251 1257.49 110.991 1258.84 109.859L1258.84 109.859M1259.44 113.962L1258.84 109.859M1258.84 109.859C1258.97 109.748 1259.28 109.561 1259.84 109.308L1258.84 109.859ZM1271.92 103.444L1271.92 103.444C1270.38 104.506 1268.73 105.366 1267.04 106.107C1265.74 106.678 1263.34 107.745 1259.84 109.308L1271.92 103.444ZM1271.92 103.444C1276.14 100.526 1279.35 96.7202 1281.55 92.0414L1281.55 92.041M1271.92 103.444L1281.55 92.041M1281.55 92.041C1281.8 91.5171 1282.18 90.621 1282.7 89.3698C1283.37 87.7322 1284.05 86.0965 1284.73 84.4626L1284.73 84.4624M1281.55 92.041L1284.73 84.4624M1284.73 84.4624C1284.79 84.3362 1284.83 84.2206 1284.88 84.1141C1285.22 83.2805 1285.34 83.0066 1285.73 82.6259L1285.73 82.6256M1284.73 84.4624L1285.73 82.6256M1285.73 82.6256C1286.7 81.6882 1288.32 81.8232 1289.12 82.9036C1289.23 83.0464 1289.42 83.4053 1289.69 84.0735C1290.52 86.0759 1291.35 88.079 1292.18 90.0827L1292.18 90.0828M1285.73 82.6256L1292.18 90.0828M1292.18 90.0828C1292.65 91.2195 1293.17 92.4131 1293.76 93.5015L1293.76 93.5017M1292.18 90.0828L1293.76 93.5017M1293.76 93.5017C1296.65 98.8288 1300.82 102.84 1306.26 105.515L1306.26 105.515M1293.76 93.5017L1306.26 105.515M1306.26 105.515C1306.62 105.694 1307.19 105.954 1307.96 106.293L1307.96 106.294M1306.26 105.515L1307.96 106.294M1307.96 106.294C1310.24 107.303 1312.52 108.315 1314.8 109.33M1307.96 106.294L1314.8 109.33M1315.54 113.748L1315.54 113.746C1316.35 113.207 1316.74 112.168 1316.52 111.169L1315.54 113.748ZM1315.54 113.748L1315.54 113.748C1315.53 113.748 1315.53 113.749 1315.53 113.751L1315.51 113.761C1315.5 113.769 1315.48 113.779 1315.46 113.793C1315.41 113.819 1315.34 113.853 1315.26 113.893C1315.1 113.974 1314.88 114.076 1314.6 114.2L1314.6 114.2M1315.54 113.748L1314.6 114.2M1314.6 114.2C1312.33 115.211 1310.05 116.222 1307.78 117.232C1306.44 117.829 1305.26 118.404 1304.25 118.958L1304.73 119.835M1314.6 114.2L1304.73 119.835M1304.73 119.835L1304.25 118.958C1302.51 119.913 1300.81 121.177 1299.14 122.741L1304.73 119.835ZM1314.8 109.33C1315.81 109.776 1316.33 110.309 1316.52 111.169L1314.8 109.33Z" fill="white" stroke="#262626" stroke-width="2"/>
<path d="M1345.48 180.894L1345.48 180.895C1346.06 182.111 1346.59 183.352 1347.12 184.574C1347.27 184.918 1347.42 185.26 1347.57 185.601C1347.7 185.898 1347.79 186.124 1347.86 186.279C1347.9 186.357 1347.92 186.415 1347.94 186.455C1347.95 186.465 1347.95 186.474 1347.95 186.48C1348.24 186.969 1348.81 187.225 1349.3 187.129C1349.77 187.038 1350.12 186.751 1350.33 186.238C1350.62 185.563 1351.33 183.925 1352.48 181.34C1353.58 178.859 1355.13 176.69 1357.11 174.838C1358.29 173.738 1359.49 172.843 1360.72 172.166L1361.19 173.014L1360.72 172.166C1361.43 171.776 1362.26 171.372 1363.2 170.955C1364.78 170.253 1366.35 169.551 1367.93 168.849L1367.93 168.849C1368.13 168.764 1368.27 168.695 1368.38 168.641C1368.5 168.581 1368.54 168.556 1368.54 168.56L1368.54 168.558C1368.99 168.259 1369.22 167.669 1369.09 167.087L1345.48 180.894ZM1345.48 180.894C1343.4 176.493 1339.95 173.184 1335.5 171.192L1345.48 180.894ZM1329.86 168.683L1329.86 168.683C1331.74 169.514 1333.62 170.35 1335.5 171.192L1329.86 168.683ZM1329.86 168.683C1328.94 168.278 1328.76 166.984 1329.51 166.345L1329.51 166.345M1329.86 168.683L1329.51 166.345M1329.51 166.345C1329.57 166.296 1329.75 166.181 1330.14 166.007L1329.51 166.345ZM1338.58 161.906L1338.58 161.906C1337.49 162.658 1336.33 163.264 1335.14 163.785C1334.24 164.181 1332.57 164.921 1330.14 166.007L1338.58 161.906ZM1338.58 161.906C1341.55 159.848 1343.82 157.162 1345.38 153.863L1345.38 153.863L1338.58 161.906ZM1347.59 148.585L1347.59 148.585C1347.12 149.72 1346.64 150.856 1346.18 151.993C1346.18 151.993 1346.18 151.993 1346.18 151.993L1345.25 151.612L1347.59 148.585ZM1347.59 148.585C1347.63 148.501 1347.66 148.424 1347.69 148.354C1347.93 147.759 1347.99 147.63 1348.21 147.411L1348.21 147.411M1347.59 148.585L1348.21 147.411M1348.21 147.411C1348.75 146.888 1349.66 146.964 1350.11 147.566C1350.16 147.632 1350.28 147.85 1350.47 148.314L1351.39 147.933M1348.21 147.411L1351.39 147.933M1351.39 147.933L1350.47 148.314C1351.05 149.705 1351.63 151.097 1352.2 152.489L1352.2 152.489M1351.39 147.933L1352.2 152.489M1352.2 152.489C1352.53 153.281 1352.9 154.122 1353.31 154.893L1353.31 154.893M1352.2 152.489L1353.31 154.893M1353.31 154.893C1355.35 158.65 1358.29 161.481 1362.13 163.367L1362.13 163.368M1353.31 154.893L1362.13 163.368M1362.13 163.368C1362.39 163.495 1362.79 163.678 1363.32 163.914L1363.32 163.914M1362.13 163.368L1363.32 163.914M1363.32 163.914C1364.91 164.615 1366.49 165.318 1368.08 166.023L1363.32 163.914ZM1368.08 166.023C1368.72 166.309 1368.99 166.616 1369.09 167.086L1368.08 166.023Z" fill="white" stroke="#262626" stroke-width="2"/>
<path d="M1326.68 229.139L1326.68 229.139C1326.97 229.759 1327.24 230.393 1327.51 231.009C1327.59 231.181 1327.66 231.351 1327.73 231.519L1326.68 229.139ZM1326.68 229.139C1325.58 226.814 1323.76 225.067 1321.41 224.018L1326.68 229.139ZM1318.57 222.755L1318.57 222.755C1319.52 223.173 1320.47 223.594 1321.41 224.018L1318.57 222.755ZM1318.57 222.755C1318.52 222.732 1318.47 222.68 1318.46 222.593M1318.57 222.755L1318.46 222.593M1323.04 220.21L1323.04 220.21C1322.46 220.611 1321.84 220.931 1321.23 221.201C1320.77 221.4 1319.94 221.771 1318.72 222.318L1323.04 220.21ZM1323.04 220.21C1324.61 219.125 1325.81 217.705 1326.63 215.968L1326.63 215.967M1323.04 220.21L1326.63 215.967M1326.63 215.967C1326.72 215.768 1326.86 215.441 1327.04 215.005L1326.63 215.967ZM1327.75 213.293L1327.75 213.294C1327.51 213.863 1327.27 214.433 1327.04 215.004L1327.75 213.293ZM1327.75 213.293C1327.77 213.247 1327.79 213.203 1327.8 213.164L1327.8 213.16C1327.82 213.119 1327.83 213.085 1327.85 213.054C1327.87 212.991 1327.89 212.955 1327.9 212.93C1327.91 212.908 1327.92 212.9 1327.92 212.896C1327.92 212.893 1327.93 212.885 1327.95 212.868L1327.95 212.868M1327.75 213.293L1327.95 212.868M1327.95 212.868C1327.97 212.845 1328.01 212.829 1328.06 212.833C1328.1 212.837 1328.13 212.855 1328.15 212.877C1328.16 212.885 1328.16 212.9 1328.18 212.925C1328.2 212.977 1328.24 213.052 1328.28 213.155L1328.28 213.155M1327.95 212.868L1328.28 213.155M1328.28 213.155C1328.57 213.855 1328.86 214.555 1329.15 215.255L1329.15 215.255M1328.28 213.155L1329.15 215.255M1329.15 215.255C1329.32 215.657 1329.51 216.1 1329.73 216.511L1329.73 216.511M1329.15 215.255L1329.73 216.511M1329.73 216.511C1330.8 218.491 1332.36 219.988 1334.38 220.982L1334.38 220.982M1329.73 216.511L1334.38 220.982M1334.38 220.982C1334.52 221.051 1334.73 221.146 1335 221.265L1335 221.265M1334.38 220.982L1335 221.265M1335 221.265C1335.8 221.618 1336.59 221.971 1337.39 222.326L1335 221.265ZM1337.32 222.839L1337.32 222.839C1337.41 222.797 1337.48 222.765 1337.53 222.742C1337.54 222.735 1337.55 222.73 1337.56 222.726C1337.58 222.711 1337.6 222.688 1337.61 222.654C1337.62 222.611 1337.63 222.56 1337.62 222.512C1337.61 222.484 1337.61 222.47 1337.6 222.465C1337.6 222.46 1337.6 222.455 1337.59 222.447C1337.57 222.428 1337.52 222.384 1337.39 222.326L1337.32 222.839ZM1337.32 222.839L1334.94 223.898C1334.94 223.898 1334.94 223.898 1334.94 223.898C1334.45 224.112 1334.03 224.321 1333.65 224.526L1334.1 225.337M1337.32 222.839L1334.1 225.337M1334.1 225.337L1333.65 224.526C1332.99 224.889 1332.35 225.365 1331.74 225.942L1334.1 225.337ZM1318.46 222.593C1318.45 222.513 1318.47 222.457 1318.51 222.422M1318.46 222.593L1318.51 222.422M1318.51 222.422C1318.51 222.418 1318.52 222.413 1318.54 222.405C1318.57 222.384 1318.63 222.355 1318.72 222.318L1318.51 222.422ZM1331.74 225.942C1330.69 226.919 1329.88 228.065 1329.3 229.373C1328.72 230.672 1328.35 231.501 1328.21 231.847C1328.18 231.919 1328.15 231.952 1328.13 231.966C1328.12 231.977 1328.1 231.99 1328.06 231.999C1328.04 232.001 1328.02 232.001 1327.98 231.984C1327.95 231.97 1327.93 231.948 1327.91 231.923C1327.9 231.907 1327.89 231.885 1327.88 231.858C1327.85 231.782 1327.8 231.669 1327.73 231.52L1331.74 225.942ZM1327.03 232.396C1327.02 232.378 1326.95 232.219 1326.82 231.919L1327.03 232.396Z" fill="white" stroke="#262626" stroke-width="2"/>
<mask id="path-24-outside-3_665_80014" maskUnits="userSpaceOnUse" x="1192" y="786" width="46" height="51" fill="black">
<rect fill="white" x="1192" y="786" width="46" height="51"/>
<path fill-rule="evenodd" clip-rule="evenodd" d="M1205.94 790.505C1205.94 789.122 1207.06 788 1208.44 788C1209.83 788 1210.95 789.122 1210.95 790.505V806.37C1210.95 807.292 1211.7 808.04 1212.62 808.04V808.04C1213.54 808.04 1214.29 807.292 1214.29 806.37V803.865C1214.29 802.482 1215.41 801.36 1216.79 801.36C1218.18 801.36 1219.3 802.482 1219.3 803.865V806.37C1219.3 807.292 1220.05 808.04 1220.97 808.04V808.04C1221.89 808.04 1222.64 807.292 1222.64 806.37V805.535C1222.64 804.152 1223.76 803.03 1225.14 803.03C1226.53 803.03 1227.65 804.152 1227.65 805.535V806.37C1227.65 807.292 1228.4 808.04 1229.32 808.04H1230.15C1230.62 808.04 1230.99 807.666 1230.99 807.205V807.205C1230.99 805.822 1232.11 804.7 1233.49 804.7C1234.88 804.7 1236 805.822 1236 807.205V808.04C1236 808.04 1236 808.04 1236 808.04V808.04C1236 808.04 1236 808.04 1236 808.04V819.73C1236 828.031 1229.27 834.76 1220.97 834.76C1215.8 834.76 1211.25 832.154 1208.54 828.184C1206.15 825.466 1202.43 822.524 1199.21 819.982C1198.19 819.175 1197.22 818.408 1196.36 817.701C1194.76 816.388 1194.53 813.945 1195.9 812.391C1198.25 809.718 1202.26 813.342 1204.69 815.943C1204.72 815.964 1204.74 815.986 1204.76 816.008C1205.17 816.456 1205.94 816.167 1205.94 815.555V815.555V808.04V790.505Z"/>
</mask>
<path fill-rule="evenodd" clip-rule="evenodd" d="M1205.94 790.505C1205.94 789.122 1207.06 788 1208.44 788C1209.83 788 1210.95 789.122 1210.95 790.505V806.37C1210.95 807.292 1211.7 808.04 1212.62 808.04V808.04C1213.54 808.04 1214.29 807.292 1214.29 806.37V803.865C1214.29 802.482 1215.41 801.36 1216.79 801.36C1218.18 801.36 1219.3 802.482 1219.3 803.865V806.37C1219.3 807.292 1220.05 808.04 1220.97 808.04V808.04C1221.89 808.04 1222.64 807.292 1222.64 806.37V805.535C1222.64 804.152 1223.76 803.03 1225.14 803.03C1226.53 803.03 1227.65 804.152 1227.65 805.535V806.37C1227.65 807.292 1228.4 808.04 1229.32 808.04H1230.15C1230.62 808.04 1230.99 807.666 1230.99 807.205V807.205C1230.99 805.822 1232.11 804.7 1233.49 804.7C1234.88 804.7 1236 805.822 1236 807.205V808.04C1236 808.04 1236 808.04 1236 808.04V808.04C1236 808.04 1236 808.04 1236 808.04V819.73C1236 828.031 1229.27 834.76 1220.97 834.76C1215.8 834.76 1211.25 832.154 1208.54 828.184C1206.15 825.466 1202.43 822.524 1199.21 819.982C1198.19 819.175 1197.22 818.408 1196.36 817.701C1194.76 816.388 1194.53 813.945 1195.9 812.391C1198.25 809.718 1202.26 813.342 1204.69 815.943C1204.72 815.964 1204.74 815.986 1204.76 816.008C1205.17 816.456 1205.94 816.167 1205.94 815.555V815.555V808.04V790.505Z" fill="white"/>
<path d="M1208.54 828.184L1210.19 827.058L1210.12 826.956L1210.04 826.864L1208.54 828.184ZM1199.21 819.982L1200.45 818.413L1200.45 818.413L1199.21 819.982ZM1196.36 817.701L1195.09 819.247L1195.09 819.247L1196.36 817.701ZM1195.9 812.391L1194.4 811.07L1194.4 811.07L1195.9 812.391ZM1204.69 815.943L1203.23 817.309L1203.23 817.309L1204.69 815.943ZM1204.76 816.008L1206.22 814.645L1204.76 816.008ZM1208.44 786C1205.96 786 1203.94 788.017 1203.94 790.505H1207.94C1207.94 790.226 1208.17 790 1208.44 790V786ZM1212.95 790.505C1212.95 788.017 1210.93 786 1208.44 786V790C1208.72 790 1208.95 790.226 1208.95 790.505H1212.95ZM1212.95 806.37V790.505H1208.95V806.37H1212.95ZM1212.29 803.865V806.37H1216.29V803.865H1212.29ZM1216.79 799.36C1214.31 799.36 1212.29 801.377 1212.29 803.865H1216.29C1216.29 803.586 1216.52 803.36 1216.79 803.36V799.36ZM1221.3 803.865C1221.3 801.377 1219.28 799.36 1216.79 799.36V803.36C1217.07 803.36 1217.3 803.586 1217.3 803.865H1221.3ZM1221.3 806.37V803.865H1217.3V806.37H1221.3ZM1220.64 805.535V806.37H1224.64V805.535H1220.64ZM1225.14 801.03C1222.66 801.03 1220.64 803.047 1220.64 805.535H1224.64C1224.64 805.256 1224.87 805.03 1225.14 805.03V801.03ZM1229.65 805.535C1229.65 803.047 1227.63 801.03 1225.14 801.03V805.03C1225.42 805.03 1225.65 805.256 1225.65 805.535H1229.65ZM1229.65 806.37V805.535H1225.65V806.37H1229.65ZM1230.15 806.04H1229.32V810.04H1230.15V806.04ZM1232.99 807.205C1232.99 806.926 1233.22 806.7 1233.49 806.7V802.7C1231.01 802.7 1228.99 804.717 1228.99 807.205H1232.99ZM1233.49 806.7C1233.77 806.7 1234 806.926 1234 807.205H1238C1238 804.717 1235.98 802.7 1233.49 802.7V806.7ZM1234 807.205V808.04H1238V807.205H1234ZM1238 819.73V808.04H1234V819.73H1238ZM1220.97 836.76C1230.38 836.76 1238 829.136 1238 819.73H1234C1234 826.926 1228.17 832.76 1220.97 832.76V836.76ZM1206.89 829.311C1209.95 833.803 1215.11 836.76 1220.97 836.76V832.76C1216.49 832.76 1212.54 830.504 1210.19 827.058L1206.89 829.311ZM1197.97 821.551C1201.24 824.131 1204.8 826.952 1207.04 829.505L1210.04 826.864C1207.51 823.98 1203.62 820.917 1200.45 818.413L1197.97 821.551ZM1195.09 819.247C1195.97 819.967 1196.95 820.747 1197.97 821.551L1200.45 818.413C1199.43 817.602 1198.47 816.848 1197.63 816.155L1195.09 819.247ZM1194.4 811.07C1192.26 813.496 1192.64 817.234 1195.09 819.247L1197.63 816.155C1196.88 815.541 1196.8 814.395 1197.4 813.712L1194.4 811.07ZM1206.16 814.577C1204.92 813.257 1203.13 811.503 1201.24 810.444C1200.3 809.913 1199.15 809.46 1197.93 809.453C1196.61 809.445 1195.37 809.964 1194.4 811.07L1197.4 813.712C1197.6 813.482 1197.74 813.451 1197.91 813.452C1198.18 813.454 1198.63 813.568 1199.29 813.934C1200.6 814.67 1202.04 816.028 1203.23 817.309L1206.16 814.577ZM1206.22 814.645C1206.2 814.622 1206.18 814.599 1206.16 814.577L1203.23 817.309C1203.25 817.329 1203.27 817.35 1203.29 817.371L1206.22 814.645ZM1203.94 808.04V815.555H1207.94V808.04H1203.94ZM1203.94 790.505V808.04H1207.94V790.505H1203.94ZM1203.29 817.371C1204.89 819.087 1207.94 818.067 1207.94 815.555H1203.94C1203.94 814.267 1205.46 813.825 1206.22 814.645L1203.29 817.371ZM1234 808.04C1234 809.144 1234.89 810.04 1236 810.04V806.04C1237.1 806.04 1238 806.936 1238 808.04H1234ZM1220.97 810.04C1223 810.04 1224.64 808.397 1224.64 806.37H1220.64C1220.64 806.188 1220.79 806.04 1220.97 806.04V810.04ZM1212.62 810.04C1214.65 810.04 1216.29 808.397 1216.29 806.37H1212.29C1212.29 806.188 1212.44 806.04 1212.62 806.04V810.04ZM1225.65 806.37C1225.65 808.397 1227.29 810.04 1229.32 810.04V806.04C1229.5 806.04 1229.65 806.188 1229.65 806.37H1225.65ZM1236 810.04C1234.89 810.04 1234 809.137 1234 808.04H1238C1238 806.943 1237.11 806.04 1236 806.04V810.04ZM1217.3 806.37C1217.3 808.397 1218.94 810.04 1220.97 810.04V806.04C1221.15 806.04 1221.3 806.188 1221.3 806.37H1217.3ZM1230.15 810.04C1231.72 810.04 1232.99 808.771 1232.99 807.205H1228.99C1228.99 806.562 1229.51 806.04 1230.15 806.04V810.04ZM1208.95 806.37C1208.95 808.397 1210.59 810.04 1212.62 810.04V806.04C1212.8 806.04 1212.95 806.188 1212.95 806.37H1208.95Z" fill="#262626" mask="url(#path-24-outside-3_665_80014)"/>
<defs>
<clipPath id="clip0_665_80014">
<rect x="77" y="681" width="112.256" height="138.161" rx="5.11707" fill="white"/>
</clipPath>
<clipPath id="clip1_665_80014">
<rect width="308.94" height="207.895" fill="white" transform="translate(34 178.133)"/>
</clipPath>
</defs>
</svg>
