<svg width="1440" height="855" viewBox="0 0 1440 855" fill="none" xmlns="http://www.w3.org/2000/svg">
<g clip-path="url(#clip0_337_4073)">
<rect x="83.3047" y="83.4756" width="44.9488" height="44.9488" stroke="white" stroke-opacity="0.15" stroke-width="1.7627"/>
<rect x="128.254" y="83.4756" width="44.9488" height="44.9488" stroke="white" stroke-opacity="0.15" stroke-width="1.7627"/>
<rect x="173.201" y="83.4756" width="44.9488" height="44.9488" stroke="white" stroke-opacity="0.15" stroke-width="1.7627"/>
<rect x="218.15" y="83.4756" width="44.9488" height="44.9488" stroke="white" stroke-opacity="0.15" stroke-width="1.7627"/>
<rect x="263.1" y="83.4756" width="44.9488" height="44.9488" stroke="white" stroke-opacity="0.15" stroke-width="1.7627"/>
<rect x="308.049" y="83.4756" width="44.9488" height="44.9488" stroke="white" stroke-opacity="0.15" stroke-width="1.7627"/>
<rect x="352.998" y="83.4756" width="44.9488" height="44.9488" stroke="white" stroke-opacity="0.15" stroke-width="1.7627"/>
<rect x="397.945" y="83.4756" width="44.9488" height="44.9488" stroke="white" stroke-opacity="0.15" stroke-width="1.7627"/>
<rect x="442.895" y="83.4756" width="44.9488" height="44.9488" stroke="white" stroke-opacity="0.15" stroke-width="1.7627"/>
<rect x="487.844" y="83.4756" width="44.9488" height="44.9488" stroke="white" stroke-opacity="0.15" stroke-width="1.7627"/>
<rect x="532.793" y="83.4756" width="44.9488" height="44.9488" stroke="white" stroke-opacity="0.15" stroke-width="1.7627"/>
<rect x="83.3047" y="128.424" width="44.9488" height="44.9488" stroke="white" stroke-opacity="0.15" stroke-width="1.7627"/>
<rect x="128.254" y="128.424" width="44.9488" height="44.9488" stroke="white" stroke-opacity="0.15" stroke-width="1.7627"/>
<rect x="173.201" y="128.424" width="44.9488" height="44.9488" stroke="white" stroke-opacity="0.15" stroke-width="1.7627"/>
<rect x="218.15" y="128.424" width="44.9488" height="44.9488" stroke="white" stroke-opacity="0.15" stroke-width="1.7627"/>
<rect x="263.1" y="128.424" width="44.9488" height="44.9488" stroke="white" stroke-opacity="0.15" stroke-width="1.7627"/>
<rect x="308.049" y="128.424" width="44.9488" height="44.9488" stroke="white" stroke-opacity="0.15" stroke-width="1.7627"/>
<rect x="352.998" y="128.424" width="44.9488" height="44.9488" stroke="white" stroke-opacity="0.15" stroke-width="1.7627"/>
<rect x="397.945" y="128.424" width="44.9488" height="44.9488" stroke="white" stroke-opacity="0.15" stroke-width="1.7627"/>
<rect x="442.895" y="128.424" width="44.9488" height="44.9488" stroke="white" stroke-opacity="0.15" stroke-width="1.7627"/>
<rect x="487.844" y="128.424" width="44.9488" height="44.9488" stroke="white" stroke-opacity="0.15" stroke-width="1.7627"/>
<rect x="532.793" y="128.424" width="44.9488" height="44.9488" stroke="white" stroke-opacity="0.15" stroke-width="1.7627"/>
<rect x="83.3047" y="173.373" width="44.9488" height="44.9488" stroke="white" stroke-opacity="0.15" stroke-width="1.7627"/>
<rect x="128.254" y="173.373" width="44.9488" height="44.9488" stroke="white" stroke-opacity="0.15" stroke-width="1.7627"/>
<rect x="173.201" y="173.373" width="44.9488" height="44.9488" stroke="white" stroke-opacity="0.15" stroke-width="1.7627"/>
<rect x="218.15" y="173.373" width="44.9488" height="44.9488" stroke="white" stroke-opacity="0.15" stroke-width="1.7627"/>
<rect x="263.1" y="173.373" width="44.9488" height="44.9488" stroke="white" stroke-opacity="0.15" stroke-width="1.7627"/>
<rect x="308.049" y="173.373" width="44.9488" height="44.9488" stroke="white" stroke-opacity="0.15" stroke-width="1.7627"/>
<rect x="352.998" y="173.373" width="44.9488" height="44.9488" stroke="white" stroke-opacity="0.15" stroke-width="1.7627"/>
<rect x="397.945" y="173.373" width="44.9488" height="44.9488" stroke="white" stroke-opacity="0.15" stroke-width="1.7627"/>
<rect x="442.895" y="173.373" width="44.9488" height="44.9488" stroke="white" stroke-opacity="0.15" stroke-width="1.7627"/>
<rect x="487.844" y="173.373" width="44.9488" height="44.9488" stroke="white" stroke-opacity="0.15" stroke-width="1.7627"/>
<rect x="532.793" y="173.373" width="44.9488" height="44.9488" stroke="white" stroke-opacity="0.15" stroke-width="1.7627"/>
<rect x="83.3047" y="218.322" width="44.9488" height="44.9488" stroke="white" stroke-opacity="0.15" stroke-width="1.7627"/>
<rect x="128.254" y="218.322" width="44.9488" height="44.9488" stroke="white" stroke-opacity="0.15" stroke-width="1.7627"/>
<rect x="173.201" y="218.322" width="44.9488" height="44.9488" stroke="white" stroke-opacity="0.15" stroke-width="1.7627"/>
<rect x="218.15" y="218.322" width="44.9488" height="44.9488" stroke="white" stroke-opacity="0.15" stroke-width="1.7627"/>
<rect x="263.1" y="218.322" width="44.9488" height="44.9488" stroke="white" stroke-opacity="0.15" stroke-width="1.7627"/>
<rect x="308.049" y="218.322" width="44.9488" height="44.9488" stroke="white" stroke-opacity="0.15" stroke-width="1.7627"/>
<rect x="352.998" y="218.322" width="44.9488" height="44.9488" stroke="white" stroke-opacity="0.15" stroke-width="1.7627"/>
<rect x="397.945" y="218.322" width="44.9488" height="44.9488" stroke="white" stroke-opacity="0.15" stroke-width="1.7627"/>
<rect x="442.895" y="218.322" width="44.9488" height="44.9488" stroke="white" stroke-opacity="0.15" stroke-width="1.7627"/>
<rect x="487.844" y="218.322" width="44.9488" height="44.9488" stroke="white" stroke-opacity="0.15" stroke-width="1.7627"/>
<rect x="532.793" y="218.322" width="44.9488" height="44.9488" stroke="white" stroke-opacity="0.15" stroke-width="1.7627"/>
<rect x="83.3047" y="263.271" width="44.9488" height="44.9488" stroke="white" stroke-opacity="0.15" stroke-width="1.7627"/>
<rect x="128.254" y="263.271" width="44.9488" height="44.9488" stroke="white" stroke-opacity="0.15" stroke-width="1.7627"/>
<rect x="173.201" y="263.271" width="44.9488" height="44.9488" stroke="white" stroke-opacity="0.15" stroke-width="1.7627"/>
<rect x="218.15" y="263.271" width="44.9488" height="44.9488" stroke="white" stroke-opacity="0.15" stroke-width="1.7627"/>
<rect x="263.1" y="263.271" width="44.9488" height="44.9488" stroke="white" stroke-opacity="0.15" stroke-width="1.7627"/>
<rect x="308.049" y="263.271" width="44.9488" height="44.9488" stroke="white" stroke-opacity="0.15" stroke-width="1.7627"/>
<rect x="352.998" y="263.271" width="44.9488" height="44.9488" stroke="white" stroke-opacity="0.15" stroke-width="1.7627"/>
<rect x="397.945" y="263.271" width="44.9488" height="44.9488" stroke="white" stroke-opacity="0.15" stroke-width="1.7627"/>
<rect x="442.895" y="263.271" width="44.9488" height="44.9488" stroke="white" stroke-opacity="0.15" stroke-width="1.7627"/>
<rect x="487.844" y="263.271" width="44.9488" height="44.9488" stroke="white" stroke-opacity="0.15" stroke-width="1.7627"/>
<rect x="532.793" y="263.271" width="44.9488" height="44.9488" stroke="white" stroke-opacity="0.15" stroke-width="1.7627"/>
<rect x="83.3047" y="308.22" width="44.9488" height="44.9488" stroke="white" stroke-opacity="0.15" stroke-width="1.7627"/>
<rect x="128.254" y="308.22" width="44.9488" height="44.9488" stroke="white" stroke-opacity="0.15" stroke-width="1.7627"/>
<rect x="173.201" y="308.22" width="44.9488" height="44.9488" stroke="white" stroke-opacity="0.15" stroke-width="1.7627"/>
<rect x="218.15" y="308.22" width="44.9488" height="44.9488" stroke="white" stroke-opacity="0.15" stroke-width="1.7627"/>
<rect x="263.1" y="308.22" width="44.9488" height="44.9488" stroke="white" stroke-opacity="0.15" stroke-width="1.7627"/>
<rect x="308.049" y="308.22" width="44.9488" height="44.9488" stroke="white" stroke-opacity="0.15" stroke-width="1.7627"/>
<rect x="352.998" y="308.22" width="44.9488" height="44.9488" stroke="white" stroke-opacity="0.15" stroke-width="1.7627"/>
<rect x="397.945" y="308.22" width="44.9488" height="44.9488" stroke="white" stroke-opacity="0.15" stroke-width="1.7627"/>
<rect x="442.895" y="308.22" width="44.9488" height="44.9488" stroke="white" stroke-opacity="0.15" stroke-width="1.7627"/>
<rect x="487.844" y="308.22" width="44.9488" height="44.9488" stroke="white" stroke-opacity="0.15" stroke-width="1.7627"/>
<rect x="532.793" y="308.22" width="44.9488" height="44.9488" stroke="white" stroke-opacity="0.15" stroke-width="1.7627"/>
<rect x="83.3047" y="353.168" width="44.9488" height="44.9488" stroke="white" stroke-opacity="0.15" stroke-width="1.7627"/>
<rect x="128.254" y="353.168" width="44.9488" height="44.9488" stroke="white" stroke-opacity="0.15" stroke-width="1.7627"/>
<rect x="173.201" y="353.168" width="44.9488" height="44.9488" stroke="white" stroke-opacity="0.15" stroke-width="1.7627"/>
<rect x="218.15" y="353.168" width="44.9488" height="44.9488" stroke="white" stroke-opacity="0.15" stroke-width="1.7627"/>
<rect x="263.1" y="353.168" width="44.9488" height="44.9488" stroke="white" stroke-opacity="0.15" stroke-width="1.7627"/>
<rect x="308.049" y="353.168" width="44.9488" height="44.9488" stroke="white" stroke-opacity="0.15" stroke-width="1.7627"/>
<rect x="352.998" y="353.168" width="44.9488" height="44.9488" stroke="white" stroke-opacity="0.15" stroke-width="1.7627"/>
<rect x="397.945" y="353.168" width="44.9488" height="44.9488" stroke="white" stroke-opacity="0.15" stroke-width="1.7627"/>
<rect x="442.895" y="353.168" width="44.9488" height="44.9488" stroke="white" stroke-opacity="0.15" stroke-width="1.7627"/>
<rect x="487.844" y="353.168" width="44.9488" height="44.9488" stroke="white" stroke-opacity="0.15" stroke-width="1.7627"/>
<rect x="532.793" y="353.168" width="44.9488" height="44.9488" stroke="white" stroke-opacity="0.15" stroke-width="1.7627"/>
<rect x="83.3047" y="398.117" width="44.9488" height="44.9488" stroke="white" stroke-opacity="0.15" stroke-width="1.7627"/>
<rect x="128.254" y="398.117" width="44.9488" height="44.9488" stroke="white" stroke-opacity="0.15" stroke-width="1.7627"/>
<rect x="173.201" y="398.117" width="44.9488" height="44.9488" stroke="white" stroke-opacity="0.15" stroke-width="1.7627"/>
<rect x="218.15" y="398.117" width="44.9488" height="44.9488" stroke="white" stroke-opacity="0.15" stroke-width="1.7627"/>
<rect x="263.1" y="398.117" width="44.9488" height="44.9488" stroke="white" stroke-opacity="0.15" stroke-width="1.7627"/>
<rect x="308.049" y="398.117" width="44.9488" height="44.9488" stroke="white" stroke-opacity="0.15" stroke-width="1.7627"/>
<rect x="352.998" y="398.117" width="44.9488" height="44.9488" stroke="white" stroke-opacity="0.15" stroke-width="1.7627"/>
<rect x="397.945" y="398.117" width="44.9488" height="44.9488" stroke="white" stroke-opacity="0.15" stroke-width="1.7627"/>
<rect x="442.895" y="398.117" width="44.9488" height="44.9488" stroke="white" stroke-opacity="0.15" stroke-width="1.7627"/>
<rect x="487.844" y="398.117" width="44.9488" height="44.9488" stroke="white" stroke-opacity="0.15" stroke-width="1.7627"/>
<rect x="532.793" y="398.117" width="44.9488" height="44.9488" stroke="white" stroke-opacity="0.15" stroke-width="1.7627"/>
<rect x="83.3047" y="443.066" width="44.9488" height="44.9488" stroke="white" stroke-opacity="0.15" stroke-width="1.7627"/>
<rect x="128.254" y="443.066" width="44.9488" height="44.9488" stroke="white" stroke-opacity="0.15" stroke-width="1.7627"/>
<rect x="173.201" y="443.066" width="44.9488" height="44.9488" stroke="white" stroke-opacity="0.15" stroke-width="1.7627"/>
<rect x="218.15" y="443.066" width="44.9488" height="44.9488" stroke="white" stroke-opacity="0.15" stroke-width="1.7627"/>
<rect x="263.1" y="443.066" width="44.9488" height="44.9488" stroke="white" stroke-opacity="0.15" stroke-width="1.7627"/>
<rect x="308.049" y="443.066" width="44.9488" height="44.9488" stroke="white" stroke-opacity="0.15" stroke-width="1.7627"/>
<rect x="352.998" y="443.066" width="44.9488" height="44.9488" stroke="white" stroke-opacity="0.15" stroke-width="1.7627"/>
<rect x="397.945" y="443.066" width="44.9488" height="44.9488" stroke="white" stroke-opacity="0.15" stroke-width="1.7627"/>
<rect x="442.895" y="443.066" width="44.9488" height="44.9488" stroke="white" stroke-opacity="0.15" stroke-width="1.7627"/>
<rect x="487.844" y="443.066" width="44.9488" height="44.9488" stroke="white" stroke-opacity="0.15" stroke-width="1.7627"/>
<rect x="532.793" y="443.066" width="44.9488" height="44.9488" stroke="white" stroke-opacity="0.15" stroke-width="1.7627"/>
<rect x="83.3047" y="488.015" width="44.9488" height="44.9488" stroke="white" stroke-opacity="0.15" stroke-width="1.7627"/>
<rect x="128.254" y="488.015" width="44.9488" height="44.9488" stroke="white" stroke-opacity="0.15" stroke-width="1.7627"/>
<rect x="173.201" y="488.015" width="44.9488" height="44.9488" stroke="white" stroke-opacity="0.15" stroke-width="1.7627"/>
<rect x="218.15" y="488.015" width="44.9488" height="44.9488" stroke="white" stroke-opacity="0.15" stroke-width="1.7627"/>
<rect x="263.1" y="488.015" width="44.9488" height="44.9488" stroke="white" stroke-opacity="0.15" stroke-width="1.7627"/>
<rect x="308.049" y="488.015" width="44.9488" height="44.9488" stroke="white" stroke-opacity="0.15" stroke-width="1.7627"/>
<rect x="352.998" y="488.015" width="44.9488" height="44.9488" stroke="white" stroke-opacity="0.15" stroke-width="1.7627"/>
<rect x="397.945" y="488.015" width="44.9488" height="44.9488" stroke="white" stroke-opacity="0.15" stroke-width="1.7627"/>
<rect x="442.895" y="488.015" width="44.9488" height="44.9488" stroke="white" stroke-opacity="0.15" stroke-width="1.7627"/>
<rect x="487.844" y="488.015" width="44.9488" height="44.9488" stroke="white" stroke-opacity="0.15" stroke-width="1.7627"/>
<rect x="532.793" y="488.015" width="44.9488" height="44.9488" stroke="white" stroke-opacity="0.15" stroke-width="1.7627"/>
<rect x="83.3047" y="532.963" width="44.9488" height="44.9488" stroke="white" stroke-opacity="0.15" stroke-width="1.7627"/>
<rect x="128.254" y="532.963" width="44.9488" height="44.9488" stroke="white" stroke-opacity="0.15" stroke-width="1.7627"/>
<rect x="173.201" y="532.963" width="44.9488" height="44.9488" stroke="white" stroke-opacity="0.15" stroke-width="1.7627"/>
<rect x="218.15" y="532.963" width="44.9488" height="44.9488" stroke="white" stroke-opacity="0.15" stroke-width="1.7627"/>
<rect x="263.1" y="532.963" width="44.9488" height="44.9488" stroke="white" stroke-opacity="0.15" stroke-width="1.7627"/>
<rect x="308.049" y="532.963" width="44.9488" height="44.9488" stroke="white" stroke-opacity="0.15" stroke-width="1.7627"/>
<rect x="352.998" y="532.963" width="44.9488" height="44.9488" stroke="white" stroke-opacity="0.15" stroke-width="1.7627"/>
<rect x="397.945" y="532.963" width="44.9488" height="44.9488" stroke="white" stroke-opacity="0.15" stroke-width="1.7627"/>
<rect x="442.895" y="532.963" width="44.9488" height="44.9488" stroke="white" stroke-opacity="0.15" stroke-width="1.7627"/>
<rect x="487.844" y="532.963" width="44.9488" height="44.9488" stroke="white" stroke-opacity="0.15" stroke-width="1.7627"/>
<rect x="532.793" y="532.963" width="44.9488" height="44.9488" stroke="white" stroke-opacity="0.15" stroke-width="1.7627"/>
<rect x="83.3047" y="577.913" width="44.9488" height="44.9488" stroke="white" stroke-opacity="0.15" stroke-width="1.7627"/>
<rect x="128.254" y="577.913" width="44.9488" height="44.9488" stroke="white" stroke-opacity="0.15" stroke-width="1.7627"/>
<rect x="173.201" y="577.913" width="44.9488" height="44.9488" stroke="white" stroke-opacity="0.15" stroke-width="1.7627"/>
<rect x="218.15" y="577.913" width="44.9488" height="44.9488" stroke="white" stroke-opacity="0.15" stroke-width="1.7627"/>
<rect x="263.1" y="577.913" width="44.9488" height="44.9488" stroke="white" stroke-opacity="0.15" stroke-width="1.7627"/>
<rect x="308.049" y="577.913" width="44.9488" height="44.9488" stroke="white" stroke-opacity="0.15" stroke-width="1.7627"/>
<rect x="352.998" y="577.913" width="44.9488" height="44.9488" stroke="white" stroke-opacity="0.15" stroke-width="1.7627"/>
<rect x="397.945" y="577.913" width="44.9488" height="44.9488" stroke="white" stroke-opacity="0.15" stroke-width="1.7627"/>
<rect x="442.895" y="577.913" width="44.9488" height="44.9488" stroke="white" stroke-opacity="0.15" stroke-width="1.7627"/>
<rect x="487.844" y="577.913" width="44.9488" height="44.9488" stroke="white" stroke-opacity="0.15" stroke-width="1.7627"/>
<rect x="532.793" y="577.913" width="44.9488" height="44.9488" stroke="white" stroke-opacity="0.15" stroke-width="1.7627"/>
<rect x="83.3047" y="622.861" width="44.9488" height="44.9488" stroke="white" stroke-opacity="0.15" stroke-width="1.7627"/>
<rect x="128.254" y="622.861" width="44.9488" height="44.9488" stroke="white" stroke-opacity="0.15" stroke-width="1.7627"/>
<rect x="173.201" y="622.861" width="44.9488" height="44.9488" stroke="white" stroke-opacity="0.15" stroke-width="1.7627"/>
<rect x="218.15" y="622.861" width="44.9488" height="44.9488" stroke="white" stroke-opacity="0.15" stroke-width="1.7627"/>
<rect x="263.1" y="622.861" width="44.9488" height="44.9488" stroke="white" stroke-opacity="0.15" stroke-width="1.7627"/>
<rect x="308.049" y="622.861" width="44.9488" height="44.9488" stroke="white" stroke-opacity="0.15" stroke-width="1.7627"/>
<rect x="352.998" y="622.861" width="44.9488" height="44.9488" stroke="white" stroke-opacity="0.15" stroke-width="1.7627"/>
<rect x="397.945" y="622.861" width="44.9488" height="44.9488" stroke="white" stroke-opacity="0.15" stroke-width="1.7627"/>
<rect x="442.895" y="622.861" width="44.9488" height="44.9488" stroke="white" stroke-opacity="0.15" stroke-width="1.7627"/>
<rect x="487.844" y="622.861" width="44.9488" height="44.9488" stroke="white" stroke-opacity="0.15" stroke-width="1.7627"/>
<rect x="532.793" y="622.861" width="44.9488" height="44.9488" stroke="white" stroke-opacity="0.15" stroke-width="1.7627"/>
<rect x="83.3047" y="667.81" width="44.9488" height="44.9488" stroke="white" stroke-opacity="0.15" stroke-width="1.7627"/>
<rect x="128.254" y="667.81" width="44.9488" height="44.9488" stroke="white" stroke-opacity="0.15" stroke-width="1.7627"/>
<rect x="173.201" y="667.81" width="44.9488" height="44.9488" stroke="white" stroke-opacity="0.15" stroke-width="1.7627"/>
<rect x="218.15" y="667.81" width="44.9488" height="44.9488" stroke="white" stroke-opacity="0.15" stroke-width="1.7627"/>
<rect x="263.1" y="667.81" width="44.9488" height="44.9488" stroke="white" stroke-opacity="0.15" stroke-width="1.7627"/>
<rect x="308.049" y="667.81" width="44.9488" height="44.9488" stroke="white" stroke-opacity="0.15" stroke-width="1.7627"/>
<rect x="352.998" y="667.81" width="44.9488" height="44.9488" stroke="white" stroke-opacity="0.15" stroke-width="1.7627"/>
<rect x="397.945" y="667.81" width="44.9488" height="44.9488" stroke="white" stroke-opacity="0.15" stroke-width="1.7627"/>
<rect x="442.895" y="667.81" width="44.9488" height="44.9488" stroke="white" stroke-opacity="0.15" stroke-width="1.7627"/>
<rect x="487.844" y="667.81" width="44.9488" height="44.9488" stroke="white" stroke-opacity="0.15" stroke-width="1.7627"/>
<rect x="532.793" y="667.81" width="44.9488" height="44.9488" stroke="white" stroke-opacity="0.15" stroke-width="1.7627"/>
<rect x="83.3047" y="712.759" width="44.9488" height="44.9488" stroke="white" stroke-opacity="0.15" stroke-width="1.7627"/>
<rect x="128.254" y="712.759" width="44.9488" height="44.9488" stroke="white" stroke-opacity="0.15" stroke-width="1.7627"/>
<rect x="173.201" y="712.759" width="44.9488" height="44.9488" stroke="white" stroke-opacity="0.15" stroke-width="1.7627"/>
<rect x="218.15" y="712.759" width="44.9488" height="44.9488" stroke="white" stroke-opacity="0.15" stroke-width="1.7627"/>
<rect x="263.1" y="712.759" width="44.9488" height="44.9488" stroke="white" stroke-opacity="0.15" stroke-width="1.7627"/>
<rect x="308.049" y="712.759" width="44.9488" height="44.9488" stroke="white" stroke-opacity="0.15" stroke-width="1.7627"/>
<rect x="352.998" y="712.759" width="44.9488" height="44.9488" stroke="white" stroke-opacity="0.15" stroke-width="1.7627"/>
<rect x="397.945" y="712.759" width="44.9488" height="44.9488" stroke="white" stroke-opacity="0.15" stroke-width="1.7627"/>
<rect x="442.895" y="712.759" width="44.9488" height="44.9488" stroke="white" stroke-opacity="0.15" stroke-width="1.7627"/>
<rect x="487.844" y="712.759" width="44.9488" height="44.9488" stroke="white" stroke-opacity="0.15" stroke-width="1.7627"/>
<rect x="532.793" y="712.759" width="44.9488" height="44.9488" stroke="white" stroke-opacity="0.15" stroke-width="1.7627"/>
<rect x="83.3047" y="757.708" width="44.9488" height="44.9488" stroke="white" stroke-opacity="0.15" stroke-width="1.7627"/>
<rect x="128.254" y="757.708" width="44.9488" height="44.9488" stroke="white" stroke-opacity="0.15" stroke-width="1.7627"/>
<rect x="173.201" y="757.708" width="44.9488" height="44.9488" stroke="white" stroke-opacity="0.15" stroke-width="1.7627"/>
<rect x="218.15" y="757.708" width="44.9488" height="44.9488" stroke="white" stroke-opacity="0.15" stroke-width="1.7627"/>
<rect x="263.1" y="757.708" width="44.9488" height="44.9488" stroke="white" stroke-opacity="0.15" stroke-width="1.7627"/>
<rect x="308.049" y="757.708" width="44.9488" height="44.9488" stroke="white" stroke-opacity="0.15" stroke-width="1.7627"/>
<rect x="352.998" y="757.708" width="44.9488" height="44.9488" stroke="white" stroke-opacity="0.15" stroke-width="1.7627"/>
<rect x="397.945" y="757.708" width="44.9488" height="44.9488" stroke="white" stroke-opacity="0.15" stroke-width="1.7627"/>
<rect x="442.895" y="757.708" width="44.9488" height="44.9488" stroke="white" stroke-opacity="0.15" stroke-width="1.7627"/>
<rect x="487.844" y="757.708" width="44.9488" height="44.9488" stroke="white" stroke-opacity="0.15" stroke-width="1.7627"/>
<rect x="532.793" y="757.708" width="44.9488" height="44.9488" stroke="white" stroke-opacity="0.15" stroke-width="1.7627"/>
</g>
<path d="M1374.92 623L1374.92 618.438L1365.8 618.438L1365.8 623L1374.92 623ZM1365.8 674.359C1365.8 676.879 1367.84 678.922 1370.36 678.922C1372.88 678.922 1374.92 676.879 1374.92 674.359L1365.8 674.359ZM1365.8 623L1365.8 674.359L1374.92 674.359L1374.92 623L1365.8 623Z" fill="#43F07E"/>
<path d="M1318.63 623L1318.63 618.438L1309.5 618.438L1309.5 623L1318.63 623ZM1309.5 674.359C1309.5 676.879 1311.54 678.922 1314.06 678.922C1316.58 678.922 1318.63 676.879 1318.63 674.359L1309.5 674.359ZM1309.5 623L1309.5 674.359L1318.63 674.359L1318.63 623L1309.5 623Z" fill="#43F07E"/>
<path d="M1299.86 623L1299.86 618.438L1290.74 618.438L1290.74 623L1299.86 623ZM1290.74 674.359C1290.74 676.879 1292.78 678.922 1295.3 678.922C1297.82 678.922 1299.86 676.879 1299.86 674.359L1290.74 674.359ZM1290.74 623L1290.74 674.359L1299.86 674.359L1299.86 623L1290.74 623Z" fill="#43F07E"/>
<path d="M1281.09 623L1281.09 618.438L1271.97 618.438L1271.97 623L1281.09 623ZM1271.97 674.359C1271.97 676.879 1274.01 678.922 1276.53 678.922C1279.05 678.922 1281.09 676.879 1281.09 674.359L1271.97 674.359ZM1271.97 623L1271.97 674.359L1281.09 674.359L1281.09 623L1271.97 623Z" fill="#43F054" fill-opacity="0.3"/>
<path d="M1262.33 623L1262.33 618.438L1253.2 618.438L1253.2 623L1262.33 623ZM1253.2 674.359C1253.2 676.879 1255.25 678.922 1257.77 678.922C1260.29 678.922 1262.33 676.879 1262.33 674.359L1253.2 674.359ZM1253.2 623L1253.2 674.359L1262.33 674.359L1262.33 623L1253.2 623Z" fill="#43F07E"/>
<path d="M1243.56 623L1243.56 618.438L1234.44 618.438L1234.44 623L1243.56 623ZM1234.44 674.359C1234.44 676.879 1236.48 678.922 1239 678.922C1241.52 678.922 1243.56 676.879 1243.56 674.359L1234.44 674.359ZM1234.44 623L1234.44 674.359L1243.56 674.359L1243.56 623L1234.44 623Z" fill="#43F07E"/>
<path d="M1356.16 623L1356.16 618.438L1347.03 618.438L1347.03 623L1356.16 623ZM1347.03 674.359C1347.03 676.879 1349.08 678.922 1351.6 678.922C1354.12 678.922 1356.16 676.879 1356.16 674.359L1347.03 674.359ZM1347.03 623L1347.03 674.359L1356.16 674.359L1356.16 623L1347.03 623Z" fill="#43F07E"/>
<path d="M1337.39 623L1337.39 618.438L1328.27 618.438L1328.27 623L1337.39 623ZM1328.27 674.359C1328.27 676.879 1330.31 678.922 1332.83 678.922C1335.35 678.922 1337.39 676.879 1337.39 674.359L1328.27 674.359ZM1328.27 623L1328.27 674.359L1337.39 674.359L1337.39 623L1328.27 623Z" fill="#43F07E"/>
<g clip-path="url(#clip1_337_4073)">
<rect x="77" y="681" width="112.256" height="138.161" rx="5.11707" fill="#55C5BC"/>
<rect x="96.1815" y="709.457" width="74.3314" height="45.1071" stroke="white" stroke-width="1.90593"/>
<path d="M121.912 731.058L95.5469 755.199H170.514L145.101 731.058L135.571 740.27L121.912 731.058Z" fill="white"/>
<circle cx="146.053" cy="721.21" r="5.08249" fill="white"/>
<mask id="path-190-inside-1_337_4073" fill="white">
<path d="M77 783.021H189.256V819.161H77V783.021Z"/>
</mask>
<path d="M77 784.981H189.256V781.062H77V784.981Z" fill="white" mask="url(#path-190-inside-1_337_4073)"/>
<rect x="87.2344" y="791.017" width="91.7874" height="4.47743" rx="2.23872" fill="white"/>
<path d="M87.2344 802.292C87.2344 801.056 88.2367 800.053 89.4731 800.053H176.783C178.019 800.053 179.022 801.056 179.022 802.292V802.292C179.022 803.528 178.019 804.531 176.783 804.531H89.4731C88.2367 804.531 87.2344 803.528 87.2344 802.292V802.292Z" fill="white"/>
<path d="M87.2891 811.077C87.2891 809.86 88.2761 808.873 89.4938 808.873H137.507C138.725 808.873 139.712 809.86 139.712 811.077V811.077C139.712 812.295 138.725 813.282 137.507 813.282H89.4938C88.2761 813.282 87.2891 812.295 87.2891 811.077V811.077Z" fill="white"/>
</g>
<rect x="76.0201" y="680.02" width="114.215" height="140.12" rx="6.09693" stroke="white" stroke-width="1.95973"/>
<rect x="45.0605" y="141.276" width="308.94" height="251.028" rx="11.7972" fill="white"/>
<rect x="34" y="135" width="308.94" height="251.028" rx="11.7972" fill="#F5CD27"/>
<path d="M42.6266 136.475H334.314C338.263 136.475 341.465 139.677 341.465 143.627V176.658H35.4747V143.627C35.4747 139.677 38.6767 136.475 42.6266 136.475Z" stroke="white" stroke-width="2.94931"/>
<rect x="312.746" y="147.94" width="17.2532" height="17.2532" stroke="white" stroke-width="2.94931"/>
<path d="M329.707 164.901L313.039 148.232" stroke="white" stroke-width="2.94931"/>
<path d="M313.039 164.901L329.707 148.232" stroke="white" stroke-width="2.94931"/>
<circle cx="58" cy="157" r="8.5" fill="white" stroke="white" stroke-width="3"/>
<circle cx="86" cy="157" r="8.5" fill="white" stroke="white" stroke-width="3"/>
<circle cx="114" cy="157" r="8.5" fill="white" stroke="white" stroke-width="3"/>
<g clip-path="url(#clip2_337_4073)">
<mask id="path-204-inside-2_337_4073" fill="white">
<path d="M34 178.133H342.94V377.402C342.94 382.166 339.078 386.028 334.313 386.028H42.6266C37.8622 386.028 34 382.166 34 377.402V178.133Z"/>
</mask>
<path d="M34 178.133H342.94H34ZM345.889 377.402C345.889 383.795 340.707 388.978 334.313 388.978H42.6266C36.2334 388.978 31.0507 383.795 31.0507 377.402L36.9493 377.402C36.9493 380.537 39.4911 383.079 42.6266 383.079H334.313C337.449 383.079 339.991 380.537 339.991 377.402L345.889 377.402ZM42.6266 388.978C36.2334 388.978 31.0507 383.795 31.0507 377.402V178.133H36.9493V377.402C36.9493 380.537 39.4911 383.079 42.6266 383.079L42.6266 388.978ZM345.889 178.133V377.402C345.889 383.795 340.707 388.978 334.313 388.978L334.313 383.079C337.449 383.079 339.991 380.537 339.991 377.402V178.133H345.889Z" fill="white" mask="url(#path-204-inside-2_337_4073)"/>
</g>
<path d="M1311.8 225.751C1308.96 219.737 1304.25 215.218 1298.15 212.485C1295.45 211.275 1292.74 210.072 1290.04 208.877C1287.76 207.872 1287.27 204.711 1289.19 203.094C1289.44 202.889 1289.85 202.656 1290.43 202.395C1293.93 200.832 1296.33 199.764 1297.64 199.192C1299.29 198.468 1300.88 197.638 1302.35 196.621C1306.42 193.805 1309.52 190.136 1311.65 185.616C1311.88 185.116 1312.26 184.241 1312.77 182.989C1313.45 181.35 1314.13 179.712 1314.81 178.077C1315.25 177.038 1315.41 176.512 1316.04 175.907C1317.44 174.549 1319.76 174.743 1320.92 176.309C1321.11 176.559 1321.34 177.02 1321.62 177.691C1322.45 179.693 1323.28 181.697 1324.11 183.7C1324.57 184.829 1325.08 185.984 1325.64 187.025C1328.43 192.17 1332.45 196.034 1337.7 198.618C1338.05 198.787 1338.6 199.041 1339.36 199.379C1341.65 200.389 1343.93 201.401 1346.21 202.416C1347.39 202.941 1348.22 203.682 1348.5 204.957C1348.79 206.32 1348.27 207.79 1347.09 208.578C1346.94 208.682 1346.57 208.861 1346.01 209.114C1343.73 210.125 1341.46 211.136 1339.19 212.146C1337.86 212.735 1336.71 213.298 1335.73 213.835C1334.08 214.743 1332.44 215.955 1330.82 217.471C1328.11 220.004 1326 222.968 1324.5 226.362C1322.84 230.089 1321.81 232.43 1321.41 233.385C1320.94 234.509 1320.08 235.291 1318.88 235.525C1317.5 235.79 1316.08 235.078 1315.39 233.852C1315.36 233.8 1315.16 233.345 1314.78 232.486C1313.8 230.236 1312.85 227.97 1311.8 225.751Z" fill="white"/>
<path d="M1375.58 275.321C1373.61 271.143 1370.33 268.003 1366.09 266.105C1364.22 265.264 1362.34 264.428 1360.46 263.598C1358.87 262.9 1358.53 260.704 1359.87 259.58C1360.04 259.438 1360.33 259.276 1360.73 259.094C1363.16 258.008 1364.83 257.267 1365.74 256.869C1366.88 256.366 1367.99 255.789 1369.01 255.083C1371.84 253.127 1373.99 250.578 1375.47 247.437C1375.63 247.09 1375.89 246.482 1376.25 245.612C1376.72 244.474 1377.19 243.336 1377.67 242.199C1377.97 241.478 1378.08 241.113 1378.52 240.692C1379.49 239.749 1381.11 239.883 1381.91 240.971C1382.04 241.145 1382.2 241.465 1382.4 241.931C1382.97 243.323 1383.55 244.714 1384.13 246.107C1384.45 246.891 1384.8 247.693 1385.19 248.416C1387.13 251.991 1389.92 254.675 1393.57 256.47C1393.81 256.588 1394.19 256.764 1394.73 256.999C1396.31 257.701 1397.9 258.404 1399.48 259.109C1400.3 259.474 1400.88 259.989 1401.07 260.875C1401.28 261.822 1400.92 262.843 1400.1 263.39C1399.99 263.463 1399.74 263.587 1399.34 263.762C1397.76 264.465 1396.18 265.167 1394.6 265.869C1393.68 266.278 1392.88 266.669 1392.2 267.042C1391.06 267.673 1389.92 268.515 1388.79 269.568C1386.91 271.329 1385.44 273.388 1384.4 275.745C1383.25 278.335 1382.53 279.961 1382.25 280.625C1381.93 281.405 1381.33 281.949 1380.49 282.111C1379.54 282.295 1378.55 281.801 1378.07 280.949C1378.05 280.913 1377.91 280.597 1377.65 280C1376.97 278.437 1376.3 276.863 1375.58 275.321Z" fill="white"/>
<path d="M1356.77 323.566C1355.78 321.464 1354.14 319.885 1352 318.93C1351.06 318.508 1350.11 318.087 1349.17 317.67C1348.37 317.319 1348.2 316.214 1348.87 315.649C1348.96 315.577 1349.1 315.496 1349.31 315.405C1350.53 314.858 1351.37 314.485 1351.82 314.285C1352.4 314.032 1352.96 313.742 1353.47 313.387C1354.89 312.403 1355.98 311.121 1356.72 309.542C1356.8 309.367 1356.93 309.061 1357.11 308.624C1357.35 308.051 1357.59 307.479 1357.83 306.908C1357.98 306.545 1358.03 306.361 1358.25 306.15C1358.74 305.675 1359.56 305.743 1359.96 306.29C1360.03 306.377 1360.11 306.538 1360.2 306.773C1360.49 307.472 1360.78 308.172 1361.07 308.873C1361.24 309.267 1361.41 309.67 1361.61 310.034C1362.58 311.832 1363.99 313.182 1365.82 314.085C1365.94 314.144 1366.14 314.233 1366.4 314.351C1367.2 314.704 1368 315.057 1368.8 315.412C1369.21 315.596 1369.5 315.854 1369.6 316.3C1369.7 316.776 1369.52 317.29 1369.1 317.565C1369.05 317.602 1368.92 317.664 1368.73 317.752C1367.93 318.106 1367.14 318.459 1366.34 318.812C1365.88 319.018 1365.48 319.214 1365.14 319.402C1364.56 319.719 1363.99 320.143 1363.42 320.673C1362.47 321.558 1361.74 322.593 1361.21 323.779C1360.63 325.082 1360.27 325.9 1360.13 326.233C1359.97 326.626 1359.67 326.899 1359.25 326.981C1358.77 327.073 1358.27 326.825 1358.03 326.396C1358.02 326.378 1357.95 326.219 1357.82 325.919C1357.47 325.133 1357.14 324.341 1356.77 323.566Z" fill="white"/>
<path d="M578 740C578 762.644 559.644 781 537 781C514.356 781 496 762.644 496 740C496 717.356 514.356 699 537 699C559.644 699 578 717.356 578 740ZM506.998 740C506.998 756.57 520.43 770.002 537 770.002C553.57 770.002 567.002 756.57 567.002 740C567.002 723.43 553.57 709.998 537 709.998C520.43 709.998 506.998 723.43 506.998 740Z" fill="white" fill-opacity="0.23"/>
<path d="M578 740C578 748.109 575.595 756.036 571.09 762.778C566.585 769.521 560.182 774.776 552.69 777.879C545.198 780.982 536.955 781.794 529.001 780.212C521.048 778.63 513.743 774.725 508.009 768.991C502.275 763.257 498.37 755.952 496.788 747.999C495.206 740.045 496.018 731.802 499.121 724.31C502.224 716.818 507.479 710.415 514.222 705.91C520.964 701.405 528.891 699 537 699L537 709.998C531.066 709.998 525.265 711.757 520.332 715.054C515.398 718.351 511.552 723.036 509.282 728.519C507.011 734.001 506.417 740.033 507.574 745.853C508.732 751.673 511.589 757.019 515.785 761.215C519.981 765.411 525.327 768.268 531.147 769.426C536.967 770.583 542.999 769.989 548.481 767.718C553.964 765.448 558.649 761.602 561.946 756.668C565.243 751.735 567.002 745.934 567.002 740H578Z" fill="white"/>
<path d="M501.203 805.194C497.126 820.216 481.587 829.092 466.478 824.992C451.37 820.892 442.449 805.379 446.525 790.357C450.602 775.335 466.141 766.459 481.25 770.559C496.358 774.659 505.279 790.173 501.203 805.194Z" stroke="#FE741B" stroke-width="5.11888" stroke-linecap="round"/>
<path d="M461.865 798.433L468.496 806.894L488.498 793.776" stroke="#FE741B" stroke-width="5.11888" stroke-linecap="round" stroke-linejoin="round"/>
<defs>
<clipPath id="clip0_337_4073">
<rect width="456" height="673.279" fill="white" transform="translate(103 110)"/>
</clipPath>
<clipPath id="clip1_337_4073">
<rect x="77" y="681" width="112.256" height="138.161" rx="5.11707" fill="white"/>
</clipPath>
<clipPath id="clip2_337_4073">
<rect width="308.94" height="207.895" fill="white" transform="translate(34 178.133)"/>
</clipPath>
</defs>
</svg>
