<svg width="1440" height="855" viewBox="0 0 1440 855" fill="none" xmlns="http://www.w3.org/2000/svg">
<g clip-path="url(#clip0_665_80014)">
<rect x="77" y="681" width="112.256" height="138.161" rx="5.11707" fill="white"/>
<rect x="96.2285" y="709.504" width="74.2374" height="45.013" stroke="#262626" stroke-width="2"/>
<path d="M135.012 741.099L135.684 741.552L136.267 740.989L145.107 732.443L168.009 754.199H98.1198L122.006 732.327L135.012 741.099Z" stroke="#262626" stroke-width="2"/>
<circle cx="146.053" cy="721.21" r="5.08249" stroke="#262626" stroke-width="2"/>
<mask id="path-6-inside-1_665_80014" fill="white">
<path d="M77 783.021H189.256V819.161H77V783.021Z"/>
</mask>
<path d="M77 784.981H189.256V781.062H77V784.981Z" fill="#262626" mask="url(#path-6-inside-1_665_80014)"/>
<rect x="87.2344" y="791.017" width="91.7874" height="4.47743" rx="2.23872" stroke="#262626"/>
<path d="M87.2344 802.292C87.2344 801.056 88.2367 800.054 89.4731 800.054H176.783C178.019 800.054 179.022 801.056 179.022 802.292V802.292C179.022 803.529 178.019 804.531 176.783 804.531H89.4731C88.2367 804.531 87.2344 803.529 87.2344 802.292V802.292Z" stroke="#262626"/>
<path d="M87.2891 811.077C87.2891 809.859 88.2761 808.872 89.4938 808.872H137.507C138.725 808.872 139.712 809.859 139.712 811.077V811.077C139.712 812.294 138.725 813.281 137.507 813.281H89.4938C88.2761 813.281 87.2891 812.294 87.2891 811.077V811.077Z" stroke="#262626"/>
</g>
<rect x="76.0201" y="680.02" width="114.215" height="140.12" rx="6.09693" stroke="#262626" stroke-width="1.95973"/>
<rect x="45.0605" y="141.276" width="308.94" height="251.028" rx="11.7972" fill="#262626"/>
<rect x="34" y="135" width="308.94" height="251.028" rx="11.7972" fill="white"/>
<path d="M42.6266 136H334.314C338.526 136 341.94 139.415 341.94 143.627V177.133H35V143.627C35 139.415 38.4145 136 42.6266 136Z" stroke="#262626" stroke-width="2"/>
<circle cx="58" cy="157" r="9" stroke="#262626" stroke-width="2"/>
<circle cx="86" cy="157" r="9" stroke="#262626" stroke-width="2"/>
<circle cx="114" cy="157" r="9" stroke="#262626" stroke-width="2"/>
<g clip-path="url(#clip1_665_80014)">
<mask id="path-17-inside-2_665_80014" fill="white">
<path d="M34 178.133H342.94V377.402C342.94 382.166 339.078 386.028 334.313 386.028H42.6266C37.8622 386.028 34 382.166 34 377.402V178.133Z"/>
</mask>
<path d="M34 178.133H342.94H34ZM344.94 377.402C344.94 383.271 340.182 388.028 334.313 388.028H42.6266C36.7577 388.028 32 383.271 32 377.402H36C36 381.061 38.9668 384.028 42.6266 384.028H334.313C337.973 384.028 340.94 381.061 340.94 377.402H344.94ZM42.6266 388.028C36.7577 388.028 32 383.271 32 377.402V178.133H36V377.402C36 381.061 38.9668 384.028 42.6266 384.028V388.028ZM344.94 178.133V377.402C344.94 383.271 340.182 388.028 334.313 388.028V384.028C337.973 384.028 340.94 381.061 340.94 377.402V178.133H344.94Z" fill="#262626" mask="url(#path-17-inside-2_665_80014)"/>
</g>
<path d="M1236 642H1370V753.602C1370 753.602 1369.81 759.834 1366.1 764.703C1362.4 769.573 1350.57 776 1350.57 776H1236V642Z" fill="white"/>
<path d="M1370 753.602V642H1236V776H1350.57M1370 753.602C1363.77 758.666 1357.92 759.25 1350.57 757.497C1354.03 765.872 1353.44 767.82 1350.57 776M1370 753.602C1370 753.602 1369.81 759.834 1366.1 764.703C1362.4 769.573 1350.57 776 1350.57 776" stroke="#262626" stroke-width="2"/>
<defs>
<clipPath id="clip0_665_80014">
<rect x="77" y="681" width="112.256" height="138.161" rx="5.11707" fill="white"/>
</clipPath>
<clipPath id="clip1_665_80014">
<rect width="308.94" height="207.895" fill="white" transform="translate(34 178.133)"/>
</clipPath>
</defs>
</svg>
