<svg width="32" height="32" viewBox="0 0 32 32" fill="none" xmlns="http://www.w3.org/2000/svg">
<g clip-path="url(#clip0_661_33742)">
<rect width="32" height="32" rx="16" fill="white"/>
<path fill-rule="evenodd" clip-rule="evenodd" d="M7.26227 29.4971C8.79739 34.2436 12.393 38.5514 19.7055 37.0297C24.4921 36.0337 26.0752 32.342 26.4198 27.8595C26.4506 27.8574 26.482 27.8542 26.5139 27.8498C27.4222 27.7236 29.0411 24.3575 27.2146 22.9773C26.9848 22.8037 26.6989 22.8003 26.4099 22.9284C26.3559 22.0105 26.2818 21.0882 26.2014 20.1747C25.754 15.0914 22.6462 12.0961 15.6136 12.7777C9.17363 13.4019 6.72268 15.895 6.32326 22.1692C6.28567 22.7597 6.27901 23.4182 6.31061 24.1208C6.14647 24.0728 5.9767 24.0576 5.80545 24.0882C3.60116 24.4814 4.12135 28.8584 7.26227 29.4971Z" fill="white"/>
<path d="M19.7055 37.0297L19.7767 37.372L19.7767 37.372L19.7055 37.0297ZM7.26227 29.4971L7.59485 29.3895C7.55603 29.2695 7.45554 29.1797 7.33192 29.1545L7.26227 29.4971ZM26.4198 27.8595L26.3969 27.5107C26.2234 27.522 26.0846 27.6593 26.0713 27.8327L26.4198 27.8595ZM26.5139 27.8498L26.4658 27.5036L26.4658 27.5036L26.5139 27.8498ZM27.2146 22.9773L27.0039 23.2562L27.0039 23.2562L27.2146 22.9773ZM26.4099 22.9284L26.061 22.9489C26.0677 23.0634 26.1301 23.1672 26.228 23.2269C26.3259 23.2865 26.4468 23.2944 26.5516 23.2479L26.4099 22.9284ZM26.2014 20.1747L26.5496 20.1441L26.5496 20.1441L26.2014 20.1747ZM15.6136 12.7777L15.5799 12.4298L15.5799 12.4298L15.6136 12.7777ZM6.32326 22.1692L6.6721 22.1914L6.6721 22.1914L6.32326 22.1692ZM6.31061 24.1208L6.21259 24.4563C6.32088 24.4879 6.43778 24.4654 6.5265 24.3957C6.61523 24.326 6.66487 24.2178 6.6598 24.1051L6.31061 24.1208ZM5.80545 24.0882L5.74407 23.744L5.74407 23.744L5.80545 24.0882ZM19.6343 36.6875C16.0612 37.4311 13.4388 36.7456 11.525 35.3328C9.59924 33.9111 8.34921 31.722 7.59485 29.3895L6.92969 29.6046C7.71044 32.0187 9.02576 34.3567 11.1097 35.8952C13.2056 37.4424 16.0373 38.1501 19.7767 37.372L19.6343 36.6875ZM26.0713 27.8327C25.9011 30.0467 25.427 32.0242 24.4346 33.5625C23.4507 35.0877 21.9406 36.2076 19.6343 36.6875L19.7767 37.372C22.2569 36.8558 23.9316 35.6319 25.0221 33.9415C26.1041 32.2643 26.5939 30.1548 26.7683 27.8863L26.0713 27.8327ZM26.4658 27.5036C26.442 27.5069 26.4191 27.5092 26.3969 27.5107L26.4427 28.2082C26.4822 28.2057 26.522 28.2016 26.562 28.196L26.4658 27.5036ZM27.0039 23.2562C27.7428 23.8146 27.8294 24.8085 27.5533 25.7891C27.4185 26.2681 27.2046 26.7071 26.978 27.0275C26.8647 27.1878 26.7538 27.3104 26.6554 27.3927C26.5522 27.4791 26.4877 27.5005 26.4658 27.5036L26.562 28.196C26.7673 28.1675 26.952 28.0561 27.1041 27.9288C27.2609 27.7976 27.4112 27.6257 27.5488 27.4311C27.8242 27.0417 28.0712 26.5294 28.2262 25.9785C28.53 24.8995 28.5129 23.5203 27.4253 22.6985L27.0039 23.2562ZM26.5516 23.2479C26.7594 23.1558 26.9026 23.1797 27.0039 23.2562L27.4253 22.6985C27.0669 22.4277 26.6384 22.4447 26.2682 22.6088L26.5516 23.2479ZM25.8532 20.2054C25.9335 21.1173 26.0072 22.0359 26.061 22.9489L26.7588 22.9078C26.7045 21.9852 26.6301 21.0592 26.5496 20.1441L25.8532 20.2054ZM15.6473 13.1256C19.1163 12.7894 21.5503 13.3671 23.1657 14.5928C24.7749 15.8139 25.6351 17.7269 25.8532 20.2054L26.5496 20.1441C26.3204 17.5393 25.403 15.4129 23.5883 14.0359C21.7797 12.6636 19.1436 12.0844 15.5799 12.4298L15.6473 13.1256ZM6.6721 22.1914C6.86966 19.088 7.5713 16.9978 8.95188 15.6004C10.3342 14.2012 12.4577 13.4348 15.6473 13.1256L15.5799 12.4298C12.3295 12.7449 10.0076 13.537 8.45457 15.109C6.89983 16.6827 6.17628 18.9762 5.97443 22.147L6.6721 22.1914ZM6.6598 24.1051C6.62873 23.4142 6.63536 22.7684 6.6721 22.1914L5.97443 22.147C5.93597 22.751 5.92929 23.4222 5.96142 24.1365L6.6598 24.1051ZM5.86684 24.4323C5.9773 24.4126 6.09214 24.4211 6.21259 24.4563L6.40863 23.7853C6.20079 23.7246 5.9761 23.7027 5.74407 23.744L5.86684 24.4323ZM7.33192 29.1545C5.92625 28.8687 5.09727 27.7463 4.87203 26.6314C4.75942 26.0739 4.80453 25.5467 4.98068 25.1518C5.15225 24.7671 5.44498 24.5075 5.86684 24.4323L5.74407 23.744C5.06378 23.8654 4.59493 24.3004 4.34222 24.867C4.09411 25.4233 4.05227 26.104 4.18679 26.7698C4.4558 28.1013 5.45737 29.4868 7.19262 29.8396L7.33192 29.1545Z" fill="black"/>
<path d="M7.22864 22.4604V25.4295C6.69805 25.2683 5.59326 24.1405 5.30842 22.8516C3.46913 14.5289 7.18653 12.6017 9.2752 12.6785C10.5301 11.1782 12.6635 9.25391 16.5037 9.25391C27.8535 9.2539 28.4935 20.4331 26.8099 22.8516C26.6136 23.1336 26.094 23.8413 25.8245 24.1405V21.1254L23.2292 21.0736C22.8122 19.6256 22.3634 18.4574 20.9683 17.4777C22.2146 18.6689 22.8331 21.0736 22.4061 21.0248C20.9256 20.7525 16.5558 15.2676 13.3178 16.1079C12.7552 16.0067 9.95738 18.5741 10.2358 21.7008C9.95278 21.2405 9.90196 20.9713 9.85143 19.9356C9.75036 20.465 9.88158 21.2635 9.95738 21.7008L7.22864 22.4604Z" fill="black"/>
<path d="M11.2902 24.1212C10.2496 24.4501 10.1624 23.5135 10.8724 23.289C11.5823 23.0646 12.4106 22.8991 12.9711 22.8757C13.5315 22.8524 14.1535 22.81 15.017 23.0842C15.8297 23.3423 15.4648 24.1172 14.6495 23.9427C13.5003 23.6969 12.7101 23.6723 11.2902 24.1212Z" fill="black"/>
<path d="M20.2081 23.7716C19.1675 24.1005 19.0804 23.1639 19.7903 22.9394C20.5003 22.715 21.3286 22.5495 21.889 22.5261C22.4495 22.5027 23.0714 22.4604 23.935 22.7346C24.7477 22.9927 24.3828 23.7676 23.5674 23.5931C22.4183 23.3472 21.6281 23.3227 20.2081 23.7716Z" fill="black"/>
<ellipse cx="1.09221" cy="1.32692" rx="1.09221" ry="1.32692" transform="matrix(1 -0.000328012 0.0209363 0.999781 21.3242 24.1719)" fill="black"/>
<ellipse cx="1.09221" cy="1.32692" rx="1.09221" ry="1.32692" transform="matrix(1 -0.000328012 0.0209363 0.999781 12.9297 24.6973)" fill="black"/>
<path d="M18.2232 27.6875C19.1966 28.4435 19.6714 29.3387 19.024 29.9577C18.7099 30.2579 18.0285 30.2579 17.7852 29.7539" stroke="black" stroke-width="0.699087" stroke-linecap="round"/>
<path d="M6.01986 28.3827C6.14013 28.373 6.22977 28.2677 6.22008 28.1474C6.21039 28.0272 6.10504 27.9375 5.98477 27.9472L6.01986 28.3827ZM5.38256 29.6693L5.22597 29.8217L5.38256 29.6693ZM6.54389 29.7938L6.65981 29.6086L6.28946 29.3768L6.17354 29.5619L6.54389 29.7938ZM5.98477 27.9472C4.9487 28.0307 4.61086 29.1893 5.22597 29.8217L5.53915 29.517C5.17182 29.1394 5.36659 28.4354 6.01986 28.3827L5.98477 27.9472ZM5.22597 29.8217C5.38472 29.9848 5.61978 30.1031 5.85904 30.1238C6.10736 30.1453 6.37728 30.0599 6.54389 29.7938L6.17354 29.5619C6.11145 29.6611 6.01726 29.6989 5.89667 29.6885C5.76702 29.6773 5.62834 29.6087 5.53915 29.517L5.22597 29.8217Z" fill="black"/>
<path d="M5.43308 27.0264C5.54877 27.0607 5.67033 26.9947 5.70459 26.879C5.73885 26.7633 5.67284 26.6418 5.55715 26.6075L5.43308 27.0264ZM4.33761 28.361L4.17274 28.5043L4.17274 28.5043L4.33761 28.361ZM5.26877 28.8247L5.46871 28.7366L5.29265 28.3368L5.09271 28.4248L5.26877 28.8247ZM5.55715 26.6075C4.92214 26.4194 4.37054 26.6462 4.08025 27.0589C3.79124 27.4699 3.77651 28.0486 4.17274 28.5043L4.50248 28.2177C4.2441 27.9205 4.25887 27.5645 4.43764 27.3103C4.61514 27.0579 4.9696 26.8892 5.43308 27.0264L5.55715 26.6075ZM4.17274 28.5043C4.3647 28.7251 4.60446 28.8194 4.80369 28.853C4.90311 28.8697 4.99487 28.8718 5.07031 28.8664C5.1391 28.8616 5.21307 28.8492 5.26877 28.8247L5.09271 28.4248C5.105 28.4194 5.08965 28.427 5.03943 28.4306C4.99585 28.4337 4.93891 28.4326 4.87616 28.4221C4.75107 28.401 4.61267 28.3444 4.50248 28.2177L4.17274 28.5043Z" fill="black"/>
<path d="M7.07271 26.1929C6.98738 26.9609 6.98738 27.4303 7.41406 28.0703" stroke="black" stroke-width="0.699087" stroke-linecap="round"/>
<path d="M26.1692 26.3223C26.2577 25.8796 26.2811 25.6064 26.0625 25.2129" stroke="black" stroke-width="0.699087" stroke-linecap="round"/>
</g>
<rect x="0.5" y="0.5" width="31" height="31" rx="15.5" stroke="#1D1D1D"/>
<defs>
<clipPath id="clip0_661_33742">
<rect width="32" height="32" rx="16" fill="white"/>
</clipPath>
</defs>
</svg>
